<?xml version="1.0" encoding="UTF-8"?><svg id="Layer_2" xmlns="http://www.w3.org/2000/svg" viewBox="0 0 60.32 49.79"><g id="Layer_1-2"><path d="m46.05,21.3v6.04c-.06.05-.12.1-.18.15-1.86,1.44-3.96,2.6-6.21,3.45-2.11.8-4.37,1.33-6.71,1.55-.91.1-1.83.15-2.77.15-.45,0-.9-.01-1.35-.04-2.61-.12-5.14-.61-7.49-1.42-2.6-.89-4.97-2.18-7.04-3.83v-6.02l13.5,5.53c1.31.55,3.37.55,4.68,0l13.55-5.56Z"/><path d="m59.44,13.23l-4.23,1.73v5.77c.81.35,1.36,1.14,1.36,2.07,0,.84-.46,1.58-1.14,1.95l.57,1.57,1.7,4.73-3.17.84-3.06-.66,1.41-4.82.47-1.58c-.77-.35-1.3-1.13-1.3-2.04s.55-1.72,1.36-2.07v-5.04l-21.14,8.67c-1.17.48-3.05.48-4.22,0L.88,13.23c-1.17-.48-1.17-1.25,0-1.72L28.05.35c1.17-.47,3.05-.47,4.22,0l27.18,11.15c1.17.47,1.17,1.24,0,1.72Z"/><path d="m28.06,39.88v-.11c1.38-.89,2.07-2.15,2.07-3.79,0-.83-.13-1.54-.41-2.15-4.14-.06-8.1-.98-11.59-2.66h-2.69v18.32h8.35c4.44,0,6.66-1.78,6.66-5.37,0-2.1-.79-3.52-2.39-4.25Zm-6.33-4.27h.85c.38,0,.64.12.81.38.17.25.25.68.25,1.26s-.08.98-.25,1.23c-.17.23-.42.35-.79.35h-.87v-3.22Zm1.92,9.9c-.18.22-.53.33-1.07.33h-.85v-3.77h.85c.51,0,.86.16,1.04.46.19.3.29.83.29,1.55s-.1,1.2-.27,1.43Zm4.91-13.15c-1.06-.79-2.68-1.18-4.89-1.18h-2.32c2.34.81,4.88,1.3,7.49,1.42-.08-.1-.18-.17-.28-.24Z"/><path d="m42.52,39.24c-.53-.34-.95-.58-1.25-.73-.32-.15-.76-.34-1.36-.58-.61-.25-.96-.4-1.07-.45-.11-.05-.24-.1-.41-.16-.17-.06-.28-.11-.34-.15-.06-.05-.15-.1-.27-.17-.11-.06-.17-.19-.17-.36,0-.47.38-.72,1.15-.72s2.38.25,4.83.74l.68-5.19c-.7-.12-1.41-.23-2.1-.3-3.12,1.52-6.62,2.41-10.29,2.62-.52.9-.76,1.99-.76,3.26,0,1.94.79,3.46,2.35,4.54.51.35.96.62,1.33.79.38.17.84.36,1.38.58.55.23.97.41,1.25.55.29.15.51.27.66.39.15.12.22.28.22.47,0,.44-.3.64-.91.64-.92,0-2.71-.33-5.34-.99l-.41,4.99c2.07.52,4.21.79,6.38.79s3.85-.53,5-1.6c1.16-1.08,1.75-2.58,1.75-4.53s-.78-3.43-2.31-4.43Zm-4.67-8.35c-2.09,0-3.72.53-4.9,1.6,2.34-.22,4.6-.75,6.71-1.55-.61-.04-1.21-.05-1.81-.05Z"/></g></svg>