<svg id="Layer_1" data-name="Layer 1" xmlns="http://www.w3.org/2000/svg" viewBox="0 0 1172.16 570.9"><defs><style>.cls-1{fill:#fff;}.cls-2{fill:#1c1c17;}.cls-3{fill:#f3f3ff;}.cls-4{fill:#22b3ba;}.cls-5{fill:#e8aa2e;}.cls-6{fill:#d31616;}</style></defs><path class="cls-1" d="M1463.61,939.33a96.6,96.6,0,0,0-5.82-32.13,53.07,53.07,0,0,0-7.59-13.9c-8.48-11.14-20-20.37-33.76-27.1-17.65-38.36-42.07-62.87-53.47-68.72-19.44-10-118.93-33.55-168.77-62s-144.4-30.65-152.62-30.65c-6.37,0-32.43-23.06-47.18-36.61-3.79-4.2-7-7.33-9.25-8.6v0a2,2,0,0,0-1.11-.49l-.13,0c-4.45-1.16-12.09,8.81-19.55,20.29-9.82,14.05-19.21,30.23-19.21,30.23-13.46-2-36.25,13.69-36.25,13.69-13.68-9.86-29.38-9.17-38.95-7.37a7.88,7.88,0,0,0-.84-.89c.12.35.23.65.34,1a53.49,53.49,0,0,0-8.4,2.29l-1.14-.21c-142.67-26.47-195.46,17.41-195.46,17.41-68.78-4.49-64.29,26.16-79.13,23.17s-46.46,19.44-53.46,17.94-9.45-10.46-14-9-40.33,26.91-40.33,26.91-13.46,6.73-18,8.23-17.14,0-20.13,0c-1.55,0-8.59,8.32-15,16.29a52.33,52.33,0,0,0-10.11,4c-20.55,10.8-39.87,29.79-54.39,53.47C349.15,894.19,336.3,922,336.3,955a102,102,0,0,0,5.45,34.38c10.12,29,39.88,60.27,81.31,60.27a101.42,101.42,0,0,0,38-7.66,86.4,86.4,0,0,0,32.8,7.65h1a52.6,52.6,0,0,0,19.86-3.88,73.11,73.11,0,0,0,23.56,3.88,68.09,68.09,0,0,0,23.58-4.18,71,71,0,0,0,11.79,3.29,52,52,0,0,0,9.65.89,86.3,86.3,0,0,0,38.8-9.43,73,73,0,0,0,34.93,9.43,57.26,57.26,0,0,0,18.3-2.94,67.51,67.51,0,0,0,19.55,2.94,77.17,77.17,0,0,0,27.43-5.19c.25.66.47,1.32.75,2,11.89,27.75,41.82,47.51,72.77,48.07h1a52.7,52.7,0,0,0,51.41-41.23c.94-4.26,2-8.56,3.05-12.86a74.36,74.36,0,0,0,33.7,9,52.28,52.28,0,0,0,16-2.18,72.15,72.15,0,0,0,18.32,2.36h1.61a52.42,52.42,0,0,0,12.66-1.54,95.22,95.22,0,0,0,15.54-5.32,83.06,83.06,0,0,0,31.09,6.85h1a52.7,52.7,0,0,0,37.76-16,78.38,78.38,0,0,0,32.95,15.07,52,52,0,0,0,9.65.89,86.26,86.26,0,0,0,38.8-9.43,73,73,0,0,0,34.93,9.43,57.32,57.32,0,0,0,18.31-2.94,67.46,67.46,0,0,0,19.55,2.94c20.19,0,40.25-8.4,57.31-23.59,14.49,13.76,34.07,23.59,57.31,23.59a101.68,101.68,0,0,0,40.11-8.55,74.54,74.54,0,0,0,21.47,7.66,52.77,52.77,0,0,0,21.38-.43c1.57.33,3.17.61,4.78.84a52.69,52.69,0,0,0,25.33-2.75,64.44,64.44,0,0,0,17.89,2.52c35.57,0,63.44-28.11,63.44-64A64.1,64.1,0,0,0,1463.61,939.33Z" transform="translate(-323.13 -536.76)"/><path class="cls-2" d="M796.75,1107.67l-1.2,0c-32.63-.58-64.3-19.6-80.25-47.29a83,83,0,0,1-39.85,0c-17,4.58-36.06,2.49-53.63-5.57a99.3,99.3,0,0,1-38.56,8,65.92,65.92,0,0,1-12.06-1.11,84.27,84.27,0,0,1-9.43-2.34,84.44,84.44,0,0,1-46.75.28,64.81,64.81,0,0,1-21.46,3.16,97.21,97.21,0,0,1-32.74-6.66,113.83,113.83,0,0,1-37.76,6.67c-47.86,0-82.15-35.82-93.75-69.1A115.06,115.06,0,0,1,323.13,955c0-36,13.91-66.25,25.58-85.26,15.75-25.66,36.88-46.34,59.49-58.24a66.18,66.18,0,0,1,8.45-3.71c11.63-14.38,15.8-18.14,22.77-18.14,1.22,0,2.7.1,4.76.24,2.55.18,9.21.65,11.57.31,2.45-.89,9.35-4.13,15-6.94,36.65-26,41.08-27.46,43-28.08,10.37-3.43,17.35,4.18,20,7.05.13.14.28.31.44.47,2.79-1.16,6.85-3.13,10.06-4.7,13.62-6.61,29-14.08,41.73-12.51.62-.56,1.35-1.27,1.95-1.85,12-11.52,28.43-23.54,72.73-21.5,16.14-10.36,75.36-39.92,199.5-17.36l1.2-.34.21-.15a13.15,13.15,0,0,1,10.68-2c13.16-1.63,25.73.32,36.47,5.62,7.21-4.19,18.25-9.67,28.82-11.18,3.7-6.11,9.68-15.73,15.92-24.67,10.13-15.57,20.34-29.2,33.8-25.67l.17,0a15.07,15.07,0,0,1,5.18,2.36c3.12,2,6.47,5,11.18,10.22,23.84,21.87,35.77,30.62,39.75,32.75,14.45.28,106.15,3.24,157.21,32.35,30.86,17.59,82.88,33.67,120.86,45.41,22.91,7.08,39.46,12.2,47.4,16.27,15.64,8,40,34.68,57.47,70.78a106.83,106.83,0,0,1,34.23,28.78,65.77,65.77,0,0,1,9.48,17.37,107.63,107.63,0,0,1,6.43,31.26,77.32,77.32,0,0,1,18.7,51c0,43.26-33.65,77.15-76.61,77.15a78.44,78.44,0,0,1-17.44-2,66.2,66.2,0,0,1-27.57,2.07c-1-.13-2-.28-2.92-.45a66.76,66.76,0,0,1-11.81,1.06h0a65.89,65.89,0,0,1-12-1.11,85.65,85.65,0,0,1-19.59-6.2,114.05,114.05,0,0,1-39.57,7.31,93.78,93.78,0,0,1-57.53-19.68c-17.52,12.76-37.44,19.68-57.09,19.68a80.26,80.26,0,0,1-19.39-2.41c-17,4.58-36.07,2.49-53.64-5.58a99.13,99.13,0,0,1-38.56,8,66,66,0,0,1-12.06-1.11,89.07,89.07,0,0,1-29.62-11.48,66.28,66.28,0,0,1-39.91,12.58,94.75,94.75,0,0,1-30.76-5.82,109.46,109.46,0,0,1-12.46,3.9,66,66,0,0,1-15.83,1.93h-1.61a85.31,85.31,0,0,1-18.14-2,65,65,0,0,1-16.49,1.76,85.12,85.12,0,0,1-24.21-4.06A65.43,65.43,0,0,1,796.75,1107.67Zm-74.48-76.39a13.19,13.19,0,0,1,12.31,8.48l.31.85c.08.21.15.42.24.63,9.91,23.13,35,39.62,60.9,40.08h.72a39.27,39.27,0,0,0,38.55-30.93c.93-4.17,2-8.48,3.14-13.19a13.17,13.17,0,0,1,19-8.4,61.4,61.4,0,0,0,27.71,7.48,39.12,39.12,0,0,0,12-1.63,13.17,13.17,0,0,1,7.1-.12,59.56,59.56,0,0,0,15,1.93h1.61a40,40,0,0,0,9.5-1.15,83,83,0,0,0,13.39-4.59,13.19,13.19,0,0,1,10.49-.06,70.59,70.59,0,0,0,26.15,5.8h.75a39.71,39.71,0,0,0,28.31-12,13.17,13.17,0,0,1,17.45-1.28,65.31,65.31,0,0,0,27.36,12.59,40,40,0,0,0,7.24.66,72.69,72.69,0,0,0,32.88-8,13.16,13.16,0,0,1,12.26.22c14.14,7.76,29.61,9.93,42.72,5.54a13.25,13.25,0,0,1,8-.12,54.58,54.58,0,0,0,15.75,2.38c16.87,0,33.66-7,48.56-20.26a13.16,13.16,0,0,1,17.82.29c9.6,9.11,25.76,20,48.24,20a88.59,88.59,0,0,0,34.87-7.46,13.19,13.19,0,0,1,11.45.47,61.46,61.46,0,0,0,17.67,6.33,39.82,39.82,0,0,0,7.22.66h0a39.44,39.44,0,0,0,8.8-1,13.22,13.22,0,0,1,5.67,0c1.27.27,2.56.49,3.84.67a39.75,39.75,0,0,0,19-2.06,13.26,13.26,0,0,1,8.19-.29,51.61,51.61,0,0,0,14.24,2c28.19,0,50.27-22.32,50.27-50.81a51,51,0,0,0-14.67-36.33,13.18,13.18,0,0,1-3.84-9.07,83.27,83.27,0,0,0-5-27.85,39.55,39.55,0,0,0-5.69-10.42c-7.13-9.37-17.19-17.41-29.09-23.26a13.2,13.2,0,0,1-6.15-6.32c-17.18-37.34-39.83-58.55-47.52-62.5-5.89-3-24-8.61-43.16-14.54-39.14-12.1-92.75-28.67-126.12-47.69-48.56-27.68-145.15-28.92-146.1-28.92-5.55,0-12.45,0-56.09-40.08-.31-.28-.6-.58-.89-.89-.51-.57-1-1.09-1.42-1.55-1.83,2.3-4.37,5.79-7.79,11.05-.08.12-.16.25-.25.37-9.39,13.44-18.52,29.13-18.61,29.29a13.16,13.16,0,0,1-13.3,6.42c-4.73-.7-18.11,5.51-26.9,11.52a13.21,13.21,0,0,1-15.15-.18c-9.56-6.89-20.95-6.58-28.82-5.11l-.22,0-.17,0a42.53,42.53,0,0,0-6.17,1.64,13.49,13.49,0,0,1-7.17.67l-1.13-.21c-133.28-24.72-184.26,14.28-184.76,14.68a12.83,12.83,0,0,1-9.16,2.92C623.36,746,613,756,606.18,762.6c-4.7,4.52-11.79,11.36-23.47,9-4.72-.75-20.32,6.84-27,10.08-12.06,5.85-19.34,9.39-26.63,7.83a24.61,24.61,0,0,1-11.71-6.33c-7.57,4.9-20.84,14-32.21,22.13a14,14,0,0,1-1.74,1c-3.36,1.68-14.71,7.29-19.77,8.95s-11.9,1.48-19.69,1c-1.76,2-4.66,5.32-9.26,11.06a13.14,13.14,0,0,1-6.68,4.44,40.38,40.38,0,0,0-7.58,3c-18.48,9.72-36,27-49.3,48.7-9.9,16.13-21.69,41.62-21.69,71.49a89.55,89.55,0,0,0,4.72,30.08c8.63,24.74,33.87,51.4,68.87,51.4a88.38,88.38,0,0,0,33-6.69,13.21,13.21,0,0,1,10.32.16,73.44,73.44,0,0,0,27.7,6.53h.74a39.37,39.37,0,0,0,14.89-2.91,13.16,13.16,0,0,1,9.21-.27,58,58,0,0,0,38.37-.19,13.16,13.16,0,0,1,9.11,0,59.31,59.31,0,0,0,9.62,2.69,40,40,0,0,0,7.24.66,72.69,72.69,0,0,0,32.88-8,13.16,13.16,0,0,1,12.26.22c14.14,7.76,29.6,9.93,42.72,5.54a13.22,13.22,0,0,1,8-.12c12.8,3.86,25.64,2.92,38.52-1.95A13.15,13.15,0,0,1,722.27,1031.28Zm319.31-339.57h0Zm-65.51-22.5h0l.06,0Z" transform="translate(-323.13 -536.76)"/><path class="cls-2" d="M385.53,911.07s8.88-52,11.12-52,16.13-26.48,16.13-26.48S436,802,438.94,802s15.59,1.49,20.13,0,18-8.23,18-8.23,35.8-25.41,40.33-26.91,7,7.48,14,9,38.62-20.93,53.46-17.94S595.18,730.2,664,734.69c0,0,52.79-43.88,195.46-17.41l1.14.21s26.42-10.46,47.85,5c0,0,22.79-15.66,36.25-13.69,0,0,32.89-56.71,40-50S1032.87,704,1041.1,704s102.78,2.24,152.62,30.65,149.33,52,168.77,61.95,76.79,74.15,73.73,168.89-1003.26-7-1003.26-7S375.57,939.47,385.53,911.07Z" transform="translate(-323.13 -536.76)"/><path class="cls-3" d="M436.8,849.94a4.1,4.1,0,0,1-1.34-6c8.81-11.9,38.32-50.71,46.59-47.67,2.25.83,15.09,20.25-10.71,51.75a1.32,1.32,0,0,0,1.55,2c12.38-5.59,45.76-24.25,79.93-74.22,0,0,3.74,3.49,2.49,7.23-1.07,3.2,20.74-16.47,27-22.16a.23.23,0,0,1,.35.31c-4.31,6-18,25.17-22.41,30.82-5.19,6.73,12.26-3.24,12.26-3.24s2.74,17.69-20.69,38.62,13.21,2.74,15.7,7.73-3.74,19.43-15.7,29.9C540.7,874.74,458.52,861.64,436.8,849.94Z" transform="translate(-323.13 -536.76)"/><path class="cls-3" d="M562.29,866.75S656,749.14,670.43,756.37c0,0,16.39-22.43,21.9-16.45,0,0,19.52-19.27,20.93-12a5.91,5.91,0,0,1,0,1.81c-1.24,11.71-80,96.19-80.23,99.93S660,803,659.73,805s-10.18,18.68-21.91,32.39S583.22,869.49,562.29,866.75Z" transform="translate(-323.13 -536.76)"/><path class="cls-3" d="M872.51,737.26c-1.23,16-8.77,39.8-35.27,69a1.14,1.14,0,0,1-.37.27c-4.41,2-77.88,34.93-114.85,39.52-37.25,4.63,5.16-27.84,7.15-29.35l.13-.11c2.88-2.59,101-90.66,111.25-79.17a1.16,1.16,0,0,0,1.61.14l26-21.24a1.47,1.47,0,0,1,2.31.65c.24.71.52,1.61.79,2.7a1.38,1.38,0,0,1-.61,1.54c-3.87,2.29-9.85,11.1-12.72,15.49-6.83,10.44-13.33,21.62-21.1,30.29-3.59,4-7.71,7.35-10.27,12.63-.38.79.16,1.62.67,1.05,2-2.23,4-4.2,6.15-6.26,3-3,6.25-5.33,9.28-8.34,10.19-10.16,17.51-27.19,27.64-37.34.48-.48,1,.16.72,1-4.15,13.74-13.12,26.42-18.09,36.43-.2.41.08.85.34.53,4.87-5.94,12.74-12.86,16.93-22.14A38,38,0,0,0,872.51,737.26Z" transform="translate(-323.13 -536.76)"/><path class="cls-3" d="M902.81,797.19a.89.89,0,0,1-.27-1.3c2.67-3.69,13.16-18.36,13.59-21.83s-4.48-11.9-5.54-13.64a.61.61,0,0,1,0-.64c2.52-4,27.79-43.87,34.06-51,6.6-7.49,29.54-52.93,38.76-50.52,9.06,2.37,41.31,51.9,58.25,58.44a.61.61,0,0,1,.23,1c-4.22,5.08-30.69,37.26-29.09,43.68,1.75,7,16-17.69,17.45-16.45s3.24,24.67-2.5,29.9-34.88,18.44-39.37,21.93,8-33.14-4.23-21.43-45.85,60.06-60.8,65.29-7.23-20.8-11.22-31.08C909.07,801.59,904.67,798.29,902.81,797.19Z" transform="translate(-323.13 -536.76)"/><path class="cls-3" d="M1214.9,865.14c-61.3-1.5-157.73-100.18-180.16-78.5-15.85,15.33-21.06,18.89-22.75,19.66a1.42,1.42,0,0,1-1.16,0c-19.74-8.78-51.05,23.62-57.51,30.63a1.44,1.44,0,0,0,.34,2.21C1053.83,897,1275.89,866.62,1214.9,865.14Zm-147-44.24a24.93,24.93,0,0,1-6.84-6c-.93-1.17-1.88-2.51-3.33-2.85a4.86,4.86,0,0,0-2.27.14c-1.44.37-5.79,3.71-6.49,1.88s4.6-6.29,5.89-7a5.76,5.76,0,0,1,5.63,0,7.43,7.43,0,0,1,1.62,1.5,27.91,27.91,0,0,1,5.83,11A1.61,1.61,0,0,1,1067.93,820.9Z" transform="translate(-323.13 -536.76)"/><path class="cls-3" d="M1202.12,796.28a.61.61,0,0,1,.34-1.14c20.38.66,162.59,6.14,131.08,29C1300.17,848.32,1244.73,821.23,1202.12,796.28Z" transform="translate(-323.13 -536.76)"/><path class="cls-3" d="M704.39,782.79c1.93-3.23,3.78-6.68,7.07-8.66a2.47,2.47,0,0,1,2.45-.14c1.27.68,1.11,2.08.9,3.27-1,5.71-2.11,11.59-5.17,16.52-1,1.7-2.32,3.26-3.29,5a34.34,34.34,0,0,0-3.09,9.65,18.14,18.14,0,0,0,12.82-5c1.8,2.1,1.65,5.39.27,7.78a14.9,14.9,0,0,1-6.22,5.34c-2,1.07-4.41,1.95-6.54,1.13-2.89-1.1-5.93-4.86-8.47-6.74-2.86-2.11-5-4.07-4.43-7.89s4.26-6.85,6.47-9.69A107.48,107.48,0,0,0,704.39,782.79Z" transform="translate(-323.13 -536.76)"/><path class="cls-3" d="M760.72,749.37a3.14,3.14,0,0,1,2.8,0c1,.66,1,2,1,3.19L764,766.34a10.17,10.17,0,0,1-.35,2.81,7.06,7.06,0,0,1-3.66,3.9,11.34,11.34,0,0,1-10.59-.21c-8.31-4.7-8.73-8.83,1.72-18A29.84,29.84,0,0,1,760.72,749.37Z" transform="translate(-323.13 -536.76)"/><path class="cls-3" d="M770.63,750.66c2.09-5.06,7.74-7.71,12.66-9.68a3.86,3.86,0,0,1,3.75.4c2.07,1.57.91,4.32-.7,5.9-1.42,1.39-3.25,2.51-4,4.37-.79,2.05.05,4.39-.41,6.54-.79,3.7-6.92,6.54-10.25,4.36S769.36,753.74,770.63,750.66Z" transform="translate(-323.13 -536.76)"/><path class="cls-3" d="M620.06,745.41a2.12,2.12,0,0,1,.82-.55c1.14-.31,1.81,1.25,1.86,2.43a32.3,32.3,0,0,1-1.27,9.35c-1.51,5.85-3.86,11.77-8.57,15.62a7.75,7.75,0,0,1-4.59,1.81c-8,.3-3.23-9.12-1.17-12.59A73.66,73.66,0,0,1,620.06,745.41Z" transform="translate(-323.13 -536.76)"/><path class="cls-3" d="M1109.41,740.17c1.06,4.44-3.88,8.89-4,13.69a.51.51,0,0,0,.45.51c15.3,1.92,31-2.45,46.18.25,1.1.2,2.28.43,3.22-.75a3,3,0,0,0,.54-2.45c-.37-1.85-1.88-3.06-3.31-4.17-6.06-4.68-9-6.92-16.53-7.42-2.77-.18-22.06,1.36-26.12-.06A.33.33,0,0,0,1109.41,740.17Z" transform="translate(-323.13 -536.76)"/><path class="cls-4" d="M912.85,612.36h0a27.81,27.81,0,0,0,12.93,12.93h0a27.81,27.81,0,0,0-12.93,12.93h0a27.79,27.79,0,0,0-12.92-12.93h0a27.79,27.79,0,0,0,12.92-12.93Z" transform="translate(-323.13 -536.76)"/><path class="cls-4" d="M481.82,631.38h0a27.79,27.79,0,0,0,12.93,12.92h0a27.85,27.85,0,0,0-12.93,12.93h0A27.83,27.83,0,0,0,468.9,644.3h0a27.77,27.77,0,0,0,12.92-12.92Z" transform="translate(-323.13 -536.76)"/><path class="cls-4" d="M684,536.76h0a49.82,49.82,0,0,0,23.16,23.16h0A49.82,49.82,0,0,0,684,583.08h0a49.82,49.82,0,0,0-23.16-23.16h0A49.82,49.82,0,0,0,684,536.76Z" transform="translate(-323.13 -536.76)"/><path class="cls-4" d="M423.06,1049.64c-41.43,0-71.19-31.24-81.31-60.27A102,102,0,0,1,336.3,955c0-33,12.85-60.8,23.64-78.37,14.52-23.68,33.84-42.67,54.39-53.47a52.62,52.62,0,0,1,27.88-5.95,52.61,52.61,0,0,1,29.47-4.46c34.87,4.79,66,40.81,66.67,77.08a52.74,52.74,0,0,1-5.09,23.54,103.37,103.37,0,0,1-8.59,14.26c-3.41,5-6.65,9.72-7.91,14.46a76.93,76.93,0,0,1,2.58,19.9c0,25.55-12.71,49.86-34.86,66.7A103.69,103.69,0,0,1,423.06,1049.64Z" transform="translate(-323.13 -536.76)"/><path class="cls-4" d="M494.82,1049.64h-1c-25.09-.47-58.92-15.16-73.92-46.32a52.66,52.66,0,0,1-1.34-42.69c1.69-4.15,6.65-16.64,9.31-24.51,6.2-18.45,14.06-54.63,15.88-70.14a52.66,52.66,0,0,1,56-46.42c27.23,1.89,55.12,18,68.51,43.89,16,7.25,29.85,18.93,38.25,33a52.71,52.71,0,0,1,7.37,28.59,52.48,52.48,0,0,1,8.28,28.29c0,24.42-12.12,46.49-17.33,54.85-16.65,26.71-40.29,41.42-66.56,41.42a73.11,73.11,0,0,1-23.56-3.88A52.6,52.6,0,0,1,494.82,1049.64Z" transform="translate(-323.13 -536.76)"/><path class="cls-4" d="M583.26,1049.64a52,52,0,0,1-9.65-.89c-30.46-5.67-57.66-32.33-63.67-62.22a83.94,83.94,0,0,1-1.61-17.19c0-41.79,21.06-95,67.3-113a52.71,52.71,0,0,1,31.17-2.19c1.23.29,2.44.61,3.65.95a52.4,52.4,0,0,1,16.53,3c26.52,9.36,55.06,35.57,55.06,71a79.22,79.22,0,0,1-9.52,37.92c-.42,20.33-10.5,41.14-27.82,57.3S605.43,1049.64,583.26,1049.64Z" transform="translate(-323.13 -536.76)"/><path class="cls-4" d="M694.84,1049.64a67.51,67.51,0,0,1-19.55-2.94,57.26,57.26,0,0,1-18.3,2.94c-19.46,0-39.57-9-55.18-24.74a86.93,86.93,0,0,1-25.67-61.48c0-30.28,13-73.11,37.82-96.38a52.72,52.72,0,0,1,36-14.25,70.71,70.71,0,0,1,28.9,6.46,52.91,52.91,0,0,1,12.46-.82,52.74,52.74,0,0,1,23.06-4.54c28.43.88,55.49,16.77,69,40.48,8.64,15.28,10.45,31.34,10.45,42.14,0,24.1-9.29,50.29-25.48,71.87C748.65,1034.6,721.86,1049.64,694.84,1049.64ZM625.37,908.48l-.08.13Z" transform="translate(-323.13 -536.76)"/><path class="cls-4" d="M796.75,1094.5h-1c-30.95-.56-60.88-20.32-72.77-48.07a52.57,52.57,0,0,1-4.09-16.61,77.11,77.11,0,0,1-18.06-19.75,51,51,0,0,1-3.4-6.41c-4.44-10-6.51-21-6.51-34.49a151.09,151.09,0,0,1,4.1-34.39c4.46-19.2,15.25-53.52,37.69-70a52.69,52.69,0,0,1,33.6-10.15,70,70,0,0,1,15,2.4,52.48,52.48,0,0,1,25.51-4.24c42.37,3.52,74.32,35.58,74.32,74.56,0,13-3.94,25.62-12.57,53.25-6.62,21.16-14.84,47.5-20.44,72.66A52.7,52.7,0,0,1,796.75,1094.5Z" transform="translate(-323.13 -536.76)"/><path class="cls-4" d="M920.87,1049.64h-1.61a72.15,72.15,0,0,1-18.32-2.36,52.28,52.28,0,0,1-16,2.18c-32.46-.61-63-24.13-72.59-55.93a52.77,52.77,0,0,1-2.19-17.8c.67-13.53,4.09-30.67,8.06-46.65-11.78-13.42-18.89-31.47-18.89-51.6a80.07,80.07,0,0,1,1.56-15.88,52.69,52.69,0,0,1,36.75-40.2c17.14-5.06,39.41-8.08,59.58-8.08,26.11,0,50.17,6.61,69.58,19.12,25.51,16.45,40.15,41.5,40.15,68.73a72.76,72.76,0,0,1-4.37,24.82,81.09,81.09,0,0,1,5.63,29.71c0,42.14-32.09,81.86-74.65,92.4A52.42,52.42,0,0,1,920.87,1049.64Z" transform="translate(-323.13 -536.76)"/><path class="cls-4" d="M981.15,1049.64h-1c-30.57-.57-60.9-19.62-73.75-46.32a52.69,52.69,0,0,1-.45-44.75c1.77-3.87,4.92-11.33,6.06-15,.05-.13.09-.27.14-.41a389.86,389.86,0,0,0,11.09-46.26,52.67,52.67,0,0,1,55.67-44,80.07,80.07,0,0,1,17.93,3.4l1.36-.35a59.35,59.35,0,0,1,14.69-1.74c38.71,0,80.48,29.6,80.48,77.43,0,30.29-17.38,61-28.34,73.2a52.65,52.65,0,0,1-22.52,14.79,55.29,55.29,0,0,1-15.07,2.82,78.85,78.85,0,0,1-4.89,7A52.67,52.67,0,0,1,981.15,1049.64Z" transform="translate(-323.13 -536.76)"/><path class="cls-4" d="M1061.51,1049.64a52,52,0,0,1-9.65-.89c-30.46-5.67-57.66-32.33-63.67-62.22a84,84,0,0,1-1.6-17.19c0-41.79,21-95,67.29-113a52.72,52.72,0,0,1,31.17-2.19c1.23.29,2.45.61,3.65.95a52.35,52.35,0,0,1,16.53,3c26.52,9.36,55.06,35.57,55.06,71a79.22,79.22,0,0,1-9.52,37.92c-.42,20.33-10.5,41.14-27.82,57.3S1083.68,1049.64,1061.51,1049.64Z" transform="translate(-323.13 -536.76)"/><path class="cls-4" d="M1173.1,1049.64a67.46,67.46,0,0,1-19.55-2.94,57.32,57.32,0,0,1-18.31,2.94c-19.46,0-39.57-9-55.17-24.74a86.89,86.89,0,0,1-25.67-61.48c0-30.28,13-73.11,37.82-96.38a52.67,52.67,0,0,1,36-14.25,70.64,70.64,0,0,1,28.9,6.46,52.91,52.91,0,0,1,12.46-.82,52.77,52.77,0,0,1,23.06-4.54c28.43.88,55.5,16.77,68.95,40.48,8.64,15.29,10.45,31.35,10.45,42.14,0,24.1-9.29,50.29-25.48,71.87C1226.9,1034.6,1200.12,1049.64,1173.1,1049.64Zm-69.48-141.16-.08.13Z" transform="translate(-323.13 -536.76)"/><path class="cls-4" d="M1287.72,1049.64c-41.43,0-71.2-31.24-81.31-60.27A102,102,0,0,1,1201,955c0-33,12.85-60.8,23.63-78.37,14.53-23.68,33.85-42.67,54.4-53.47a52.62,52.62,0,0,1,27.88-5.95,52.61,52.61,0,0,1,29.47-4.46c34.87,4.79,66,40.81,66.66,77.08a52.6,52.6,0,0,1-5.08,23.54,103.37,103.37,0,0,1-8.59,14.26c-3.41,5-6.65,9.72-7.91,14.46A76.93,76.93,0,0,1,1384,962c0,25.55-12.71,49.86-34.87,66.7A103.63,103.63,0,0,1,1287.72,1049.64Z" transform="translate(-323.13 -536.76)"/><path class="cls-4" d="M1358.94,1049.64a52.32,52.32,0,0,1-9.64-.89c-30.46-5.67-57.67-32.33-63.68-62.22a84,84,0,0,1-1.6-17.19c0-51.47,28.76-98.05,69.93-113.28a52.66,52.66,0,0,1,36.25-.1c2.23.81,4.42,1.71,6.55,2.71,22.38,6.36,41.15,18.47,53.45,34.63a53.07,53.07,0,0,1,7.59,13.9,96.91,96.91,0,0,1,5.86,34.15c0,37.31-20.83,86.32-59.43,103.67a52.79,52.79,0,0,1-28.76,4.14c-1.61-.23-3.21-.51-4.78-.84A52.56,52.56,0,0,1,1358.94,1049.64Z" transform="translate(-323.13 -536.76)"/><path class="cls-4" d="M1418.68,1048.93c-35.48,0-63.26-28.11-63.26-64s27.86-64,63.44-64,63.26,28.1,63.26,64S1454.25,1048.93,1418.68,1048.93Zm0-105.36c-22.72,0-41.91,18.95-41.91,41.38s19.27,41.37,42.09,41.37,41.91-18.95,41.91-41.37S1441.49,943.57,1418.68,943.57Z" transform="translate(-323.13 -536.76)"/><path class="cls-5" d="M1004.07,536.76h0a38.65,38.65,0,0,0,18,18h0a38.7,38.7,0,0,0-18,18h0a38.74,38.74,0,0,0-18-18h0a38.7,38.7,0,0,0,18-18Z" transform="translate(-323.13 -536.76)"/><path class="cls-5" d="M392.23,702.76h0a38.68,38.68,0,0,0,18,18h0a38.74,38.74,0,0,0-18,18h0a38.7,38.7,0,0,0-18-18h0a38.63,38.63,0,0,0,18-18Z" transform="translate(-323.13 -536.76)"/><path class="cls-5" d="M1382.78,709.08h0a38.7,38.7,0,0,0,18,18h0a38.65,38.65,0,0,0-18,18h0a38.7,38.7,0,0,0-18-18h0a38.74,38.74,0,0,0,18-18Z" transform="translate(-323.13 -536.76)"/><path class="cls-5" d="M423.06,1036.47c-35,0-60.24-26.66-68.88-51.43a89.41,89.41,0,0,1-4.71-30c0-51.86,36.09-101.83,71-120.19a39.48,39.48,0,0,1,23.62-4.19l.68.09a39.57,39.57,0,0,1,25.13-4.92c28.41,3.91,54.76,34.54,55.29,64.28a39.44,39.44,0,0,1-3.82,17.65,90.48,90.48,0,0,1-7.56,12.47c-4.29,6.27-9.15,13.38-10.43,21.66l-.15.89A62.9,62.9,0,0,1,506.17,962c0,21.4-10.81,41.89-29.66,56.21A90.23,90.23,0,0,1,423.06,1036.47ZM488.88,908Z" transform="translate(-323.13 -536.76)"/><path class="cls-5" d="M494.82,1036.47h-.74c-21.86-.41-50.28-13.9-62.31-38.87a39.5,39.5,0,0,1-1-32c.06-.16,6.25-15.4,9.59-25.25,6.55-19.51,14.55-56.39,16.48-72.83a39.48,39.48,0,0,1,42-34.82c24.42,1.69,49.48,16.84,59.67,41,15.33,6,29,16.65,36.68,29.55a39.48,39.48,0,0,1,5.19,25.52A39.53,39.53,0,0,1,609,953.37c0,28.21-25,83.1-70.72,83.1a59.88,59.88,0,0,1-24.1-5A39.44,39.44,0,0,1,494.82,1036.47Z" transform="translate(-323.13 -536.76)"/><path class="cls-5" d="M583.26,1036.47a40,40,0,0,1-7.24-.66c-25-4.67-48.27-27.39-53.18-51.92a71,71,0,0,1-1.34-14.55c0-37.45,18.44-84.93,58.91-100.68A39.39,39.39,0,0,1,603.78,867q2.43.57,4.76,1.29a40,40,0,0,1,14.06,2.25c22.29,7.86,46.27,29.56,46.27,58.6a66.59,66.59,0,0,1-9.54,34.46c0,.7,0,1.42,0,2.14,0,17.11-8.61,35-23.64,49S602.08,1036.47,583.26,1036.47Z" transform="translate(-323.13 -536.76)"/><path class="cls-5" d="M694.84,1036.47a55.78,55.78,0,0,1-19.76-3.8,44.57,44.57,0,0,1-18.09,3.8c-32,0-67.68-31.24-67.68-73.05,0-26.77,11.8-66.28,33.66-86.77A39.48,39.48,0,0,1,650,866a59.08,59.08,0,0,1,27.34,7.2,39.22,39.22,0,0,1,16.51-1.28A39.43,39.43,0,0,1,714,867.06c23.94.74,46.67,14,57.9,33.81,7.23,12.77,8.74,26.42,8.74,35.64C780.64,981.79,742.37,1036.47,694.84,1036.47Zm-58.29-121,0,.07Z" transform="translate(-323.13 -536.76)"/><path class="cls-5" d="M796.75,1081.33H796c-25.94-.46-51-17-60.9-40.09A39.52,39.52,0,0,1,732,1023c-7.93-5.33-15.09-12.08-20-19.93a39.47,39.47,0,0,1-2.55-4.81c-3.67-8.25-5.38-17.51-5.38-29.14a137.62,137.62,0,0,1,3.76-31.36c3.28-14.12,12.93-47.92,32.66-62.39a39.5,39.5,0,0,1,25.2-7.61,57.67,57.67,0,0,1,16.64,3.48,39.39,39.39,0,0,1,23.38-5.36c35.48,3,62.24,29.37,62.24,61.44,0,10.47-3.08,20.85-12,49.32-6.68,21.4-15,48-20.72,73.72A39.51,39.51,0,0,1,796.75,1081.33Z" transform="translate(-323.13 -536.76)"/><path class="cls-5" d="M920.87,1036.47h-1.61a58.79,58.79,0,0,1-18.55-3,39.37,39.37,0,0,1-15.56,2.87c-26.47-.49-52.36-20.51-60.23-46.56a39.45,39.45,0,0,1-1.63-13.36c.68-13.93,4.79-33.23,9.51-51.25-12.52-11.37-20.33-28.36-20.33-47.64a66.88,66.88,0,0,1,1.31-13.3A39.5,39.5,0,0,1,841.34,834c16-4.72,36.87-7.54,55.85-7.54,23.58,0,45.17,5.89,62.44,17,21.68,14,34.12,35,34.12,57.66a59.8,59.8,0,0,1-5.41,24.8A68.56,68.56,0,0,1,995,955.7c0,36.27-27.79,70.49-64.64,79.62A39.52,39.52,0,0,1,920.87,1036.47Zm-54-175.07h0Z" transform="translate(-323.13 -536.76)"/><path class="cls-5" d="M981.15,1036.47h-.75c-21.1-.4-49.54-12.73-62.12-38.87a39.49,39.49,0,0,1-.34-33.56c2-4.3,5.33-12.28,6.65-16.53,0-.1.07-.21.1-.31a405.13,405.13,0,0,0,11.55-48.15,39.54,39.54,0,0,1,41.76-33,69.34,69.34,0,0,1,18.85,4.1,39.27,39.27,0,0,1,4.54-1.41,46.6,46.6,0,0,1,11.51-1.35c32.37,0,67.32,24.57,67.32,64.26,0,24.93-14.91,53.17-25,64.41a39.59,39.59,0,0,1-16.88,11.1,44.06,44.06,0,0,1-14.15,2.22c-1.44,0-2.88-.06-4.32-.17a82,82,0,0,1-7.67,12.16A39.52,39.52,0,0,1,981.15,1036.47Zm-31.88-62.8Z" transform="translate(-323.13 -536.76)"/><path class="cls-5" d="M1061.51,1036.47a40,40,0,0,1-7.24-.66c-25-4.67-48.26-27.39-53.18-51.92a71,71,0,0,1-1.33-14.55c0-37.45,18.43-84.93,58.9-100.68A39.4,39.4,0,0,1,1082,867q2.43.57,4.76,1.29a40,40,0,0,1,14.06,2.25c22.29,7.86,46.27,29.56,46.27,58.6a66.59,66.59,0,0,1-9.54,34.46c0,.7,0,1.42,0,2.14,0,17.11-8.62,35-23.65,49S1080.33,1036.47,1061.51,1036.47Z" transform="translate(-323.13 -536.76)"/><path class="cls-5" d="M1173.1,1036.47a55.79,55.79,0,0,1-19.77-3.8,44.57,44.57,0,0,1-18.09,3.8c-31.94,0-67.67-31.24-67.67-73.05,0-26.77,11.79-66.28,33.65-86.77a39.51,39.51,0,0,1,27-10.69,59,59,0,0,1,27.34,7.2,39.22,39.22,0,0,1,16.51-1.28,39.44,39.44,0,0,1,20.17-4.82c23.94.74,46.66,14,57.9,33.81,7.22,12.78,8.73,26.43,8.73,35.64C1258.89,981.79,1220.62,1036.47,1173.1,1036.47Zm-58.3-121,0,.07Z" transform="translate(-323.13 -536.76)"/><path class="cls-5" d="M1287.72,1036.47c-35,0-60.24-26.66-68.88-51.43a89.16,89.16,0,0,1-4.71-30c0-51.86,36.09-101.83,71-120.19a39.48,39.48,0,0,1,23.62-4.19l.68.09a39.55,39.55,0,0,1,25.12-4.92c28.41,3.91,54.77,34.54,55.3,64.28a39.44,39.44,0,0,1-3.82,17.65,90.48,90.48,0,0,1-7.56,12.47c-4.29,6.27-9.15,13.38-10.43,21.66l-.15.89a62.9,62.9,0,0,1,2.95,19.25c0,21.4-10.81,41.89-29.66,56.21A90.23,90.23,0,0,1,1287.72,1036.47ZM1353.54,908Z" transform="translate(-323.13 -536.76)"/><path class="cls-5" d="M1358.94,1036.47a40.1,40.1,0,0,1-7.23-.66c-25-4.67-48.27-27.4-53.18-51.92a71,71,0,0,1-1.34-14.55c0-37.69,19.19-85.35,61.33-100.93a39.47,39.47,0,0,1,27.19-.07,65.44,65.44,0,0,1,6.44,2.73c19.88,5.5,37,16.3,47.57,30.21a39.55,39.55,0,0,1,5.69,10.42,84.14,84.14,0,0,1,5.07,29.65c0,33.64-19.32,77.12-51.66,91.65a39.46,39.46,0,0,1-21.57,3.11,54,54,0,0,1-6.74-1.37A39.26,39.26,0,0,1,1358.94,1036.47Z" transform="translate(-323.13 -536.76)"/><path class="cls-5" d="M1418.68,1035.76c-28.09,0-50.09-22.32-50.09-50.81s22.08-50.81,50.27-50.81S1469,956.45,1469,985,1446.87,1035.76,1418.68,1035.76Zm0-79c-15.31,0-28.74,13.18-28.74,28.21s13.51,28.2,28.92,28.2c15.58,0,28.74-12.91,28.74-28.2S1434.36,956.74,1418.68,956.74Z" transform="translate(-323.13 -536.76)"/><path class="cls-6" d="M1121.24,631h0a26.92,26.92,0,0,0,12.53,12.54h0a26.92,26.92,0,0,0-12.53,12.54h0a27,27,0,0,0-12.54-12.54h0A27,27,0,0,0,1121.24,631Z" transform="translate(-323.13 -536.76)"/><path class="cls-6" d="M612,640.31h0a27,27,0,0,0,12.54,12.53h0A27,27,0,0,0,612,665.38h0a27,27,0,0,0-12.53-12.54h0A26.9,26.9,0,0,0,612,640.31Z" transform="translate(-323.13 -536.76)"/><path class="cls-6" d="M1252.39,596.09h0a35,35,0,0,0,16.28,16.27h0a35,35,0,0,0-16.28,16.28h0a35,35,0,0,0-16.27-16.28h0a35,35,0,0,0,16.27-16.27Z" transform="translate(-323.13 -536.76)"/><path class="cls-6" d="M780.16,582.84h0a39.21,39.21,0,0,0,18.23,18.23h0a39.21,39.21,0,0,0-18.23,18.23h0a39.21,39.21,0,0,0-18.23-18.23h0a39.21,39.21,0,0,0,18.23-18.23Z" transform="translate(-323.13 -536.76)"/><path class="cls-6" d="M423.06,1023.31c-28.57,0-49.29-22.09-56.44-42.61a76.49,76.49,0,0,1-4-25.71c0-46.26,33.19-92.36,63.95-108.53a26.37,26.37,0,0,1,15.75-2.8,39.76,39.76,0,0,1,5.25,1.08,26.32,26.32,0,0,1,20.5-5.91c21.76,3,43.51,28.48,43.92,51.46a26.42,26.42,0,0,1-2.54,11.77,79.63,79.63,0,0,1-6.54,10.69c-4.82,7.06-10.83,15.84-12.57,27.07a27,27,0,0,1-.85,3.71A48.92,48.92,0,0,1,493,962C493,998.12,456.14,1023.31,423.06,1023.31Z" transform="translate(-323.13 -536.76)"/><path class="cls-6" d="M494.82,1023.31h-.49c-17.84-.33-41-11.23-50.69-31.41a26.34,26.34,0,0,1-.67-21.35c.06-.15,6.39-15.74,9.86-26,6.25-18.61,14.89-56.75,17.09-75.52a26.35,26.35,0,0,1,28-23.22c21.62,1.51,43.87,15.81,50.3,38.27,14.74,4.28,28.62,14.06,35.64,25.86a26.32,26.32,0,0,1,2,22.79,26.34,26.34,0,0,1,10,20.63c0,24.66-21.85,69.94-57.55,69.94a47.78,47.78,0,0,1-25.35-7.18A26.36,26.36,0,0,1,494.82,1023.31Z" transform="translate(-323.13 -536.76)"/><path class="cls-6" d="M583.26,1023.31a26.15,26.15,0,0,1-4.83-.45c-22.15-4.13-39.28-24.68-42.68-41.58a58.13,58.13,0,0,1-1.08-11.94c0-34.16,17.35-75.5,50.52-88.41a26.26,26.26,0,0,1,15.58-1.1,56.71,56.71,0,0,1,5.93,1.73c1-.06,1.9-.1,2.75-.1a26.21,26.21,0,0,1,8.77,1.51c18,6.37,37.48,23.54,37.48,46.18a54.17,54.17,0,0,1-9.86,31.09,41.81,41.81,0,0,1,.36,5.51c0,13.47-7.1,27.82-19.47,39.37C614.17,1016.85,598.73,1023.31,583.26,1023.31Z" transform="translate(-323.13 -536.76)"/><path class="cls-6" d="M694.84,1023.31a45.48,45.48,0,0,1-20.26-5.24,32.52,32.52,0,0,1-17.59,5.24c-25.21,0-54.51-26.16-54.51-59.89,0-24.34,11-59.86,29.5-77.16a26.32,26.32,0,0,1,18-7.13c8.75,0,18,3.18,26.16,8.67a26.3,26.3,0,0,1,16.74-2.75c1.2.2,2.41.47,3.61.79a26.32,26.32,0,0,1,17.1-5.62c19.44.6,37.83,11.26,46.85,27.14,4.53,8,7,18.36,7,29.15C767.47,975.58,734,1023.31,694.84,1023.31ZM647.73,922.4l0,0Z" transform="translate(-323.13 -536.76)"/><path class="cls-6" d="M796.74,1068.16h-.48c-20.59-.37-41.21-13.87-49-32.1a26.45,26.45,0,0,1-1.58-15.74c.26-1.25.54-2.56.83-3.95-9.17-4.78-18-11.75-23.24-20.2a25.9,25.9,0,0,1-1.7-3.21c-2.9-6.51-4.25-14.07-4.25-23.79a124,124,0,0,1,3.4-28.32c2.32-10,11-42.6,27.64-54.81a26.35,26.35,0,0,1,16.8-5.08,49.68,49.68,0,0,1,19.1,5.35A26.3,26.3,0,0,1,804.66,879c28.6,2.38,50.17,23.16,50.17,48.32,0,8.64-3.28,19.5-11.38,45.4-6.75,21.63-15.16,48.54-21,74.78A26.34,26.34,0,0,1,796.74,1068.16Z" transform="translate(-323.13 -536.76)"/><path class="cls-6" d="M920.87,1023.31h-1.61A47.1,47.1,0,0,1,900,1019a26.37,26.37,0,0,1-14.62,4.1c-21-.39-41.58-16.38-47.87-37.2a26.26,26.26,0,0,1-1.09-8.9c.71-14.52,5.77-36.79,11.35-56.91-14.17-9.06-22.15-26-22.15-42.63a54.5,54.5,0,0,1,1.05-10.72,26.34,26.34,0,0,1,18.38-20.1c14.85-4.38,34.33-7,52.12-7,46.76,0,83.39,27,83.39,61.51a47.71,47.71,0,0,1-7.13,25.09,55.22,55.22,0,0,1,8.39,29.44c0,29.89-24,59.25-54.64,66.83A25.94,25.94,0,0,1,920.87,1023.31Z" transform="translate(-323.13 -536.76)"/><path class="cls-6" d="M981.14,1023.31h-.49c-17.74-.33-40.79-11.23-50.51-31.41a26.35,26.35,0,0,1-.22-22.38c1.41-3.08,5.46-12.35,7.25-18.07l.06-.21a414.21,414.21,0,0,0,12-50,26.31,26.31,0,0,1,27.83-22,56.63,56.63,0,0,1,20.12,5.41,26.12,26.12,0,0,1,7.38-3.08,33.4,33.4,0,0,1,8.33-1c26.15,0,54.15,20.53,54.15,51.09,0,22.26-14.08,47.21-21.62,55.62a26.38,26.38,0,0,1-11.26,7.4,31.18,31.18,0,0,1-10,1.54,44.72,44.72,0,0,1-11.83-1.63c-3.07,6.84-6.75,13.85-10.52,18.65A26.34,26.34,0,0,1,981.14,1023.31Z" transform="translate(-323.13 -536.76)"/><path class="cls-6" d="M1061.51,1023.31a26,26,0,0,1-4.82-.45c-22.15-4.13-39.29-24.68-42.69-41.58a58.13,58.13,0,0,1-1.08-11.94c0-34.16,17.36-75.5,50.52-88.41a26.26,26.26,0,0,1,15.58-1.1,56.71,56.71,0,0,1,5.93,1.73c1-.06,1.9-.1,2.75-.1a26.21,26.21,0,0,1,8.77,1.51c18,6.37,37.49,23.54,37.49,46.18a54.24,54.24,0,0,1-9.86,31.09,43.65,43.65,0,0,1,.35,5.51c0,13.47-7.1,27.82-19.47,39.37C1092.42,1016.85,1077,1023.31,1061.51,1023.31Z" transform="translate(-323.13 -536.76)"/><path class="cls-6" d="M1173.1,1023.31a45.41,45.41,0,0,1-20.26-5.24,32.53,32.53,0,0,1-17.6,5.24c-25.2,0-54.5-26.16-54.5-59.89,0-24.34,11-59.86,29.49-77.16a26.32,26.32,0,0,1,18-7.13c8.75,0,18,3.18,26.16,8.67a26.32,26.32,0,0,1,16.75-2.75c1.2.2,2.4.47,3.6.79a26.32,26.32,0,0,1,17.1-5.62c19.45.6,37.84,11.26,46.85,27.14,4.54,8,7,18.36,7,29.15C1245.72,975.58,1212.21,1023.31,1173.1,1023.31ZM1126,922.4v0Z" transform="translate(-323.13 -536.76)"/><path class="cls-6" d="M1287.72,1023.31c-28.58,0-49.29-22.09-56.44-42.61a76.24,76.24,0,0,1-4-25.71c0-46.26,33.19-92.36,64-108.53a26.37,26.37,0,0,1,15.75-2.8,40.09,40.09,0,0,1,5.25,1.08,26.32,26.32,0,0,1,20.5-5.91c21.76,3,43.51,28.48,43.92,51.46a26.42,26.42,0,0,1-2.54,11.77,79.63,79.63,0,0,1-6.54,10.69c-4.83,7.06-10.83,15.84-12.58,27.07a25.6,25.6,0,0,1-.85,3.71,48.73,48.73,0,0,1,3.5,18.45C1357.66,998.12,1320.8,1023.31,1287.72,1023.31Z" transform="translate(-323.13 -536.76)"/><path class="cls-6" d="M1358.94,1023.31a26.21,26.21,0,0,1-4.82-.45c-22.15-4.13-39.29-24.68-42.69-41.58a58.19,58.19,0,0,1-1.07-11.94c0-34.33,18.11-75.77,52.73-88.57a26.37,26.37,0,0,1,18.12-.06,54.14,54.14,0,0,1,6.22,2.72c17.66,4.63,32.74,13.9,41.81,25.82a26.25,26.25,0,0,1,3.79,7,70.71,70.71,0,0,1,4.28,25.15c0,28.82-16.78,67.46-43.89,79.64a26.38,26.38,0,0,1-14.38,2.07,41.28,41.28,0,0,1-8.91-2.25A26.38,26.38,0,0,1,1358.94,1023.31Z" transform="translate(-323.13 -536.76)"/><path class="cls-6" d="M1418.68,1022.59c-20.71,0-36.93-16.54-36.93-37.64s16.3-37.64,37.11-37.64,36.92,16.53,36.92,37.64S1439.48,1022.59,1418.68,1022.59Zm0-52.68c-8.15,0-15.57,7.17-15.57,15s7.5,15,15.75,15,15.57-7.16,15.57-15S1427.07,969.91,1418.68,969.91Z" transform="translate(-323.13 -536.76)"/><path d="M423.06,1010.14c-21.16,0-38.16-17-44-33.77A64,64,0,0,1,375.81,955c0-41.35,29.54-82.48,56.91-96.88a13.19,13.19,0,0,1,7.87-1.4,28.76,28.76,0,0,1,10.51,3.75c1.18-1.56,2.43-3.05,3.72-4.45a13.14,13.14,0,0,1,11.48-4.13c15.52,2.13,32.25,22,32.54,38.64a13,13,0,0,1-1.27,5.89,69.3,69.3,0,0,1-5.5,8.9c-5.29,7.73-12.53,18.31-14.73,32.5a13.17,13.17,0,0,1-2.5,5.91,33.68,33.68,0,0,1,5,18.26C479.83,989.54,449.86,1010.14,423.06,1010.14Zm22.66-34.74a95.7,95.7,0,0,1-14.81,7.41A37.81,37.81,0,0,0,445.72,975.4Zm-5.93-90.78c-18.71,13.14-37.64,43.64-37.64,70.37a45,45,0,0,0,.75,8.9,120.35,120.35,0,0,1,37.58-65.36,13.16,13.16,0,0,1,21.24,5.56c3-5.52,6.16-10.08,8.61-13.65l1.43-2.1a27.14,27.14,0,0,0-3.65-5.64q-.9,1.74-1.65,3.57a13.17,13.17,0,0,1-22.94,2.57A23.9,23.9,0,0,0,439.79,884.62Zm3.88,49.88a96.32,96.32,0,0,0-9.39,17,90.71,90.71,0,0,0,14.25-11A37.08,37.08,0,0,1,443.67,934.5Zm18.78-56.58Z" transform="translate(-323.13 -536.76)"/><path d="M494.82,1010.14h-.25c-13.65-.25-32-9.28-39.07-24a13.18,13.18,0,0,1-.33-10.67c.07-.16,6.54-16.1,10.13-26.71,6.61-19.65,15.38-58.41,17.7-78.22A13.16,13.16,0,0,1,497,859c18.53,1.29,38.48,15.4,39.81,36.21,15.92,1.7,30.15,12.14,35.72,21.51a13.19,13.19,0,0,1,.78,11.93c-1.82,4.23-3.44,8.08-4.91,11.63a13.18,13.18,0,0,1,14.23,13.13c0,17.34-16.77,56.77-44.38,56.77a34.22,34.22,0,0,1-28.12-14.23,82.91,82.91,0,0,1-4,7.77A13.18,13.18,0,0,1,494.82,1010.14ZM530.39,942a13.14,13.14,0,0,1,1.11,9c-2.66,11.25-3.06,17.54-3.06,20.29,0,5.19,3,12.49,9.8,12.49.69,0,2.17-.66,4.11-2.34a13.16,13.16,0,0,1-10.66-16.68c3.43-11.85,7.3-22.57,14-38.63a29.58,29.58,0,0,0-6.27-3.4C537.24,926.84,534.1,933.34,530.39,942Zm-48.05,36.5a24.56,24.56,0,0,0,5.24,3.28c1.45-3.4,3.25-8,5.44-14,.08-.24.18-.48.28-.72,1-2.37,3.4-7.77,6.42-13.5a13.07,13.07,0,0,1,.26-6.67c6.51-21.44,10.55-40.39,10.55-49.45,0-2.71-1.55-5.26-3.89-7.33-3.92,21.95-10.76,50.42-16.38,67.14C487.94,964,484.66,972.58,482.34,978.47Z" transform="translate(-323.13 -536.76)"/><path d="M583.26,1010.14a13,13,0,0,1-2.41-.23c-16.25-3-29.71-18.57-32.2-31.3a45,45,0,0,1-.81-9.27c0-29.69,14.47-65.38,42.12-76.14a13.14,13.14,0,0,1,7.79-.55,41.55,41.55,0,0,1,7.07,2.32,40,40,0,0,1,4.63-.34,13.31,13.31,0,0,1,4.38.75c14.27,5,28.7,18.25,28.7,33.77,0,11.23-4.39,20.54-10.87,28.07a25.19,25.19,0,0,1,1.37,8.53C633,985.32,609.59,1010.14,583.26,1010.14Zm12.29-90.34c-12.09,7.86-21.37,28.75-21.37,49.54v.41c.37-1.56.83-3,1.24-4.27.15-.46.29-.92.43-1.36a13.05,13.05,0,0,1,2.67-4.86,13.34,13.34,0,0,1,1.21-5.31,82.13,82.13,0,0,1,22.1-28.56,13.13,13.13,0,0,1,7.52-3.09c-.63-.39-1.29-.76-2-1.1-.6.09-1.24.21-1.79.33A13.14,13.14,0,0,1,595.55,919.8Z" transform="translate(-323.13 -536.76)"/><path d="M694.84,1010.14c-7.23,0-14.84-3.35-21.37-8.1-5.42,5.48-10.82,8.1-16.48,8.1-16.46,0-41.34-18.64-41.34-46.72,0-21.16,10.18-53.35,25.33-67.56a13.16,13.16,0,0,1,9-3.56c8.93,0,19,5.06,26.13,12.83a37.85,37.85,0,0,1,3.46-3.73A13.19,13.19,0,0,1,690.73,898a29.87,29.87,0,0,1,9.81,3.64,13.2,13.2,0,0,1,12.65-8.3c17,.53,30.23,10.67,35.8,20.48,3.43,6.06,5.31,14.09,5.31,22.65C754.3,968.66,725.47,1010.14,694.84,1010.14Zm-4.54-28.52A14.45,14.45,0,0,0,695,983.8c12.79-.16,33-25.89,33-47.29a21.64,21.64,0,0,0-1.84-9.58c-3,21.73-15.37,43.31-31,52.92A13.24,13.24,0,0,1,690.3,981.62Zm-35.83-60.79C647.75,931.52,642,950.27,642,963.42a19.87,19.87,0,0,0,1.65,8,12.77,12.77,0,0,1,.17-2.22,105.31,105.31,0,0,1,15.09-39.81,2.29,2.29,0,0,0,.53-1.47C659.43,925.63,657,922.77,654.47,920.83Zm37.45,8.45c-1,2-1.93,4.25-2.85,6.62a38.62,38.62,0,0,0,3.13-5.8A4,4,0,0,0,691.92,929.28Z" transform="translate(-323.13 -536.76)"/><path d="M796.74,1055h-.24c-15.41-.28-31.39-10.65-37.16-24.13a13.12,13.12,0,0,1-.79-7.87c.85-4.09,1.89-9,3.1-14.47-10-3.22-21.76-10.51-27.23-19.31a14.43,14.43,0,0,1-.85-1.6c-2.12-4.78-3.11-10.64-3.11-18.45a110.18,110.18,0,0,1,3.07-25.37c3.13-13.57,11.46-39,22.58-47.14a13.14,13.14,0,0,1,8.41-2.54c6.78.31,16.59,4.27,24.29,10.95l1.05-3.54a13.16,13.16,0,0,1,13.71-9.35c21.72,1.81,38.09,16.93,38.09,35.19,0,6.7-3.3,17.55-10.78,41.47-6.83,21.86-15.33,49.07-21.29,75.85A13.17,13.17,0,0,1,796.74,1055Zm-11.31-31.84a16,16,0,0,0,1.81,1.62c5.75-23,12.71-45.26,18.5-63.8,4.36-13.94,9.29-29.73,9.58-33.7,0-1.87-1.46-3.92-3.9-5.58-1.78,6.23-3.56,12.63-5.31,18.9-1.63,5.85-3.19,11.43-4.61,16.4a12.54,12.54,0,0,1-.88,2.27c-.87,1.75-2.56,5-4.81,8.8a13.23,13.23,0,0,1,.59,8.32C791.66,994.85,788,1011.32,785.43,1023.15Zm-28-47.08c.19.21.41.43.65.66,0-.1,0-.21.05-.31a173.35,173.35,0,0,1,5.62-24A84.23,84.23,0,0,1,772.78,932c1.64-2.74,1.64-2.76,1.64-3.6-.26-1.44-2.85-3.84-5.69-5.64a120.78,120.78,0,0,0-9.57,27.08,84.81,84.81,0,0,0-2.36,19.29A30.52,30.52,0,0,0,757.38,976.07Z" transform="translate(-323.13 -536.76)"/><path d="M920.87,1010.14h-1.61c-7.62,0-15.11-2.94-21.57-7.5a13.19,13.19,0,0,1-12.05,7.32c-15.28-.29-30.87-12.52-35.5-27.85a13.12,13.12,0,0,1-.55-4.45c.8-16.2,7.54-43.19,14-64.91-16.16-3.87-24.79-20-24.79-35.27a40.64,40.64,0,0,1,.8-8.14,13.14,13.14,0,0,1,9.18-10.05c13.51-4,32.05-6.46,48.4-6.46,39.38,0,70.22,21.23,70.22,48.34,0,9.35-3.82,18.08-10.61,25.1a42.38,42.38,0,0,1,11.87,29.43c0,24.11-19.61,47.85-44.63,54A13,13,0,0,1,920.87,1010.14Zm-7.16-28.46a11.06,11.06,0,0,0,5.4,2.12c11.57-3.53,21.57-14.7,23-25.44-4.61,7.17-12.76,15.26-27.06,22.67l-.36.18C914.4,981.37,914.06,981.53,913.71,981.68Zm-37.61-5.44a2.12,2.12,0,0,0,.11.21,338.16,338.16,0,0,1,13.71-46.81,13.16,13.16,0,0,1,4.6-6,13.19,13.19,0,0,1,1-6.66c2.45-5.76,3.44-9.57,3.44-13.15,0-.58-.58-2.13-2.78-4.33-.3-.3-.59-.62-.86-.94a12.8,12.8,0,0,1-.68,3.59C886.47,926,877.67,959.18,876.1,976.24Zm6-91.47a13.15,13.15,0,0,1,9.22,3.76,13.3,13.3,0,0,1,.95,1,13.59,13.59,0,0,1,.61-3.37,13.19,13.19,0,0,1,5.37-7h-1.08A164.6,164.6,0,0,0,866,882.22c.81,2.54,2.37,5.06,5.23,5.06,1.71,0,5.15-1.25,6.44-1.72A13,13,0,0,1,882.12,884.77Z" transform="translate(-323.13 -536.76)"/><path d="M981.14,1010.14h-.24c-13.39-.25-31.56-8.73-38.89-24A13.14,13.14,0,0,1,941.9,975c.05-.12,5.43-11.92,7.84-19.63a430,430,0,0,0,12.49-52,13.16,13.16,0,0,1,13.92-11,46,46,0,0,1,23.07,8.72,13.17,13.17,0,0,1,8.53-6.75,21,21,0,0,1,5.15-.56c17.18,0,41,13.18,41,37.92,0,17.62-11.71,39.52-18.26,46.83a13.18,13.18,0,0,1-5.63,3.7,18,18,0,0,1-5.79.86,34.64,34.64,0,0,1-18.92-6c-3.19,8.79-8.75,21.68-13.78,28.08A13.18,13.18,0,0,1,981.14,1010.14ZM969,978.65a25,25,0,0,0,5.59,3.39,142,142,0,0,0,6.91-17c.09-.27.19-.54.29-.8,1.06-2.65,3.3-8.21,5.95-14.62a13.17,13.17,0,0,1,.12-5.65l.54-2.22c.92-3.7,1.78-7.19,1.78-9.76,0-3-2.08-6.17-5-8.63-3,13.83-6.87,29.08-10.36,39.93C973.32,968.19,971,974.09,969,978.65ZM1018.49,954a11.45,11.45,0,0,0,1.32,1c3.53-6.46,7.73-16.38,7.73-23.35,0-4.09-2.65-7-5.82-8.88-.2.62-.42,1.3-.64,2a13.18,13.18,0,0,1,1.82,8.66A134.29,134.29,0,0,1,1018.49,954Z" transform="translate(-323.13 -536.76)"/><path d="M1061.51,1010.14a13,13,0,0,1-2.41-.23c-16.25-3-29.71-18.57-32.2-31.3a45,45,0,0,1-.81-9.27c0-29.69,14.47-65.38,42.12-76.14a13.17,13.17,0,0,1,7.8-.55,42.15,42.15,0,0,1,7.07,2.32,39.73,39.73,0,0,1,4.62-.34,13.37,13.37,0,0,1,4.39.75c14.26,5,28.7,18.25,28.7,33.77,0,11.23-4.39,20.54-10.88,28.07a25.19,25.19,0,0,1,1.37,8.53C1111.28,985.32,1087.85,1010.14,1061.51,1010.14Zm12.29-90.34c-12.09,7.86-21.37,28.75-21.37,49.54v.41c.38-1.56.83-3,1.24-4.27.15-.46.3-.92.43-1.36A19.81,19.81,0,0,0,1058,954a82.13,82.13,0,0,1,22.1-28.56,13.18,13.18,0,0,1,7.52-3.09c-.63-.39-1.29-.76-2-1.1-.6.09-1.24.21-1.78.33A13.16,13.16,0,0,1,1073.8,919.8Z" transform="translate(-323.13 -536.76)"/><path d="M1173.1,1010.14c-7.24,0-14.85-3.35-21.37-8.1-5.43,5.48-10.82,8.1-16.49,8.1-16.45,0-41.33-18.64-41.33-46.72,0-21.16,10.17-53.35,25.33-67.56a13.15,13.15,0,0,1,9-3.56c8.94,0,19,5.06,26.13,12.83a37.91,37.91,0,0,1,3.47-3.73A13.17,13.17,0,0,1,1169,898a30.15,30.15,0,0,1,9.82,3.64,13.16,13.16,0,0,1,12.64-8.3c17,.53,30.24,10.67,35.81,20.48,3.42,6.06,5.3,14.1,5.3,22.65C1232.55,968.66,1203.72,1010.14,1173.1,1010.14Zm-4.54-28.52a14.26,14.26,0,0,0,4.66,2.18c12.78-.16,33-25.89,33-47.29a21.75,21.75,0,0,0-1.83-9.58c-3.05,21.73-15.38,43.31-31,52.92A13.26,13.26,0,0,1,1168.56,981.62Zm-35.84-60.79c-6.71,10.69-12.48,29.44-12.48,42.59a20,20,0,0,0,1.65,8,12.79,12.79,0,0,1,.18-2.22,105.14,105.14,0,0,1,15.09-39.81,2.32,2.32,0,0,0,.52-1.47C1137.68,925.63,1135.27,922.77,1132.72,920.83Zm37.46,8.46c-1,2-1.94,4.23-2.85,6.61a39.57,39.57,0,0,0,3.13-5.8A5.22,5.22,0,0,0,1170.18,929.29Zm.41.37Z" transform="translate(-323.13 -536.76)"/><path d="M1287.72,1010.14c-21.16,0-38.16-17-44-33.77a63.71,63.71,0,0,1-3.24-21.38c0-41.35,29.54-82.48,56.91-96.88a13.19,13.19,0,0,1,7.87-1.4,28.76,28.76,0,0,1,10.51,3.75,57.63,57.63,0,0,1,3.72-4.45,13.14,13.14,0,0,1,11.48-4.13c15.52,2.13,32.25,22,32.54,38.64a13.16,13.16,0,0,1-1.27,5.89,69.47,69.47,0,0,1-5.51,8.9c-5.28,7.73-12.52,18.31-14.72,32.5a13.17,13.17,0,0,1-2.5,5.91,33.68,33.68,0,0,1,5,18.26C1344.49,989.54,1314.52,1010.14,1287.72,1010.14Zm22.66-34.74a95.7,95.7,0,0,1-14.81,7.41A37.88,37.88,0,0,0,1310.38,975.4Zm-5.93-90.78c-18.71,13.14-37.65,43.64-37.65,70.37a45,45,0,0,0,.76,8.9,120.34,120.34,0,0,1,37.57-65.36,13.17,13.17,0,0,1,21.25,5.56,159.15,159.15,0,0,1,8.61-13.65l1.43-2.1a27.14,27.14,0,0,0-3.65-5.64q-.9,1.74-1.65,3.57a13.17,13.17,0,0,1-22.94,2.57A23.9,23.9,0,0,0,1304.45,884.62Zm3.88,49.88a95.69,95.69,0,0,0-9.39,17,90.1,90.1,0,0,0,14.24-11A37.57,37.57,0,0,1,1308.33,934.5Zm18.77-56.58Z" transform="translate(-323.13 -536.76)"/><path d="M1358.94,1010.14a13.11,13.11,0,0,1-2.41-.23c-16.25-3-29.71-18.57-32.2-31.3a45.86,45.86,0,0,1-.8-9.27c0-29.77,15.15-65.51,44.12-76.22a13.19,13.19,0,0,1,9.06,0,39.26,39.26,0,0,1,5.91,2.71c15.49,3.76,28.58,11.49,36.14,21.43a13.63,13.63,0,0,1,1.9,3.47,57.39,57.39,0,0,1,3.48,20.65c0,24.31-14.83,58.06-36.12,67.63a13.14,13.14,0,0,1-7.19,1,29.37,29.37,0,0,1-11.92-4.44,13.07,13.07,0,0,1-10,4.57Zm20.85-30.89a11.63,11.63,0,0,0,1.73,2.7c8.41-7.89,16.28-26.6,16.28-40.6a33,33,0,0,0-1.22-9.6c-4.43-4.66-12.69-8.77-21.74-10.71a13.47,13.47,0,0,1-2.69-.89c-12.64,8.08-22.28,28.71-22.28,49.19,0,.57,0,1.08,0,1.51,4.66-17.43,12.94-30.39,25.91-41.22A13.17,13.17,0,0,1,1397.35,941C1396.09,954.09,1390.79,969.65,1379.79,979.25Z" transform="translate(-323.13 -536.76)"/><path d="M1418.68,1009.42c-13.54,0-23.76-10.52-23.76-24.47s10.29-24.47,23.94-24.47S1442.61,971,1442.61,985,1432.32,1009.42,1418.68,1009.42Zm-2.37-24.48a3.23,3.23,0,0,0,2.55,1.87,3,3,0,0,0,2.39-1.86,3.11,3.11,0,0,0-2.57-1.87A3.27,3.27,0,0,0,1416.31,984.94Zm0-.17" transform="translate(-323.13 -536.76)"/><path class="cls-1" d="M485.68,890.76c-3.41,7.17-17.76,21.89-21.35,45-10.05-4.66-14.53-15.43-15.07-27.45a108,108,0,0,0-34.63,64.95c15.79-.72,39.29-18.48,45.57-26,4.13,2.51,6.46,8.25,6.46,14.71,0,19.38-23,35-43.6,35-15.24,0-27.44-13.1-31.57-24.94A50.42,50.42,0,0,1,389,955c0-34.63,25.65-72.48,49.87-85.22,5.38.72,11.13,5.38,15.43,11.48a56,56,0,0,1,10.23-16.33C473.66,866.18,485.5,880.71,485.68,890.76Z" transform="translate(-323.13 -536.76)"/><path class="cls-1" d="M515.27,971.31c0-5.56,1.08-13.45,3.41-23.32-3.77,4.48-9,14.17-13.27,24.22-4,10.94-7.72,19.91-10.59,24.76-9.51-.18-22.79-6.82-27.45-16.51,0,0,6.64-16.32,10.41-27.45,7.17-21.35,16-61,18.3-80.91,12.91.9,27.62,10.77,27.62,25.3,0,11.84-5,33.19-11.12,53.28,8.61-21.89,18.12-41.8,21.53-42.52,11.66.72,23.14,8.61,27.09,15.25-8.25,19.2-12.92,31.4-16.86,45,9.15-3.59,20.81-11.66,25.11-15.07,0,13.82-14.53,43.6-31.21,43.6C523.88,997,515.27,983.87,515.27,971.31Z" transform="translate(-323.13 -536.76)"/><path class="cls-1" d="M602.63,908.7a37.54,37.54,0,0,1,6.82-.9c9.15,3.23,19.91,12.2,19.91,21.35,0,22.07-25.65,34.81-40.9,38.75-.54,1.8-1.25,3.77-1.61,5.56,10.22-3.4,22.6-8.43,30.85-14.17,2,1.8,2.16,4.49,2.16,6.46,0,12-17.4,31.22-36.6,31.22-10.59-2-20.28-13.28-21.71-21a32.84,32.84,0,0,1-.54-6.64c0-27.09,13.46-56,33.73-63.87A24.18,24.18,0,0,1,602.63,908.7Zm-10.94,50.77c13.1-7.71,18.3-12.92,18.66-24A68.82,68.82,0,0,0,591.69,959.47Z" transform="translate(-323.13 -536.76)"/><path class="cls-1" d="M656.81,971.31c3.05-.36,7.35-2.51,11.66-5,1.08-16.51,9.51-45.39,20.09-55.26,7.54,1.26,16.87,10.23,16.87,19.56,0,4.48-4.49,11.3-8.79,17.94-3.23,4.84-7.36,13.09-8.44,20.09,13.46-8.25,25.48-30.68,25.48-51.85a55.35,55.35,0,0,0-.9-10.22c11.66.36,21,7.17,24.76,13.81,2.33,4.13,3.59,10,3.59,16.15,0,26.73-24.4,60.46-46.29,60.46-6.82,0-17.22-6.82-22.78-14.71C667,990.33,661.29,997,657,997c-9.87,0-28.17-13.28-28.17-33.55,0-19.38,9.69-47.19,21.17-57.95,9.15,0,22.61,10.58,22.61,22.43a15.26,15.26,0,0,1-2.52,8.43A92.09,92.09,0,0,0,656.81,971.31Z" transform="translate(-323.13 -536.76)"/><path class="cls-1" d="M828.49,927.36c0,10.76-20.45,63.69-31.75,114.46-10-.18-21.53-7.36-25.3-16.15,2.87-13.81,7-32.29,12.2-52.56-4.31,10.58-10.41,23.86-14,23.86-7.9-1.26-19.92-8.08-24-14.71-1.44-3.23-2-7.72-2-13.1a98,98,0,0,1,2.69-22.25c4.31-18.66,12.2-35.7,17.58-39.65,7.72.36,23.69,9.69,23.69,21.17,0,9-5.56,9.33-11.3,27.81a161.08,161.08,0,0,0-5.21,22.25c5.92-4.67,13.1-15.79,17.76-25.12,3.95-13.81,9-32.47,13.64-48.08C817.55,906.55,828.49,916.05,828.49,927.36Z" transform="translate(-323.13 -536.76)"/><path class="cls-1" d="M954.24,901.17c0,11.3-9.15,20.45-21.17,24.93,12.2,4.67,22.43,14.89,22.43,29.6,0,18.12-15.79,36.6-34.63,41.27h-1.61c-12,0-24.4-12.74-27.45-22.43,5-1.08,12.74-3,17.22-5.2,14.89-7.72,22.79-16.51,25.12-24.76-1.26-.9-4.13-1.43-7.18-1.43-5.2,0-8.79,2.15-13.45,2.15-5.38,0-9-6.28-11.31-10.95-7.35,19.2-13.81,44.5-16.32,62.44-9.69-.18-20.27-9-23.14-18.48.89-18.3,11.12-56.15,19.37-80.38-4,1.44-7.53,2.52-10.94,2.52-13.1,0-19.2-12.56-19.2-23a27.82,27.82,0,0,1,.54-5.56c10.94-3.23,27.81-5.92,44.67-5.92C930.56,866,954.24,882.87,954.24,901.17Zm-44.49,21c9.33-4.67,17.94-15.25,19.56-26.2-2.7-4.84-9-6.28-16.69-6.28a44.88,44.88,0,0,0-7.18.54c3.77,3.77,6.64,8.43,6.64,13.64,0,6.45-2,12.37-4.48,18.3Z" transform="translate(-323.13 -536.76)"/><path class="cls-1" d="M1009.85,931.66c-4.31,9.33-10.77,24.94-15.79,37.5-3,9.33-9,22.78-12.92,27.81-9.5-.18-22.6-6.82-27.27-16.51,0,0,5.74-12.56,8.44-21.17a442.89,442.89,0,0,0,12.91-53.82c12.74.9,28.17,12.2,28.17,26.55,0,4.85-1.43,9.87-2.69,15.07,4.13-12.91,8.43-30,10.76-34.26-.18-3.05-.53-5.75-.53-5.75a8.41,8.41,0,0,1,2-.17c10.58,0,27.81,8.07,27.81,24.75,0,13.82-10.23,32.83-14.89,38a5.55,5.55,0,0,1-1.62.18c-7.36,0-16.68-5.56-20.27-13.82A116,116,0,0,0,1009.85,931.66Z" transform="translate(-323.13 -536.76)"/><path class="cls-1" d="M1080.89,908.7a37.34,37.34,0,0,1,6.81-.9c9.15,3.23,19.92,12.2,19.92,21.35,0,22.07-25.66,34.81-40.91,38.75-.54,1.8-1.25,3.77-1.61,5.56,10.22-3.4,22.6-8.43,30.86-14.17,2,1.8,2.15,4.49,2.15,6.46,0,12-17.4,31.22-36.6,31.22-10.58-2-20.27-13.28-21.71-21a32.84,32.84,0,0,1-.54-6.64c0-27.09,13.46-56,33.73-63.87A24.33,24.33,0,0,1,1080.89,908.7Zm-11,50.77c13.1-7.71,18.3-12.92,18.66-24A68.82,68.82,0,0,0,1069.94,959.47Z" transform="translate(-323.13 -536.76)"/><path class="cls-1" d="M1135.06,971.31c3-.36,7.36-2.51,11.66-5,1.08-16.51,9.51-45.39,20.1-55.26,7.53,1.26,16.86,10.23,16.86,19.56,0,4.48-4.48,11.3-8.79,17.94-3.23,4.84-7.36,13.09-8.43,20.09,13.45-8.25,25.47-30.68,25.47-51.85a56.31,56.31,0,0,0-.89-10.22c11.66.36,21,7.17,24.75,13.81,2.34,4.13,3.59,10,3.59,16.15,0,26.73-24.4,60.46-46.28,60.46-6.82,0-17.23-6.82-22.79-14.71-5,8.07-10.76,14.71-15.07,14.71-9.87,0-28.16-13.28-28.16-33.55,0-19.38,9.68-47.19,21.16-57.95,9.15,0,22.61,10.58,22.61,22.43a15.33,15.33,0,0,1-2.51,8.43A92.1,92.1,0,0,0,1135.06,971.31Z" transform="translate(-323.13 -536.76)"/><path class="cls-1" d="M1350.34,890.76c-3.41,7.17-17.77,21.89-21.35,45-10-4.66-14.54-15.43-15.07-27.45a108,108,0,0,0-34.63,64.95c15.79-.72,39.29-18.48,45.57-26,4.13,2.51,6.46,8.25,6.46,14.71,0,19.38-23,35-43.6,35-15.25,0-27.45-13.1-31.57-24.94a50.17,50.17,0,0,1-2.51-17c0-34.63,25.65-72.48,49.87-85.22,5.38.72,11.12,5.38,15.43,11.48a56,56,0,0,1,10.23-16.33C1338.31,866.18,1350.16,880.71,1350.34,890.76Z" transform="translate(-323.13 -536.76)"/><path class="cls-1" d="M1377.6,908.16c12.56,2.69,24.4,8.79,30.68,17a44.62,44.62,0,0,1,2.69,16.15c0,19.92-12.38,48.44-28.35,55.62-9.14-1.26-17.22-11.13-17.4-23.86,11.84-5.21,17.76-20.28,19-33.37-16.33,13.63-23.14,30.5-25.3,57.23-10.58-2-20.27-13.28-21.71-21a33.69,33.69,0,0,1-.53-6.64c0-27.09,14.17-56,35.52-63.87A25.05,25.05,0,0,1,1377.6,908.16Z" transform="translate(-323.13 -536.76)"/><path class="cls-1" d="M1408.09,985c0-6.64,4.49-11.31,10.77-11.31s10.58,4.67,10.58,11.31c0,6.46-4.12,11.3-10.76,11.3C1412.4,996.25,1408.09,991.41,1408.09,985Z" transform="translate(-323.13 -536.76)"/></svg>