<?xml version="1.0" encoding="UTF-8"?><svg id="Layer_2" xmlns="http://www.w3.org/2000/svg" viewBox="0 0 615.6 410.4"><defs><style>.cls-1{stroke-width:.65px;}.cls-1,.cls-2,.cls-3,.cls-4,.cls-5,.cls-6,.cls-7,.cls-8,.cls-9,.cls-10{stroke:#000;stroke-miterlimit:10;}.cls-2,.cls-3,.cls-4,.cls-6,.cls-7,.cls-9,.cls-10{fill:none;}.cls-2,.cls-10{stroke-width:3.04px;}.cls-3{stroke-width:2.39px;}.cls-3,.cls-4,.cls-7,.cls-9,.cls-10{stroke-linecap:round;}.cls-4,.cls-5{stroke-width:1.74px;}.cls-6{stroke-width:2px;}.cls-11{fill:#e27944;}.cls-7{stroke-width:1.52px;}.cls-8{stroke-width:.09px;}.cls-9{stroke-width:.87px;}</style></defs><g id="Layer_1-2"><rect class="cls-11" width="615.6" height="410.4"/><path d="m563,47.03v316.35H52.6V47.03h510.4m4.81-4.81H47.79v325.97h520.02V42.22h0Z"/><path d="m156.14,123.96c3.23,0,5.86,2.63,5.86,5.86v29.12c0,3.23-2.63,5.86-5.86,5.86h-29.12c-3.23,0-5.86-2.63-5.86-5.86v-29.12c0-3.23,2.63-5.86,5.86-5.86h29.12m0-3.28h-29.12c-5.05,0-9.14,4.09-9.14,9.14v29.12c0,5.05,4.09,9.14,9.14,9.14h29.12c5.05,0,9.14-4.09,9.14-9.14v-29.12c0-5.05-4.09-9.14-9.14-9.14h0Z"/><path class="cls-8" d="m157.14,120.68h-31.49c-4.29,0-7.76,3.47-7.76,7.76v4.39h47.39v-4.01c0-4.5-3.64-8.14-8.14-8.14Zm-26.48,8.02c-1.66.27-3.08-1.14-2.81-2.81.16-1.01.98-1.82,1.99-1.99,1.66-.27,3.08,1.14,2.81,2.81-.17,1.01-.98,1.82-1.99,1.99Zm22.66,0c-1.66.27-3.08-1.14-2.81-2.81.17-1.01.98-1.82,1.99-1.99,1.66-.27,3.08,1.14,2.81,2.81-.17,1.01-.98,1.82-1.99,1.99Z"/><rect x="128.4" y="116.21" width="3.69" height="11.25" rx="1.85" ry="1.85"/><rect x="151.06" y="116.21" width="3.69" height="11.25" rx="1.85" ry="1.85"/><rect x="125.24" y="138.5" width="8.33" height="8.33" rx=".97" ry=".97"/><path d="m132.66,146.91h-6.51c-.54,0-.99-.44-.99-.99v-6.51c0-.54.44-.99.99-.99h6.51c.54,0,.99.44.99.99v6.51c0,.54-.44.99-.99.99Zm-6.51-8.33c-.46,0-.83.37-.83.83v6.51c0,.46.37.83.83.83h6.51c.46,0,.83-.37.83-.83v-6.51c0-.46-.37-.83-.83-.83h-6.51Z"/><rect x="137.41" y="138.5" width="8.33" height="8.33" rx=".97" ry=".97"/><path d="m144.83,146.91h-6.51c-.54,0-.99-.44-.99-.99v-6.51c0-.54.44-.99.99-.99h6.51c.54,0,.99.44.99.99v6.51c0,.54-.44.99-.99.99Zm-6.51-8.33c-.46,0-.83.37-.83.83v6.51c0,.46.37.83.83.83h6.51c.46,0,.83-.37.83-.83v-6.51c0-.46-.37-.83-.83-.83h-6.51Z"/><rect x="149.58" y="138.5" width="8.33" height="8.33" rx=".97" ry=".97"/><path d="m157,146.91h-6.51c-.54,0-.99-.44-.99-.99v-6.51c0-.54.44-.99.99-.99h6.51c.54,0,.99.44.99.99v6.51c0,.54-.44.99-.99.99Zm-6.51-8.33c-.46,0-.83.37-.83.83v6.51c0,.46.37.83.83.83h6.51c.46,0,.83-.37.83-.83v-6.51c0-.46-.37-.83-.83-.83h-6.51Z"/><rect x="125.24" y="150.42" width="8.33" height="8.33" rx=".97" ry=".97"/><path d="m132.66,158.82h-6.51c-.54,0-.99-.44-.99-.99v-6.51c0-.54.44-.99.99-.99h6.51c.54,0,.99.44.99.99v6.51c0,.54-.44.99-.99.99Zm-6.51-8.33c-.46,0-.83.37-.83.83v6.51c0,.46.37.83.83.83h6.51c.46,0,.83-.37.83-.83v-6.51c0-.46-.37-.83-.83-.83h-6.51Z"/><rect x="137.41" y="150.42" width="8.33" height="8.33" rx=".97" ry=".97"/><path d="m144.83,158.82h-6.51c-.54,0-.99-.44-.99-.99v-6.51c0-.54.44-.99.99-.99h6.51c.54,0,.99.44.99.99v6.51c0,.54-.44.99-.99.99Zm-6.51-8.33c-.46,0-.83.37-.83.83v6.51c0,.46.37.83.83.83h6.51c.46,0,.83-.37.83-.83v-6.51c0-.46-.37-.83-.83-.83h-6.51Z"/><path d="m258.02,126.82c1.33,0,2.46,1.48,2.49,3.24l-1.52,31.53v.07s0,.07,0,.07c0,1.79-1.14,3.3-2.49,3.3h-27.56c-1.35,0-2.49-1.51-2.49-3.3v-.15s-1.53-31.53-1.53-31.53c.03-1.76,1.16-3.24,2.49-3.24h30.61m0-3.04h-30.61c-3.05,0-5.53,2.84-5.53,6.34l1.53,31.61c0,3.5,2.47,6.34,5.53,6.34h27.56c3.05,0,5.53-2.84,5.53-6.34l1.53-31.61c0-3.5-2.47-6.34-5.53-6.34h0Z"/><path class="cls-2" d="m262.12,133.5c-2.95,1.21-6.77,2.15-11.1,2.67-.47.06-.83.51-.83,1.05v.81c0,1.21-.86,2.2-1.92,2.2h-11.12c-1.06,0-1.92-.99-1.92-2.2v-.81c0-.54-.36-1-.83-1.05-4.33-.53-8.14-1.46-11.1-2.67"/><path class="cls-4" d="m256.07,134.63c-.41-3.44.19-7.47,2.43-10.21,2.04-2.48,5.43-3.67,8.59-3.51,1.4.07,2.81.5,3.88,1.39,1.46,1.21,2.14,3.15,2.32,5.03.69,7.1-2.8,13.08-3.78,19.87-.28,1.96-.18,4.03.64,5.83,1.54,3.4,6.59,6.7,10.27,4.65,3.27-1.82,3.22-6.36.38-8.54-4.92-3.79-11.99-2.52-14.51,6.44s5.05,9.84,5.68,11.23"/><path class="cls-5" d="m243.61,158.61c0-.32.01-.65,0-.97,0-.18-.04-.37-.1-.55-.14-.41-.36-.55-.81-.55-.44,0-.67.16-.78.59-.07.24-.1.5-.11.76-.02.58.02,1.16-.02,1.74-.02.28-.09.58-.23.82-.32.56-.96.75-1.55.5-.53-.22-.89-.63-1.15-1.12-.5-.94-.84-1.94-.96-3-.05-.46-.11-.91-.16-1.37-.1-.93-.46-1.78-.91-2.59-.34-.62-.61-1.26-.73-1.95-.26-1.51-.04-2.93.89-4.18.89-1.2,2.15-1.62,3.57-1.2.45.14.9.34,1.31.57.31.17.6.23.92.11.43-.15.87-.29,1.3-.45.56-.21,1.13-.37,1.74-.39.85-.02,1.57.28,2.18.85.78.73,1.18,1.66,1.36,2.69.22,1.2.02,2.34-.5,3.43-.12.25-.23.5-.37.73-.53.89-.76,1.86-.86,2.87-.14,1.35-.39,2.67-1.06,3.87-.22.39-.49.74-.87.99-1.01.66-2.01-.04-2.07-1.05-.02-.37,0-.75,0-1.13,0,0,0,0-.01,0Zm-.38-11.98s0,.08,0,.13c.12.05,1.27.85,1.4.88.2.05.7.22.9.26.18.04.34.12.3.33-.04.2-.19.27-.39.22-.08-.02-.17-.03-.25-.04-.7-.16-2.69-1.31-3.32-1.67-.29-.17-.59-.35-.9-.49-.55-.25-1.13-.39-1.74-.32-.9.11-1.54.62-2,1.36-.64,1.05-.8,2.19-.62,3.4.1.68.37,1.31.7,1.91.44.81.82,1.65.94,2.58.06.46.12.91.16,1.37.11,1.05.42,2.03.91,2.96.2.38.46.72.88.89.41.17.8.02.96-.4.06-.15.08-.33.08-.5,0-.6-.02-1.2.01-1.79.02-.32.09-.64.18-.95.1-.35.36-.58.69-.7.74-.27,1.72-.05,1.95.99.06.25.07.51.08.76.01.51,0,1.02,0,1.54,0,.17,0,.34.04.51.12.55.61.8,1.08.5.28-.17.54-.43.71-.72.47-.78.78-1.63.91-2.54.07-.51.13-1.01.2-1.52.12-.9.33-1.77.78-2.58.18-.33.36-.66.51-1,.69-1.58.67-3.15-.19-4.66-.58-1.01-1.67-1.67-2.88-1.36-.71.18-1.4.42-2.09.64Z"/><path d="m339.77,137.71c-1.58.45-2.71,1.57-2.71,2.88s1.12,2.43,2.71,2.88v-5.76h0Z"/><path d="m369.99,139.22v2.75h-13.57v-2.75h13.57m1.99-2.51h-17.54c-.29,0-.53.24-.53.53v6.72c0,.29.24.53.53.53h17.54c.29,0,.53-.24.53-.53v-6.72c0-.29-.24-.53-.53-.53h0Z"/><path d="m386.64,137.71v5.76c1.58-.45,2.71-1.57,2.71-2.88s-1.12-2.43-2.71-2.88h0Z"/><path d="m346.06,132.04v17.22c-.5.65-1.37,1.08-2.36,1.08-1.55,0-2.81-1.06-2.81-2.36v-14.66c0-1.3,1.26-2.36,2.81-2.36.99,0,1.86.43,2.36,1.08Z"/><path d="m352.79,128.72v23.87c0,1.3-1.26,2.36-2.81,2.36s-2.81-1.06-2.81-2.36v-23.87c0-1.3,1.26-2.36,2.81-2.36s2.81,1.06,2.81,2.36Z"/><path d="m385.53,133.32v14.66c0,1.3-1.26,2.36-2.81,2.36-.99,0-1.86-.43-2.36-1.08v-17.21c.5-.65,1.37-1.08,2.36-1.08,1.55,0,2.81,1.06,2.81,2.36Z"/><path d="m379.24,128.72v23.87c0,1.3-1.26,2.36-2.81,2.36s-2.81-1.06-2.81-2.36v-23.87c0-1.3,1.26-2.36,2.81-2.36s2.81,1.06,2.81,2.36Z"/><path d="m472.95,127c5.07.1,9.06.32,12.9,1.49,1.74.53,3.45,1.31,5.01,2.25,1.63,1,2.16,2.56,1.65,4.55-2.46,9.49-4.86,19-7.21,28.52-.36,1.46-1.11,2.39-2.45,2.77-1.86.53-3.75,1.05-5.66,1.28-3.49.42-6.99.23-10.41-.7-.65-.18-1.29-.42-1.92-.68-1.13-.49-1.79-1.28-2.11-2.56-2.33-9.43-4.74-18.83-7.13-28.24-.67-2.66-.11-4.06,2.27-5.48,2.55-1.53,5.4-2.18,8.3-2.57,2.6-.35,5.22-.49,6.76-.63Zm-13.45,11.62c.12.57.19,1.03.31,1.48,1.86,7.39,3.75,14.76,5.55,22.16.28,1.17.86,1.74,1.95,2.01,4.47,1.12,8.93,1.12,13.4,0,1.09-.27,1.67-.84,1.96-2.01,1.46-6.03,3.03-12.04,4.55-18.06.46-1.82.88-3.64,1.35-5.6-9.76,2.91-19.33,2.9-29.06.02Zm14.44-.63c2.7-.27,5.41-.45,8.09-.83,2.4-.34,4.77-.93,6.86-2.25,1.1-.69,1.12-1.29.02-1.94-.95-.56-1.98-1.04-3.03-1.37-5.56-1.73-11.27-1.86-17-1.3-2.3.22-4.58.78-6.83,1.35-1.1.28-2.16.87-3.14,1.47-.81.5-.81,1.07-.02,1.6.8.53,1.68.98,2.58,1.3,4.03,1.43,8.22,1.8,12.48,1.98Z"/><path d="m474.01,107.13c2.02,2.72,3.89,5.35,5.24,8.32.81,1.79.93,3.57,0,5.35-1.22,2.34-3.93,3.59-6.55,3.01-2.55-.56-4.55-2.82-4.57-5.43,0-1.02.31-2.09.72-3.04,1.28-2.95,3.17-5.53,5.16-8.21Zm-.33,15.11c.76.04,1.26-.28,1.28-.86.02-.66-.36-.98-1-1.05-1.29-.15-2.03-.88-2.18-2.18-.07-.63-.38-1.03-1.04-1.01-.56.01-.92.57-.89,1.28.09,1.96,1.85,3.72,3.82,3.82Z"/><path d="m465.19,149.43c1.26-.58,2.44-.35,3.56.16.88.4,1.75.85,2.56,1.37,1.3.83,2.58.77,3.85.06,1.01-.57,1.96-1.27,2.98-1.83,1.57-.86,2.95-.64,4.12.51.53.52.75,1.07.55,1.83-.81,3.1-1.59,6.21-2.37,9.31-.15.6-.38,1-1.1,1.15-3.48.7-6.95.74-10.4-.04-.39-.09-.92-.47-1.01-.82-.99-3.75-1.9-7.53-2.82-11.3-.02-.08.03-.18.07-.4Z"/><path class="cls-2" d="m154.91,254.4s0,.08,0,.12c-.2,2.23-6.09,4.01-13.33,4.01s-13.13-1.78-13.33-4.01c0-.04,0-.08,0-.12,0-.31.11-.61.31-.89,1.32-1.85,6.65-3.24,13.02-3.24s11.7,1.38,13.02,3.24c.2.29.31.59.31.89Z"/><ellipse class="cls-2" cx="141.58" cy="293.49" rx="11.44" ry="3.54"/><path class="cls-2" d="m155.6,259.74c0,9.27-6.28,16.79-14.02,16.79s-14.02-7.52-14.02-16.79c0-1.83.24-3.58.69-5.23.09-.34.2-.68.31-1.01,1.32-1.85,6.65-3.24,13.02-3.24s11.7,1.38,13.02,3.24c.11.33.21.67.31,1.01.45,1.65.69,3.4.69,5.23Z"/><path d="m150.57,264.03c-.03.26-.08.52-.13.78-.15.48-.29.96-.43,1.44-1.33,3.47-4.6,5.91-8.4,5.91-3.39,0-6.35-1.94-7.9-4.82-.65-1.2-1.05-2.56-1.14-4.02-.01-.17-.02-.35-.02-.52,0-.02.01-.05.02-.07,1.28-.51,2.48-.31,3.63.14.9.35,1.78.75,2.61,1.21,1.32.73,2.62.68,3.92.05,1.03-.5,1.99-1.12,3.03-1.61,1.59-.76,3-.57,4.19.45.38.32.6.66.63,1.06Z"/><line class="cls-10" x1="141.58" y1="276.53" x2="141.58" y2="291.91"/><path d="m276.56,288.64h-46.08c-.05.31-.14.67-.14,1.02-.02,1.79,0,3.58-.01,5.37-.02,1.4-.57,1.96-1.96,1.98-1.95.02-3.9.03-5.86,0-1.37-.02-1.81-.49-1.85-1.89-.02-.6,0-1.19,0-1.79,0-11.33,0-22.66,0-34,0-2.51.17-2.68,2.65-2.69,1.57,0,3.14,0,4.72,0,1.99,0,2.31.33,2.31,2.39,0,2.66,0,5.31,0,7.97,0,2,0,4,0,6.06h1.96c-.08-.31-.13-.65-.24-.98-.73-2.16-.42-4.16.95-5.98,2-2.66,4.57-4.24,7.99-4.22,1.44.01,2.76.49,4,1.17.52.28.99.65,1.56,1.03,1.02-2.4,3.1-3.19,5.43-3.57,2.56-.41,5.11-.61,7.74-.38,2.97.26,5.92.6,8.77,1.45,1.9.57,3.78,1.32,5.57,2.17,1.87.89,3.48,2.19,4.75,3.96,1.18,0,2.36-.01,3.55,0,1.57.02,1.8.23,1.8,1.79.01,4.61,0,9.22,0,13.83,0,3.09,0,6.18,0,9.27,0,.38.02.76-.03,1.14-.09.76-.36,1.04-1.17,1.06-1.73.04-3.47.04-5.2,0-.82-.02-1.13-.39-1.17-1.26-.04-1.19-.02-2.39-.02-3.58,0-.42,0-.84,0-1.33Zm0-8.98v-1.64c0-2.33-.07-4.66.03-6.99.05-1.21-.38-2.04-1.22-2.83-1.94-1.85-4.32-2.85-6.8-3.63-2.47-.78-5.02-1.21-7.61-1.48-3.03-.31-6.01-.28-9.02.32-2.1.42-3.02,1.66-3.37,3.6-.6,3.29-.27,6.57.18,9.84.13.95.36,1.88.54,2.82h27.27Zm-.47,2.89c-1.71-.17-3.38-.06-5.04-.08-1.68-.02-3.36,0-5.04,0-1.73,0-3.47,0-5.2,0-1.68,0-3.36,0-5.04,0s-3.36-.03-5.04,0c-1.66.04-3.31.12-4.98.02-1.73-.11-3.47-.02-5.2-.02s-3.36-.03-5.04,0c-1.66.03-3.33-.15-5,.11v3.03h45.71c0-.71.01-1.35,0-1.99,0-.31-.07-.62-.12-1.07Zm-48.72,11.53v-34.59c-1.3-.15-2.54-.28-3.85.11,0,.6,0,1.08,0,1.56.01,10.88.03,21.76.05,32.65,0,.05.04.1.07.14.03.04.07.08.12.14h3.61Zm17.89-21.03c.05-.24.11-.44.12-.64.08-1.45.18-2.91.19-4.36,0-.39-.16-.88-.42-1.17-1-1.1-2.21-1.88-3.73-2.08-3.11-.42-5.55,1.78-6.52,3.65-.73,1.42-.35,3.28.87,4.27.23.19.58.31.87.32,2.85.02,5.7.01,8.62.01Zm-14.85,6.61c3.09.25,14.65.16,15.89-.13-.17-1.15-.35-2.3-.54-3.6-1.78,0-3.45-.03-5.12,0-1.72.04-3.47.33-5.16.15-1.68-.18-3.32-.08-5.07-.12v3.69Zm49.02-9.23c0,1.92,0,3.69,0,5.46,0,1.79,0,3.57,0,5.36s-.03,3.68,0,5.52c.03,1.76-.14,3.53.12,5.26h1.82v-21.51c-.63-.03-1.19-.06-1.93-.09Z"/><path d="m268.91,247.56c-1.33-.11-2.45-.22-3.56-.29-1.2-.08-2.06-.67-1.94-1.49.11-.82.69-1.51,2.02-1.41,2.05.16,4.11.21,6.16.33.32.02.65.07.94.19,1.09.43,1.36,1.25.71,2.19-.31.44-.72.81-1.08,1.21-1.15,1.27-2.3,2.55-3.58,3.96,1.68.49,3.21.65,4.73.89.46.07.96.2,1.34.45.58.38.77,1.05.53,1.56-.27.58-.71.98-1.4.91-.75-.08-1.5-.21-2.24-.33-1.97-.32-3.95-.59-5.91-.97-1.61-.31-1.93-1.44-.82-2.68,1.3-1.45,2.62-2.87,4.1-4.5Z"/><path d="m255.7,251.88c.74-.11,1.26-.18,1.77-.27,1.05-.19,1.82.23,1.99,1.11.16.79-.38,1.48-1.36,1.67-1.64.31-3.28.61-4.92.9-.68.12-1.27,0-1.7-.63-.4-.59-.26-1.12.08-1.66.49-.78.97-1.56,1.56-2.52-.55.12-.94.19-1.34.28-.58.14-1.08-.06-1.5-.43-.62-.54-.49-1.67.25-2.08.51-.28,1.09-.45,1.66-.61,1.19-.33,2.4-.58,3.59-.92.64-.18,1.17-.11,1.62.39.46.51.44,1.1.18,1.67-.2.44-.51.82-.77,1.24-.33.54-.66,1.09-1.12,1.87Z"/><path d="m241.05,255.71c-.77.26-1.37.52-1.99.65-.76.15-1.29-.13-1.5-.66-.3-.75-.07-1.62.65-1.94,1.77-.79,3.57-1.53,5.38-2.23.57-.22,1.18-.2,1.65.31.52.56.47,1.16.15,1.8-.26.51-.47,1.04-.83,1.85.71-.27,1.14-.45,1.57-.59.87-.27,1.81.09,2.06.76.26.7-.05,1.46-.92,1.83-1.73.74-3.5,1.42-5.26,2.08-.46.17-.99.13-1.35-.3-.39-.47-.65-.97-.36-1.63.26-.6.69-1.15.75-1.92Z"/><path class="cls-1" d="m394.04,259.51c0-5.33,0-10.66,0-15.98v-.84c-.31-.39-.61-.72-1.14-.76-.91-.06-1.81.04-2.69.22-1.3.27-2.48.83-3.6,1.6-1.25.86-2.13,1.98-2.86,3.26-.08.13-.15.26-.24.4h-.79c-2.21,0-4.42,0-6.63,0-1.26,0-2.51.08-3.76.28-.81.13-1.58.38-2.32.7-1.38.59-2.54,1.47-3.52,2.57-.09.1-.17.2-.26.3-.34.4-.64.82-.91,1.26-.09.15-.18.3-.27.46.76.2,1.48.48,2.16.83.02,0,.03.02.05.02.11-.18.23-.36.35-.54.1-.15.22-.3.33-.45.23-.29.47-.56.73-.81,1.03-1,2.29-1.66,3.74-2.02.43-.1.86-.15,1.29-.15,3.22,0,6.45,0,9.67,0,.13,0,.26,0,.39,0,.78-.03,1.43-.22,1.71-1.09.3-.91.89-1.69,1.54-2.36.84-.87,1.86-1.52,3.06-1.83.51-.13,1.03-.21,1.59-.33v14.34c-.8.11-1.55-.12-2.27-.44-1.89-.84-3.25-2.19-3.99-4.15-.23-.59-.74-.82-1.34-.84-.83-.02-1.66,0-2.5,0-1.87,0-3.74-.02-5.61,0-1.16.01-2.28.27-3.3.85-.25.14-.49.3-.72.47-.3.22-.59.46-.84.73-.29.31-.55.65-.76,1.03.56.62,1.07,1.32,1.54,2.11,0,0,0,.01.01.02.23-.62.52-1.13.89-1.54.18-.2.38-.38.59-.53.65-.47,1.47-.72,2.48-.76,2.49-.12,4.99-.03,7.54-.03.15.21.31.44.46.67.15.24.27.49.43.72.67.93,1.47,1.73,2.39,2.41,1.04.76,2.19,1.25,3.46,1.52.49.1.99.04,1.44.18.42.13.82.1,1.23.09.54-.02,1-.26,1.18-.82.08-.24.05-.51.05-.77Z"/><path class="cls-1" d="m373.47,270.05c.74-1.69,1.03-3.46,1.03-5.28,0-1.28-.15-2.55-.53-3.8-.36-1.16-.83-2.26-1.41-3.31-.16-.29-.34-.57-.53-.84-.05-.08-.11-.16-.17-.23-.3-.41-.63-.81-.95-1.2-.07-.08-.12-.15-.17-.21-.05-.06-.1-.11-.15-.17-.07-.08-.14-.15-.21-.23-.51-.53-1.04-.99-1.57-1.39h0c-.51-.29-1-.56-1.48-.83-.06-.03-.12-.07-.18-.1-.38-.22-.77-.43-1.15-.65h0c-.3-.13-.58-.24-.85-.33-.06-.02-.12-.04-.18-.06-.69-.22-1.31-.36-1.79-.44-1.77-.21-3.54-.37-5.32-.02-1.92.38-3.69,1.1-5.31,2.16-1.65,1.08-2.97,2.48-4.08,4.1-.57-.03-1.09-.12-1.58-.05-1.25.17-2.25.76-2.95,1.87-.95,1.5-.8,3.37.26,4.66.45.55,1.01,1.01,1.62,1.4,5.93,3.85,11.85,7.7,17.79,11.54,1.17.76,2.28,1.61,3.57,2.19.52.23,1.02.41,1.59.46,2.31.21,4.18-1.71,4.33-3.78.07-.89-.14-1.75-.66-2.49-.21-.3-.21-.54,0-.83.47-.65.73-1.4,1.05-2.13Zm-2.88,5.82c-.22.34-.38.74-.79.92-.56.25-1.08.25-1.61-.1-1.52-1-3.05-1.98-4.58-2.97l-16.88-10.96c-.32-.21-.63-.42-.86-.75-.64-.9.16-2.46,1.13-2.53.37-.03.71-.04,1.03.18.21.15.44.28.65.42,3.47,2.25,6.94,4.5,10.4,6.75,3.49,2.27,6.98,4.53,10.47,6.79.22.14.43.29.65.43.48.31.72,1.3.39,1.81Zm-.31-4.72l-19.65-12.75c.22-.62,1.48-2.1,2.52-2.89,1.72-1.3,3.65-2.17,5.78-2.36,1.72-.15,3.31-.04,4.76.35t0,0c.76.2,1.48.48,2.16.83.02,0,.03.02.05.02,1.09.57,2.08,1.33,2.96,2.29.04.04.07.08.11.12.56.62,1.07,1.32,1.54,2.11,0,0,0,.01.01.02.06.1.12.2.17.3,2.08,3.65,1.97,8.39-.43,11.96Z"/><path class="cls-1" d="m359.09,289.21c-1.51,2.33-3.03,4.67-4.55,7-.15.23-.27.48-.55.63-.5.27-1.06.26-1.43-.09-.37-.35-.47-.95-.23-1.42.05-.09.11-.18.17-.26,3.11-4.8,6.23-9.59,9.34-14.39.17-.26.35-.52.65-.64.44-.18.88-.15,1.23.18.3.29.49.63.34,1.1-.09.3-.22.57-.39.83-1.53,2.35-3.06,4.71-4.58,7.06Z"/><path class="cls-1" d="m349.2,282.41c-1.54,2.38-3.08,4.75-4.63,7.13-.4.62-.82.82-1.41.69-.58-.13-.95-.7-.81-1.28.07-.27.17-.54.32-.77,3.06-4.74,6.13-9.47,9.21-14.19.12-.19.29-.35.46-.5.46-.38,1.04-.4,1.46-.07.41.33.53.97.27,1.47-.08.16-.19.31-.29.46-1.53,2.35-3.06,4.71-4.58,7.06Z"/><path class="cls-1" d="m334.19,283.29c-.29.02-.6.09-.9.06-.61-.05-.94-.48-.92-1.09.01-.37.13-.69.33-1,3.06-4.7,6.11-9.41,9.16-14.12.17-.26.36-.49.64-.65.4-.22,1.08-.18,1.36.09.34.33.46.91.26,1.35-.07.16-.19.31-.28.46-3.07,4.73-6.14,9.46-9.2,14.18-.14.22-.28.43-.45.7Z"/><path class="cls-1" d="m346.23,276.05c-.9,1.39-1.81,2.79-2.71,4.18-.29.44-.65.71-1.21.63-.65-.09-.99-.49-.96-1.14.02-.35.12-.64.31-.93,1.77-2.72,3.54-5.44,5.3-8.17.17-.27.38-.48.66-.63.41-.22,1.06-.17,1.35.12.34.34.44.92.23,1.36-.08.16-.19.31-.29.46-.89,1.37-1.78,2.74-2.67,4.12h0Z"/><path class="cls-1" d="m357.65,280.91c-.48.74-.95,1.48-1.45,2.21-.12.18-.3.36-.48.47-.5.32-.93.28-1.34-.08-.39-.34-.51-.93-.29-1.4.07-.14.16-.26.25-.4.89-1.37,1.78-2.74,2.67-4.11.14-.21.28-.41.51-.56.53-.36,1.04-.4,1.46-.03.41.36.53.99.24,1.47-.35.58-.73,1.13-1.09,1.7-.15.24-.31.48-.47.72Z"/><path class="cls-1" d="m351.95,289.61c-.48.74-.95,1.48-1.45,2.21-.12.18-.3.36-.48.47-.5.32-.93.28-1.34-.08-.39-.34-.51-.93-.29-1.4.07-.14.16-.26.25-.4.89-1.37,1.78-2.74,2.67-4.11.14-.21.28-.41.51-.56.53-.36,1.04-.4,1.46-.03.41.36.53.99.24,1.47-.35.58-.73,1.13-1.09,1.7-.15.24-.31.48-.47.72Z"/><path class="cls-1" d="m339.07,286.94c-.48.74-.95,1.48-1.45,2.21-.12.18-.3.36-.48.47-.5.32-.93.28-1.34-.08-.39-.34-.51-.93-.29-1.4.07-.14.16-.26.25-.4.89-1.37,1.78-2.74,2.67-4.11.14-.21.28-.41.51-.56.53-.36,1.04-.4,1.46-.03.41.36.53.99.24,1.47-.35.58-.73,1.13-1.09,1.7-.15.24-.31.48-.47.72Z"/><path d="m483,242.46h-17.96c-3.51,0-6.36,2.85-6.36,6.36v41.85c0,3.51,2.85,6.36,6.36,6.36h17.96c3.51,0,6.36-2.85,6.36-6.36v-41.85c0-3.51-2.85-6.36-6.36-6.36Zm-11.89,1.78h5.83c.26,0,.47.21.47.47s-.21.47-.47.47h-5.83c-.26,0-.47-.21-.47-.47s.21-.47.47-.47Zm15.21,46.43c0,1.83-1.49,3.32-3.32,3.32h-17.96c-1.83,0-3.32-1.49-3.32-3.32v-41.85c0-1.83,1.49-3.32,3.32-3.32h.58c0,1.37,1.13,2.48,2.5,2.48h11.8c1.37,0,2.49-1.11,2.5-2.48h.58c1.83,0,3.32,1.49,3.32,3.32v41.85Z"/><line class="cls-3" x1="470.27" y1="290.73" x2="477.77" y2="290.73"/><circle class="cls-6" cx="474.02" cy="266.94" r="7.91"/><line class="cls-7" x1="474" y1="263.31" x2="474.01" y2="267.99"/><line class="cls-7" x1="474.08" y1="268.07" x2="476.42" y2="269.48"/><line class="cls-9" x1="474.02" y1="259.03" x2="474.02" y2="260.9"/><line class="cls-9" x1="474.02" y1="272.92" x2="474.02" y2="274.8"/><line class="cls-9" x1="466.14" y1="266.91" x2="468.01" y2="266.91"/><line class="cls-9" x1="480.03" y1="266.91" x2="481.91" y2="266.91"/></g></svg>