<svg xmlns="http://www.w3.org/2000/svg" width="82.56" height="127.59" viewBox="0 0 82.56 127.59"><defs><style>.cls-1{fill:#231f20;}.cls-2{fill:#ed1c24;}.cls-3{fill:#fff;}.cls-4{fill:#c42127;}.cls-5{fill:#c42128;}.cls-6{fill:#b71318;}.cls-7{fill:#811215;}.cls-8{fill:#f598a7;}.cls-9{fill:#511218;}.cls-10,.cls-11{fill:none;stroke:#811215;stroke-miterlimit:10;}.cls-10{stroke-width:0.2px;}.cls-11{stroke-width:0.21px;}.cls-12{fill:#f59aa9;}</style></defs><g id="Layer_2" data-name="Layer 2"><g id="Layer_1-2" data-name="Layer 1"><rect class="cls-1" x="1.52" y="11.48" width="80.75" height="114.95"/><rect width="82.56" height="127.59"/><rect class="cls-2" x="2.52" y="5.79" width="77.53" height="92.3"/><circle class="cls-3" cx="59.03" cy="28.37" r="15.05"/><path class="cls-4" d="M37,23.12a2.69,2.69,0,0,1,.24-.48c.09-.16.19-.32.29-.47.21-.3.45-.59.64-.89l.57-.89c.09-.15.2-.29.3-.44l.32-.42c.1-.14.22-.27.33-.41l.32-.4c.23-.26.46-.52.67-.79l.65-.78c.21-.27.42-.53.62-.8,0-.07.1-.13.14-.2a1,1,0,0,0,.12-.23,1.78,1.78,0,0,0,.13-.54,2.93,2.93,0,0,0,0-.29c0-.1,0-.2,0-.29a2.28,2.28,0,0,1,.18-.54,3.32,3.32,0,0,1,.32-.42l.34-.41c.24-.26.49-.51.74-.76s.54-.46.82-.68.58-.42.88-.62l.91-.58.46-.27c.16-.09.3-.19.46-.27L48,10l.24-.13a1.71,1.71,0,0,1,.23-.13l.48-.24a5.4,5.4,0,0,1,.49-.23L49.92,9c.17-.07.33-.15.5-.21a23.16,23.16,0,0,1,8.49-1.7,22.78,22.78,0,0,1,4.36.36,21.12,21.12,0,0,1,4.2,1.17,30.07,30.07,0,0,1,3.89,1.95c.31.18.61.38.93.55l.5.25.51.24a7.09,7.09,0,0,1,1,.58c.28.23.55.48.82.73a17.46,17.46,0,0,1,2.67,3.41c.18.31.38.6.56.91l.27.47.14.23.12.23c.16.32.34.63.5.95l.22.48a5.11,5.11,0,0,1,.22.48l.18.42V18.59a2.15,2.15,0,0,1-.14-.26l-.27-.48c0-.08-.09-.16-.14-.24l-.15-.23L79,16.91c-.21-.31-.43-.61-.65-.9a29.22,29.22,0,0,0-3-3.24q-.41-.36-.81-.75a6.68,6.68,0,0,1-.76-.83,10.1,10.1,0,0,0-.78-.83L72.47,10c-.15-.11-.3-.23-.46-.33A19.59,19.59,0,0,0,68,7.56a26.63,26.63,0,0,0-4-1.22H53.38A24.54,24.54,0,0,0,49.8,7.4l-.54.22-.53.23c-.18.07-.35.16-.53.24l-.52.25c-.35.17-.68.36-1,.54s-.66.4-1,.61c-.16.1-.32.22-.47.33l-.47.33-.9.71-.89.72-.89.72c-.14.13-.29.25-.44.37a5.63,5.63,0,0,1-.46.36,2.66,2.66,0,0,1-.56.28l-.64.23a2.52,2.52,0,0,0-.56.31,1.91,1.91,0,0,0-.43.42c-.23.31-.47.63-.68,1-.1.17-.2.34-.29.51a5.12,5.12,0,0,0-.27.52l-.24.54c-.07.18-.15.35-.21.54-.12.37-.25.74-.36,1.11s-.2.74-.29,1.11l-.14.56a5,5,0,0,0-.11.56c0,.19,0,.38-.05.57a5.52,5.52,0,0,0,0,.58c0,.19,0,.38,0,.56s0,.37,0,.56a5.07,5.07,0,0,1-.09.54c0,.18-.1.35-.13.53a35,35,0,0,0-.67,4.34,20.72,20.72,0,0,0,.08,4.45c0,.18.06.37.09.55l.1.55c0,.19.09.37.13.55s.09.37.14.55c.1.36.22.72.34,1.08.06.18.14.35.21.52l.24.52a4.89,4.89,0,0,0,.26.51c.09.16.18.33.28.49s.2.32.3.49l.31.47c.1.16.22.31.32.47l.33.47c.1.15.22.3.34.45l.34.45a24.11,24.11,0,0,0,3.18,3.21l.88.71.9.67c.31.21.61.44.9.67l.9.69a23.91,23.91,0,0,0,3.83,2.52l.53.25c.18.08.36.16.54.22.37.13.74.27,1.11.37l.57.16.57.15c.38.08.76.17,1.15.23a22.28,22.28,0,0,0,4.68.25l1.16-.09,1.16-.14,1.15-.18a10.74,10.74,0,0,0,1.12-.27,5,5,0,0,0,.55-.17L64.6,50l.55-.16.56-.13.56-.13.57-.11.29,0,.29-.06.58-.1c.2,0,.39-.08.58-.12l.58-.13a10.58,10.58,0,0,0,1.12-.39l.26-.13.26-.14.51-.28c.17-.1.33-.21.49-.32l.48-.33c.31-.23.6-.49.9-.74s.55-.54.82-.81l.77-.84c.25-.29.49-.58.74-.86s.47-.58.71-.87.47-.58.71-.86l.7-.86c.21-.3.44-.59.65-.9A22.75,22.75,0,0,0,80,37.93V36.38l-.1.24a20.54,20.54,0,0,1-2.08,3.75l-.64.86c-.23.28-.46.56-.7.83s-.5.52-.76.77l-.42.35-.43.34q-.43.33-.9.63l-.93.56-1,.51-1,.5-.93.51c-.16.08-.32.16-.47.25a1.71,1.71,0,0,0-.23.13l-.12.07-.11.06-.46.28c-.15.09-.29.2-.44.3l-.45.3-.45.32-.47.29a5.46,5.46,0,0,1-.48.27l-.5.24a3.86,3.86,0,0,1-.51.2l-.53.16a4.69,4.69,0,0,1-.54.11l-.55.08-.55.05-.55,0-.27,0-.28,0-1.09.08-1.1,0-1.09,0a29.13,29.13,0,0,1-4.29-.59c-.18,0-.35-.08-.53-.12l-.52-.12c-.35-.08-.7-.18-1-.27-.18,0-.35-.1-.52-.15l-.52-.15c-.34-.1-.68-.22-1-.31l-.52-.16-.52-.15-.52-.17-.53-.18c-.17,0-.34-.13-.51-.19l-.51-.2-.26-.11-.24-.12-.5-.25c-.33-.17-.64-.36-1-.55a9.52,9.52,0,0,1-.88-.65c-.28-.24-.54-.49-.8-.73L43,43.56a20,20,0,0,1-2.54-3.43c-.18-.3-.36-.6-.53-.91s-.32-.62-.46-.94l-.21-.48-.1-.24a1.73,1.73,0,0,1-.1-.24l-.37-1-.18-.49c-.06-.16-.14-.31-.19-.48l-.18-.48c-.06-.16-.14-.32-.19-.48l-.16-.49a4,4,0,0,1-.17-.49c-.1-.33-.21-.66-.3-1a22.54,22.54,0,0,1-.81-4.1,14.89,14.89,0,0,1,.22-4.21A6,6,0,0,1,37,23.12Z"/><path class="cls-4" d="M79.4,50.44c-.18.17-.37.33-.56.49a6.46,6.46,0,0,1-.59.44l-.62.41-.32.2-.15.1-.16.09-.65.37-.31.19-.16.1-.16.09-.64.36-.32.18-.33.17-1.32.64-1.36.58a35.68,35.68,0,0,1-5.61,1.65l-.18,0-.18,0-.36.07-.71.13-.72.12-.73.11c-.24,0-.48,0-.72.08l-.73.08c-.24,0-.48.05-.72.07l-.73.08c-.25,0-.49,0-.74,0l-.73.06-.18,0h-.56l-.74,0H55.92a2.32,2.32,0,0,1-.37,0l-.37,0-.74-.06c-.25,0-.5-.06-.74-.1L53,57.18c-.49-.1-1-.23-1.45-.36l-1.41-.47-1.39-.55a29.84,29.84,0,0,1-5.15-2.89L43,52.48l-.3-.21a3.15,3.15,0,0,1-.29-.22l-.58-.45-.28-.23-.14-.12-.14-.12-.54-.49-.28-.24-.13-.12-.13-.13-1-1-.51-.52c-.17-.17-.35-.33-.51-.51s-.33-.35-.5-.52-.34-.34-.5-.53l-.48-.54c-.17-.18-.34-.35-.49-.54l-.46-.56-.23-.28L35.32,45l-.11-.14A31.89,31.89,0,0,1,32,40a23.07,23.07,0,0,1-2.08-5.51A10,10,0,0,1,29.64,33a2.22,2.22,0,0,1,0-.37c0-.12,0-.25,0-.37s0-.5,0-.75,0-.24,0-.37l0-.37c0-.24.05-.49.07-.73l0-.37,0-.36.05-.72a37.54,37.54,0,0,1,1-5.64c.12-.45.26-.9.38-1.36.06-.22.14-.45.21-.67s.13-.45.18-.68c.13-.45.24-.9.34-1.36s.25-.91.37-1.37a28.5,28.5,0,0,1,2-5.39c.23-.43.45-.86.7-1.27l.4-.62c.13-.2.26-.41.4-.6l.45-.58.22-.29.11-.15.12-.13L37.25,8c.17-.18.33-.36.51-.53l.52-.51c.17-.17.34-.35.53-.51l.54-.49.15-.13H37.31l-.09.09-.53.55-.26.28L36.17,7l-.51.57c-.18.19-.33.39-.5.58l-.5.58-.13.15L34.41,9l-.25.29-.49.6q-.12.13-.24.3l-.24.3-.48.61a31.65,31.65,0,0,0-3.38,5.26c-.22.48-.44,1-.65,1.44s-.37,1-.52,1.5-.24,1-.33,1.54l-.11.78c0,.26-.08.52-.1.78a25.6,25.6,0,0,0,.13,6.25l.11.76a6.38,6.38,0,0,0,.15.76q.09.39.21.75c.08.25.14.5.24.74a18.83,18.83,0,0,1,.81,2.93A42.41,42.41,0,0,0,31,40.42a29.76,29.76,0,0,0,2.74,5.47c.13.22.28.42.43.64l.44.63c.15.21.32.41.47.61l.49.61c.16.2.33.39.5.58l.53.57a2.37,2.37,0,0,0,.27.28l.28.27c.18.18.37.35.57.53a7,7,0,0,0,.59.49l.61.49.15.12.16.11.31.22.64.45.15.11.17.1.32.22.65.42.33.2.33.19.66.39a32.59,32.59,0,0,0,5.63,2.44l1.46.45,1.47.38c.5.1,1,.23,1.48.36l1.48.36A32.58,32.58,0,0,0,60.4,59h.78c.26,0,.52,0,.78,0l.77-.06c.26,0,.52,0,.78-.08l.77-.1.38-.06.2,0,.19,0c.5-.11,1-.2,1.52-.32a28.46,28.46,0,0,0,5.81-2.12l1.37-.71c.44-.25.88-.52,1.33-.77l.32-.2.32-.21.65-.42c.42-.28.83-.6,1.23-.91l.15-.12.14-.12.29-.25.58-.5.29-.24.29-.25.47-.38V50A3.87,3.87,0,0,1,79.4,50.44Z"/><path class="cls-4" d="M77.51,61.18a38.21,38.21,0,0,1-14.44,4.23l-.47,0-.48,0-.94,0h-1.9c-.63,0-1.26-.07-1.89-.11l-.94-.13-.94-.14-1.84-.38-1.82-.5-1.78-.57-.88-.31-.45-.16c-.14,0-.29-.09-.43-.15l-.87-.33L47,62.6l-.22-.08-.21-.09-.87-.34-.43-.16-.22-.08-.21-.09L44,61.43l-.44-.15-.22-.08-.22-.08c-.29-.12-.58-.22-.88-.33l-.44-.16-.22-.08-.22-.09-.87-.36c-.29-.13-.58-.25-.86-.4l-.83-.44a8.37,8.37,0,0,1-.82-.48l-.77-.53a8.36,8.36,0,0,1-.76-.57l-.71-.61-.35-.32-.17-.15L35,56.43l-.68-.65L34,55.47l-.17-.16-.17-.17L33,54.48l-.33-.33c-.11-.11-.22-.22-.32-.34l-.62-.7c-.21-.23-.42-.46-.62-.7L30,51A42.31,42.31,0,0,1,26,44.67l-.11-.2-.1-.21-.2-.42-.4-.83c-.14-.27-.25-.56-.37-.84l-.37-.85c-.13-.28-.23-.57-.34-.86l-.33-.86c-.12-.28-.21-.57-.32-.86s-.2-.58-.31-.87-.2-.59-.3-.88-.19-.59-.29-.88l-.08-.22-.06-.23-.13-.44-.26-.9L22,34.1l-.06-.23-.11-.45-.21-.91c0-.16-.06-.31-.09-.46l-.08-.46-.15-.93c0-.15,0-.31-.06-.46l0-.47c0-.31-.06-.62-.09-.94s0-.62,0-.93,0-.63,0-.94c0-.62.08-1.25.12-1.87l.22-1.86A37.88,37.88,0,0,1,23.28,16l.34-.86.16-.44c.06-.14.11-.28.18-.42l.37-.85.19-.43.1-.21.1-.2.42-.83.21-.41.11-.21.11-.2c.32-.53.6-1.08.92-1.6L27,8.52c.15-.27.3-.54.47-.79L27.93,7c.17-.26.32-.53.5-.78L29,5.41,29,5.33H26.54c-.11.17-.22.34-.34.51l-.53.81-.14.2-.12.21-.24.42-.47.85c-.17.29-.29.59-.43.88s-.28.58-.41.88l-.11.22-.09.22-.18.45-.36.9-.09.23-.08.22-.16.46-.32.91-.15.46-.14.46-.27.93a39.63,39.63,0,0,0-1.3,7.55L20.51,25v1.9c0,.64,0,1.27,0,1.91l0,.95v.48c0,.15,0,.31,0,.47a39.47,39.47,0,0,0,.92,7.63c.08.31.17.62.25.94s.17.62.28.92.21.61.32.92.21.61.34.91l.38.89.19.45a2.14,2.14,0,0,0,.1.22l.1.22.43.87.22.43.11.22.12.21a36.32,36.32,0,0,0,4.42,6.36l1.3,1.43,1.37,1.37.35.33.36.33.71.64.18.17.19.15.37.3.76.6.2.14.19.14.4.27.79.56.2.14.19.13.4.28c.27.18.52.37.78.56s.52.37.78.56l.78.58.39.28.4.29.78.57.2.14L41,62l.41.27.83.53.21.13.21.12.43.23c.29.15.58.3.88.44l.22.11.23.09.45.18.92.35a4.11,4.11,0,0,0,.46.15l.47.15.94.28c.32.09.64.15,1,.22l1,.21c.32.06.64.1,1,.15l1,.14,1.94.2,1.94.11,1.94.06,1.92,0,1.93,0,1,0,.48,0,.48,0a40.49,40.49,0,0,0,7.57-1.37,39.62,39.62,0,0,0,9.31-4v-.89C79.19,60.26,78.36,60.74,77.51,61.18Z"/><path class="cls-4" d="M75.66,71.68c-1.48.41-3,.76-4.47,1.08L70.07,73l-.56.11-.56.11-2.25.41c-1.51.26-3,.57-4.54.8a26.53,26.53,0,0,1-4.62.33,22.43,22.43,0,0,1-2.32-.18c-.77-.09-1.53-.23-2.29-.38l-2.26-.47c-.38-.09-.76-.16-1.13-.26s-.75-.18-1.12-.29A44.79,44.79,0,0,1,44,71.74a51.52,51.52,0,0,1-8.23-4q-2-1.18-3.82-2.53t-3.61-2.82c-1.18-1-2.33-2-3.44-3.05-.56-.53-1.09-1.08-1.62-1.65s-1-1.14-1.52-1.74c-.25-.3-.48-.61-.71-.91s-.24-.31-.35-.47l-.34-.47c-.22-.31-.43-.64-.64-1-.11-.16-.21-.33-.31-.49l-.3-.5c-.77-1.34-1.46-2.72-2.09-4.12a46.25,46.25,0,0,1-2.85-8.74,43.76,43.76,0,0,1-.76-4.51c-.18-1.52-.27-3-.31-4.56s-.06-3,0-4.55.16-3,.33-4.54a47.71,47.71,0,0,1,1.88-9,40.34,40.34,0,0,1,2.59-6.32h-.79a60.23,60.23,0,0,0-2.81,6,46.88,46.88,0,0,0-2.64,9.06,41.21,41.21,0,0,0-.58,4.71,35.85,35.85,0,0,0,0,4.75,41.15,41.15,0,0,0,.64,4.7c.29,1.55.64,3.09,1.08,4.61a49.37,49.37,0,0,0,3.5,8.74q1.07,2.09,2.33,4.07l.63,1,.63,1,.65,1,.65,1a49.14,49.14,0,0,0,6,7.3,34.36,34.36,0,0,0,3.64,3.07,43.34,43.34,0,0,0,4,2.62,45,45,0,0,0,8.7,3.85c1.51.49,3,.91,4.58,1.25l1.16.25,1.16.22c.78.14,1.57.25,2.35.32s1.58.13,2.36.18l2.36.17c1.57.11,3.14.23,4.74.3A27.28,27.28,0,0,0,67,75.73c.79-.09,1.58-.24,2.36-.4s1.55-.36,2.32-.58a35.28,35.28,0,0,0,4.48-1.64c1.29-.56,2.54-1.18,3.77-1.82V70.23A40.82,40.82,0,0,1,75.66,71.68Z"/><path class="cls-4" d="M77.88,85.26a56.39,56.39,0,0,1-5.72,1.46,44.38,44.38,0,0,1-5.85.76,54.93,54.93,0,0,1-5.88,0q-2.94-.15-5.83-.5l-.73-.09-.72-.1-.72-.1-.72-.1c-1-.14-1.92-.31-2.88-.47-1.92-.32-3.84-.63-5.76-1a36.23,36.23,0,0,1-5.66-1.64l-.68-.27-.34-.14-.34-.15c-.45-.2-.9-.39-1.34-.62-.88-.43-1.74-.91-2.59-1.4s-1.69-1-2.53-1.5L29,79c-.21-.13-.42-.26-.62-.4l-.62-.4c-.2-.14-.41-.27-.6-.41a57.94,57.94,0,0,1-4.67-3.55,64.6,64.6,0,0,1-8.2-8.34q-1.86-2.25-3.51-4.67c-1.1-1.6-2.13-3.25-3.12-4.94s-1.92-3.4-2.77-5.17c-.42-.88-.82-1.78-1.2-2.69s-.73-1.82-1.05-2.75l-.09-.27V48a56.5,56.5,0,0,0,3.59,9.16,45.86,45.86,0,0,0,3.06,5.19,54.57,54.57,0,0,0,3.63,4.81,58.37,58.37,0,0,0,8.7,8.3q2.38,1.83,4.92,3.45l.63.39.64.4.65.38.64.37c.87.5,1.76,1,2.66,1.39s1.81.84,2.72,1.24l2.75,1.18c1.83.79,3.67,1.56,5.55,2.28a37.27,37.27,0,0,0,5.77,1.75c1,.22,2,.37,3,.51l.75.09.75.08.75.06.75.06a48.52,48.52,0,0,0,6,0c2-.13,4-.35,6-.64s3.93-.66,5.88-1.07,3.87-.91,5.77-1.51c.66-.2,1.33-.42,2-.65v-.62C79.33,84.8,78.61,85,77.88,85.26ZM4.76,5.79H2.58L2.52,6v6.5c.14-.5.29-1,.45-1.49C3.51,9.22,4.1,7.49,4.76,5.79Z"/><path class="cls-5" d="M30.23,92.41l-.79-.31-.39-.17-.39-.17c-.52-.23-1-.45-1.55-.71-1-.5-2-1-3-1.6s-2-1.13-2.93-1.72l-.72-.45q-.36-.21-.72-.45L19,86.37l-.7-.47c-1.87-1.28-3.68-2.64-5.41-4.09a73.72,73.72,0,0,1-9.51-9.6l-.8-1V74A66.78,66.78,0,0,0,12,82.91c1.81,1.42,3.7,2.75,5.64,4l.73.46.73.45c.24.16.49.3.74.44l.75.44c1,.57,2,1.11,3,1.61s2.08,1,3.13,1.44l.39.18.4.17.79.34c.52.24,1.05.45,1.58.68l1.66.7h2.88A42.42,42.42,0,0,1,30.23,92.41Z"/><path class="cls-6" d="M33,51.61a1.26,1.26,0,0,1-.2.61c-.14.18-.6.21-.83.2a30,30,0,0,0-6.57.18,9.86,9.86,0,0,0-5.73,2.87c-.45.5-.82,1.06-1.27,1.56a8.75,8.75,0,0,1-7.13,2.52,14.43,14.43,0,0,1-7.17-2.89c-1-2.91-.39-6.38.55-9.32s2.38-5.87,2.75-8.93a23,23,0,0,1,3.62,3.34L7.48,46l1,.82,3.19-4.36a3.65,3.65,0,0,1,.24.31c.32.4.62.82.93,1.24l-3,4.34,1.38,1,2.41-4.23h0a9.86,9.86,0,0,0,1.53,1.5l-2.3,3.95,1.4.7,2-4a7.53,7.53,0,0,0,3.8.47l-.83,3.8.86,0H21l.49-4L23,47.3l-.29,4.31,1.67,0,0-4.58c.5-.07,1-.13,1.5-.15a10.57,10.57,0,0,1,2.74.27l-.51,3.69,1.37.31.75-3.59A16.74,16.74,0,0,1,33.5,49C34,49.93,33.14,50.57,33,51.61Z"/><path class="cls-7" d="M11.67,42.49,8.48,46.85l-1-.82,3.57-4.28C11.27,42,11.47,42.24,11.67,42.49Z"/><path class="cls-7" d="M21.47,47.56l-.49,4h-.82l-.86,0,.83-3.8h0C20.57,47.7,21,47.63,21.47,47.56Z"/><path class="cls-7" d="M24.36,51.65l-1.67,0L23,47.3l1.35-.23Z"/><path class="cls-7" d="M13.67,45.11l-2.41,4.23-1.38-1,3-4.34c.27.36.54.71.82,1.05h0Z"/><path class="cls-7" d="M16.33,47.27l-2,4-1.4-.7,2.3-3.95a6.49,6.49,0,0,0,1,.63Z"/><path class="cls-7" d="M30.18,47.6l-.75,3.59-1.37-.31.51-3.69C29.1,47.3,29.64,47.44,30.18,47.6Z"/><polygon class="cls-1" points="41.98 65.39 35.3 70.34 34.2 70.34 26.96 67.58 30.89 57.53 27.72 52.37 33.66 49.83 40.37 51.72 37.94 57.53 41.98 65.39"/><polygon class="cls-1" points="32.7 44.88 33.25 51.5 35.39 51.39 33.38 44.37 32.7 44.88"/><polygon class="cls-1" points="32.56 40.95 31.14 42.16 31.8 43.29 32.01 45.22 35 44.84 34.55 42.34 32.56 40.95"/><polygon class="cls-8" points="32.56 40.95 34.55 42.34 35 44.84 32.71 44.73 32.74 43.21 31.72 41.67 32.56 40.95"/><polygon class="cls-8" points="33.6 50.55 33.26 44.73 35 44.84 33.83 44.99 35.34 50.3 40.37 51.72 37.94 57.53 41.98 65.39 35.36 70.3 29.8 65.9 32.48 58.28 32.62 56.51 32.09 56.13 29.8 52.74 33.6 50.55"/><polygon class="cls-1" points="31.18 62.59 32.91 63.26 33.68 60.99 33.06 58.16 32.55 55.34 33.22 55.86 33.22 54.1 32.51 53.7 31.74 54.49 32.9 60.49 32.55 61.9 31.89 60.53 31.18 62.59"/><polygon class="cls-1" points="39.48 62.3 37.44 63.09 36.67 60.82 37.81 55.08 37.8 55.16 37.13 55.68 37.13 53.92 37.84 53.53 38.61 54.32 37.45 60.32 37.8 61.72 37.53 59.38 39.48 62.3"/><polygon class="cls-1" points="32.31 57.89 32.91 58.71 33.25 60.97 32.63 62.09 31.33 60.25 32.31 57.89"/><polygon class="cls-1" points="37.96 62.18 37.99 60.31 37.47 59.57 37.12 60.93 37.96 62.18"/><polygon class="cls-1" points="34.36 56.27 36.45 56.18 36.45 56.75 34.36 56.87 34.36 56.27"/><polygon class="cls-1" points="33.67 45.25 33.67 45.25 34.87 56.53 34.58 56.52 33.66 45.26 35.11 56.53 35.36 56.46 33.67 45.25"/><polyline class="cls-1" points="33.67 45.25 33.67 45.25 35.63 56.39 35.89 56.39 33.67 45.25"/><polygon class="cls-1" points="34.64 56.75 35.26 70.23 34.93 56.52 34.64 56.75"/><polygon class="cls-1" points="35.11 56.53 35.26 70.23 35.41 56.36 35.11 56.53"/><polygon class="cls-1" points="35.61 56.37 35.26 70.22 35.88 56.36 35.61 56.37"/><polygon class="cls-1" points="34.85 63.59 35.96 63.59 35.3 70.28 34.83 70.44 34.85 63.59"/><polygon class="cls-1" points="35.69 63.82 36.08 56.53 33.67 45.25 36.3 56.46 35.79 63.74 35.69 63.82"/><polyline class="cls-1" points="33.48 45.16 33.64 45.1 35.68 53.39 34.23 53.44 33.48 45.16"/><polygon class="cls-1" points="27.12 54.06 25.82 53.67 23.59 52.31 21.61 53.01 20.88 55.2 20.82 55.38 20.09 57.55 20.09 57.55 21.84 63.37 24.39 61.33 21.91 55.49 22.88 53.5 25.3 54.25 27.12 54.06"/><polygon class="cls-1" points="24.54 61.86 26.38 68.48 24.87 71.17 22.8 70.81 18.6 63.92 24.54 61.86"/><polygon class="cls-8" points="17.85 63.84 19.85 62.17 23.11 62.62 20.37 64.04 17.85 63.84"/><polygon class="cls-1" points="18.43 63.73 19.83 62.53 22.53 62.77 20.29 63.69 18.43 63.73"/><polygon class="cls-8" points="20.86 63.79 23.51 70.53 22.77 62.79 20.86 63.79"/><polygon class="cls-8" points="22.41 56.3 22.9 57.69 23.33 60.8 23.52 60.69 23.65 61.01 23.3 61.31 24.14 66.7 24.87 71.17 26.38 68.48 24.54 61.86 22.74 57.09 22.55 56.63 22.41 56.3"/><polygon class="cls-8" points="23.13 61.29 23.3 61.31 24.87 71.17 23.51 70.53 22.79 63.49 23.11 64.8 23.13 61.29"/><polygon class="cls-8" points="25.82 53.67 27.03 53.82 27.26 54.13 25.3 54.25 21.56 53.13 21.61 53.01 23.59 52.31 25.82 53.67 23.1 53.26 24.64 52.96 25.82 53.67"/><polygon class="cls-1" points="22.63 62.87 23.11 62.62 23.68 66.34 23.87 67.6 23.8 67.67 22.63 62.87"/><polygon class="cls-1" points="23.11 62.62 23.03 62.15 21.8 61.52 21.52 62.4 23.11 62.62"/><polygon class="cls-8" points="24.07 62.02 25.19 59.64 22.54 56.01 22.3 56.01 22.21 56.06 22.25 56.31 23.52 60.69 23.66 60.69 24.07 62.02"/><polygon class="cls-1" points="22.8 61.18 25.05 59.69 22.54 56.01 21.85 55.93 22.8 61.18"/><polygon class="cls-8" points="23.19 59.31 23.63 59.59 23.14 60.17 23.19 59.31"/><polygon class="cls-8" points="22.14 54.25 22.58 54.11 22.58 54.11 22.9 53.52 22.59 53.41 22.14 54.25"/><polygon class="cls-1" points="22.18 66.26 22.36 65.29 23.13 66.06 22.46 66.77 22.18 66.26"/><polygon class="cls-1" points="22.77 67.28 23.13 66.91 23.57 67.48 23.03 67.95 22.65 67.69 22.77 67.28"/><polygon class="cls-1" points="23.76 69.05 23.2 68.89 23.24 68.33 23.72 68.15 23.76 69.05"/><polygon class="cls-1" points="23.94 61.11 25.63 68.38 25.84 68.07 24.04 61.01 23.94 61.11"/><polygon class="cls-1" points="23.83 61.44 25.46 68.79 25.28 69.05 23.62 61.62 23.83 61.44"/><polygon class="cls-8" points="20.6 57.27 21.36 57.33 21.02 57.73 21.12 58.64 20.92 58.62 20.43 57.58 20.6 57.27"/><polygon points="80.53 121.27 2.27 120.86 2.27 75.48 39.7 67.5 80.4 92.44 80.53 121.27"/><rect y="0.08" width="82.56" height="7.43"/><polygon class="cls-7" points="41.75 79.19 41.49 98.35 52.72 100.33 54.31 85.4 41.75 79.19"/><polygon class="cls-7" points="58.46 87.95 66.72 92.18 66.07 103.59 57.8 100.57 58.46 87.95"/><polygon class="cls-7" points="42.28 105.7 52.99 108.47 53.12 120.76 42.28 120.89 42.28 105.7"/><polygon class="cls-7" points="57.66 109.63 66.12 110.82 64.81 121.25 56.87 121.39 57.66 109.63"/><polygon class="cls-7" points="71.13 95.67 79.05 99.11 79.09 108.22 69.77 104.95 71.13 95.67"/><polygon class="cls-7" points="68.74 111.81 68.44 121.23 77.95 122.81 77.36 114.49 68.74 111.81"/><path class="cls-2" d="M19.14,5,19,4l-.19.13.07.06c.07,0,.09.06.09.12a.15.15,0,0,1-.09.16.14.14,0,0,1-.16,0,.19.19,0,0,1-.05-.25A.49.49,0,0,1,19,3.93l0-.27c-.11.13-.23.24-.32.36a.7.7,0,0,0,0,.76l0,.08h0A.67.67,0,0,1,18.36,4a1.11,1.11,0,0,1,.33-.38l.2-.17-.21-1.26h0a4.56,4.56,0,0,1,.48.5.57.57,0,0,1,0,.7L19,3.59l.06.32h.06a.49.49,0,0,1,.46.59.74.74,0,0,1-.26.45L19.26,5c0,.2.14.42-.12.56.13-.16,0-.32,0-.48l-.56.24,0,0ZM19.09,4l.14.82a.61.61,0,0,0,.17-.61A.33.33,0,0,0,19.09,4Zm-.27-1.55.15.87C19.25,3.08,19.19,2.76,18.82,2.49Z"/><path class="cls-2" d="M20.55,2l-.1,0a2.67,2.67,0,0,0-.85.16l-.25.1-.48-.13a.16.16,0,0,1-.08-.06c-.09-.1-.12-.1-.22,0L17.92,2h2.62Z"/><path class="cls-2" d="M18.68,3.51l-.89-.17V3.09l1,.18,0,.15Z"/><path class="cls-2" d="M18.71,2.92l0,.26-1-.18V2.75Z"/><path class="cls-2" d="M18.65,2.57l0,.26-.9-.16V2.42Z"/><path class="cls-2" d="M17.79,2.34V2.09l.8.13,0,.26Z"/><path class="cls-2" d="M20,2.61l-.2.2-.48-.16L19,2.32h0Z"/><path class="cls-2" d="M19.52,2.38a2,2,0,0,1,.87-.21L20,2.53Z"/><path class="cls-2" d="M19.33,2.75l.37.12-.21.19-.1,0Z"/><path class="cls-2" d="M19.72,4.67s-.07-.08-.07-.11,0,0,.06-.08.07,0,.08.07S19.75,4.61,19.72,4.67Z"/><path class="cls-2" d="M19.71,4.13c0,.06.08.08.08.11s-.05,0-.07.08-.07,0-.07-.07S19.68,4.19,19.71,4.13Z"/><path d="M42.54,26.39H40l2-6.69h3.7l2,6.69h-2.6l-.33-1.13H42.88Zm.81-2.71h1L43.83,22Z"/><path d="M56.74,26.44h-2l-1.25-2.11v2.06h-2.6V19.7h1.86L54.14,22V19.7h2.6Z"/><path d="M60.14,21.11v5.28H57.76V21.11a2.23,2.23,0,0,0,1.22.3A2.11,2.11,0,0,0,60.14,21.11Zm-.69,0A.61.61,0,0,1,59,20.9a.83.83,0,0,1,0-1.08.6.6,0,0,1,.47-.22.59.59,0,0,1,.47.22.83.83,0,0,1,0,1.08A.6.6,0,0,1,59.45,21.13Z"/><path d="M66.15,21.12v4.14a2.79,2.79,0,0,1-.61,2,2.49,2.49,0,0,1-1.87.63,4.66,4.66,0,0,1-2.74-.76v-2.4a2.51,2.51,0,0,0,1.89.94c.64,0,1-.22,1-.67a.66.66,0,0,0,0-.14,1.62,1.62,0,0,1-1,.28,1.8,1.8,0,0,1-1.37-.54,2,2,0,0,1-.5-1.46,2.34,2.34,0,0,1,.21-1,1.67,1.67,0,0,1,.51-.63,1.82,1.82,0,0,1,.64-.27,6.77,6.77,0,0,1,1.2-.07ZM63.77,22.6h-.05c-.54,0-.8.22-.8.67a.65.65,0,0,0,.14.43.51.51,0,0,0,.38.16.45.45,0,0,0,.33-.12Z"/><path d="M69.34,19.7v2.1a1.69,1.69,0,0,1,1.41-.73,1.55,1.55,0,0,1,1.24.52,2.21,2.21,0,0,1,.45,1.47v3.33H70.2V23.34c0-.45-.15-.67-.45-.67a.6.6,0,0,0-.41.21v3.51H67V19.7Z"/><path d="M77,21.11v1.48H76v1.13c0,.39.15.58.45.58a.69.69,0,0,0,.57-.38V26a2.2,2.2,0,0,1-1.36.42,2,2,0,0,1-1.44-.58,2.16,2.16,0,0,1-.59-1.6V22.59h-1l3.34-3v1.51Z"/><path d="M52.07,29.37v-.71a1.86,1.86,0,0,1,1-.28,1,1,0,0,1,.79.27,1.06,1.06,0,0,1,.26.8v1.31H53.08v-.18a.78.78,0,0,1-.51.2.52.52,0,0,1-.4-.18.66.66,0,0,1-.16-.44.65.65,0,0,1,.2-.49.69.69,0,0,1,.51-.2,1.13,1.13,0,0,1,.36.06.3.3,0,0,0-.11-.26.46.46,0,0,0-.31-.09A1.08,1.08,0,0,0,52.07,29.37Zm1,.87v-.33a.38.38,0,0,0-.17,0,.23.23,0,0,0-.16.06.21.21,0,0,0,0,.15.25.25,0,0,0,.06.16.21.21,0,0,0,.16.06A.23.23,0,0,0,53.08,30.24Z"/><path d="M56.16,28.4v.66h-.45v.51c0,.17.07.25.2.25a.29.29,0,0,0,.26-.17v.94a1,1,0,0,1-.61.19.87.87,0,0,1-.64-.26,1,1,0,0,1-.27-.72v-.74h-.43l1.49-1.33v.67Z"/><path d="M59.3,28.4v.66h-.44v.51c0,.17.06.25.2.25a.28.28,0,0,0,.25-.17v.94a1,1,0,0,1-.61.19.88.88,0,0,1-.64-.26,1,1,0,0,1-.26-.72v-.74h-.43l1.49-1.33v.67Z"/><path d="M60.66,27.77v.94a.74.74,0,0,1,.63-.33.68.68,0,0,1,.55.24.92.92,0,0,1,.2.65v1.49H61V29.39c0-.19-.06-.29-.2-.29a.26.26,0,0,0-.18.09v1.57H59.6v-3Z"/><path d="M64.55,29.86v.41a1.24,1.24,0,0,1-1.86.18,1.25,1.25,0,0,1-.33-.9,1.23,1.23,0,0,1,.3-.86,1,1,0,0,1,.78-.34,1,1,0,0,1,.45.1,1.07,1.07,0,0,1,.37.27,1.2,1.2,0,0,1,.22.42,2,2,0,0,1,.07.59H63.47a.58.58,0,0,0,.2.28.48.48,0,0,0,.31.1A.7.7,0,0,0,64.55,29.86Zm-1.14-.54h.5a.55.55,0,0,0-.08-.28.24.24,0,0,0-.18-.1.22.22,0,0,0-.17.1A.45.45,0,0,0,63.41,29.32Z"/><path d="M43.28,37V30.27H45.8l1.06,1.39,1.06-1.39h2.52V37h-2.6V33.61l-1,1.29-1-1.29V37Z"/><path d="M53.82,37A2.34,2.34,0,0,1,52,36.28a2.73,2.73,0,0,1-.72-2,2.77,2.77,0,0,1,.71-2,2.34,2.34,0,0,1,1.82-.77,2.38,2.38,0,0,1,1.83.77,3.12,3.12,0,0,1,0,3.94A2.37,2.37,0,0,1,53.82,37Zm0-3.39a.49.49,0,0,0-.38.17.7.7,0,0,0-.14.44.65.65,0,0,0,.14.43.49.49,0,0,0,.38.17.5.5,0,0,0,.38-.17.65.65,0,0,0,.14-.43.68.68,0,0,0-.14-.44A.5.5,0,0,0,53.82,33.65Z"/><path d="M56.2,31.68h2.37L59.09,33l.5-1.35H62L60,37H58.21Z"/><path d="M64.78,31.68V37H62.41V31.68a2.21,2.21,0,0,0,1.21.3A2.08,2.08,0,0,0,64.78,31.68Z"/><path d="M70.43,35v.92A2.53,2.53,0,0,1,68.19,37a2.56,2.56,0,0,1-1.94-.77,3.1,3.1,0,0,1-.06-4,2.24,2.24,0,0,1,1.75-.75,2.52,2.52,0,0,1,1,.21,2.31,2.31,0,0,1,.81.62,2.78,2.78,0,0,1,.5,1,4.56,4.56,0,0,1,.16,1.31H68a1.19,1.19,0,0,0,.43.63,1.12,1.12,0,0,0,.71.23A1.59,1.59,0,0,0,70.43,35Zm-2.57-1.21H69a1.2,1.2,0,0,0-.17-.62.46.46,0,0,0-.4-.22.46.46,0,0,0-.38.21A1,1,0,0,0,67.86,33.74Z"/><path d="M70.77,36.45,71.3,35a2,2,0,0,0,.59.59,1.31,1.31,0,0,0,.68.21.49.49,0,0,0,.33-.11.35.35,0,0,0,.13-.27.41.41,0,0,0-.11-.28,1.48,1.48,0,0,0-.56-.27,3.81,3.81,0,0,1-.75-.33,1.43,1.43,0,0,1-.48-.52,1.51,1.51,0,0,1-.2-.76,1.42,1.42,0,0,1,.6-1.22,2.75,2.75,0,0,1,1.66-.44,4.38,4.38,0,0,1,2.06.45l-.57,1.35a1.56,1.56,0,0,0-1.08-.57.42.42,0,0,0-.28.08.3.3,0,0,0-.11.23.43.43,0,0,0,.11.28,1.53,1.53,0,0,0,.59.25,4.07,4.07,0,0,1,.79.31,1.35,1.35,0,0,1,.5.53,1.71,1.71,0,0,1,.18.8,1.6,1.6,0,0,1-.57,1.29,2.34,2.34,0,0,1-1.5.47A6.14,6.14,0,0,1,70.77,36.45Z"/><path class="cls-3" d="M21.5,3h.18V4.15h.58V4.3H21.5Z"/><path class="cls-3" d="M23,4.3l0-.12h0a.39.39,0,0,1-.3.14.28.28,0,0,1-.3-.28c0-.23.21-.36.59-.35v0a.2.2,0,0,0-.22-.23.47.47,0,0,0-.26.08l0-.12a.63.63,0,0,1,.32-.09c.3,0,.37.21.37.4v.36a1.64,1.64,0,0,0,0,.23Zm0-.49c-.19,0-.41,0-.41.21a.15.15,0,0,0,.17.17A.24.24,0,0,0,23,4,.13.13,0,0,0,23,4Z"/><path class="cls-3" d="M23.4,4.12a.48.48,0,0,0,.23.07c.13,0,.19-.07.19-.15s-.05-.12-.18-.17-.26-.16-.26-.27a.3.3,0,0,1,.34-.29.57.57,0,0,1,.24.06l-.05.13a.44.44,0,0,0-.2,0c-.1,0-.16.06-.16.13s.06.11.18.16S24,3.89,24,4s-.13.29-.37.29a.57.57,0,0,1-.27-.07Z"/><path class="cls-3" d="M24.65,3A1.58,1.58,0,0,1,25,3a.57.57,0,0,1,.38.11.37.37,0,0,1,.12.28.4.4,0,0,1-.11.29.58.58,0,0,1-.41.14h-.14V4.3h-.18Zm.18.64H25c.21,0,.34-.1.34-.28s-.12-.26-.32-.26h-.16Z"/><path class="cls-3" d="M26.55,3.81a.48.48,0,0,1-.49.51.46.46,0,0,1-.46-.5.47.47,0,0,1,.48-.51A.47.47,0,0,1,26.55,3.81Zm-.77,0c0,.21.12.37.29.37s.3-.16.3-.38-.08-.36-.29-.36S25.78,3.64,25.78,3.82Z"/><path class="cls-3" d="M26.75,4.12a.52.52,0,0,0,.23.07c.13,0,.19-.07.19-.15s-.05-.12-.18-.17-.26-.16-.26-.27a.3.3,0,0,1,.34-.29.5.5,0,0,1,.24.06l0,.13a.44.44,0,0,0-.2,0c-.11,0-.17.06-.17.13s.06.11.19.16.26.15.26.29-.14.29-.37.29a.51.51,0,0,1-.27-.07Z"/><path class="cls-3" d="M27.77,3.07a.1.1,0,0,1-.11.1.1.1,0,0,1-.11-.1A.11.11,0,0,1,27.66,3,.1.1,0,0,1,27.77,3.07Zm-.2,1.23v-1h.18v1Z"/><path class="cls-3" d="M28.26,3.06v.28h.25v.13h-.25V4c0,.12,0,.18.13.18h.1v.13a.31.31,0,0,1-.15,0,.26.26,0,0,1-.2-.08A.34.34,0,0,1,28.09,4V3.47h-.16V3.34h.16V3.11Z"/><path class="cls-3" d="M29.25,4.3V4.18h0a.37.37,0,0,1-.3.14A.28.28,0,0,1,28.64,4c0-.23.21-.36.58-.35v0A.2.2,0,0,0,29,3.44a.44.44,0,0,0-.25.08l0-.12A.61.61,0,0,1,29,3.31c.3,0,.37.21.37.4v.36a1.69,1.69,0,0,0,0,.23Zm0-.49c-.2,0-.42,0-.42.21a.16.16,0,0,0,.17.17A.25.25,0,0,0,29.22,4s0,0,0-.06Z"/><path class="cls-3" d="M29.66,4.12a.52.52,0,0,0,.23.07c.13,0,.19-.07.19-.15s0-.12-.18-.17-.26-.16-.26-.27A.3.3,0,0,1,30,3.31a.5.5,0,0,1,.24.06l0,.13a.44.44,0,0,0-.2,0c-.11,0-.17.06-.17.13s.06.11.19.16.25.15.25.29-.13.29-.36.29a.51.51,0,0,1-.27-.07Z"/><path class="cls-3" d="M31.87,4.25a.94.94,0,0,1-.36.07.63.63,0,0,1-.67-.68.66.66,0,0,1,.71-.7.68.68,0,0,1,.32.06l0,.14a.73.73,0,0,0-.28-.06.5.5,0,0,0-.53.55.49.49,0,0,0,.52.54.79.79,0,0,0,.29,0Z"/><path class="cls-3" d="M32.94,3.81a.47.47,0,0,1-.48.51.46.46,0,0,1-.47-.5.47.47,0,0,1,.48-.51A.47.47,0,0,1,32.94,3.81Zm-.77,0c0,.21.12.37.29.37s.3-.16.3-.38-.08-.36-.29-.36S32.17,3.64,32.17,3.82Z"/><path class="cls-3" d="M33.16,2.89h.18V4.3h-.18Z"/><path class="cls-3" d="M33.64,2.89h.18V4.3h-.18Z"/><path class="cls-3" d="M34.22,3.85a.3.3,0,0,0,.33.33.62.62,0,0,0,.27,0l0,.13a1,1,0,0,1-.32.06.45.45,0,0,1-.48-.49.47.47,0,0,1,.45-.52.42.42,0,0,1,.41.46s0,.06,0,.08Zm.52-.13a.25.25,0,0,0-.25-.28.28.28,0,0,0-.27.28Z"/><path class="cls-3" d="M36,3.34a1.86,1.86,0,0,0,0,.26v.56a.54.54,0,0,1-.14.44.54.54,0,0,1-.35.11.67.67,0,0,1-.33-.08l0-.13a.52.52,0,0,0,.28.07.29.29,0,0,0,.32-.33V4.13h0a.34.34,0,0,1-.31.16.43.43,0,0,1-.41-.47.46.46,0,0,1,.44-.51.32.32,0,0,1,.3.17h0V3.34Zm-.19.38a.19.19,0,0,0,0-.08.24.24,0,0,0-.24-.19c-.17,0-.29.14-.29.36s.09.35.28.35A.27.27,0,0,0,35.77,4a.28.28,0,0,0,0-.09Z"/><path class="cls-3" d="M36.35,3.85a.32.32,0,0,0,.34.33.65.65,0,0,0,.27,0l0,.13a1,1,0,0,1-.33.06.45.45,0,0,1-.48-.49.47.47,0,0,1,.46-.52.41.41,0,0,1,.4.46v.08Zm.52-.13a.24.24,0,0,0-.24-.28.3.3,0,0,0-.28.28Z"/><path class="cls-3" d="M38.84,3.71c0-.19,0-.41,0-.58h0c0,.16-.11.33-.17.51l-.24.65h-.14l-.22-.64a4.75,4.75,0,0,1-.15-.52h0c0,.17,0,.39,0,.59l0,.58h-.17L37.76,3H38l.23.65c.06.16.1.31.14.45h0a3.26,3.26,0,0,1,.14-.45L38.74,3H39l.09,1.34h-.17Z"/><path class="cls-3" d="M40.14,4V4.3H40V4.14h0a.36.36,0,0,1-.32.18c-.15,0-.34-.09-.34-.42V3.34h.18v.53c0,.18.06.3.22.3A.24.24,0,0,0,39.94,4a.19.19,0,0,0,0-.08V3.34h.18Z"/><path class="cls-3" d="M40.41,4.12a.48.48,0,0,0,.23.07c.13,0,.19-.07.19-.15s0-.12-.18-.17-.26-.16-.26-.27a.3.3,0,0,1,.34-.29.53.53,0,0,1,.24.06l0,.13a.44.44,0,0,0-.2,0c-.1,0-.16.06-.16.13s.06.11.18.16S41,3.89,41,4s-.13.29-.36.29a.58.58,0,0,1-.28-.07Z"/><path class="cls-3" d="M41.43,3.07c0,.06,0,.1-.12.1a.09.09,0,0,1-.1-.1A.1.1,0,0,1,41.32,3,.11.11,0,0,1,41.43,3.07Zm-.2,1.23v-1h.18v1Z"/><path class="cls-3" d="M42.4,4.26a.73.73,0,0,1-.28.06.46.46,0,0,1-.49-.49.49.49,0,0,1,.52-.51.52.52,0,0,1,.25.05l0,.13a.48.48,0,0,0-.21,0,.33.33,0,0,0-.34.36.33.33,0,0,0,.34.36.55.55,0,0,0,.22,0Z"/><path class="cls-3" d="M43,3a2,2,0,0,1,.37,0,.79.79,0,0,1,.55.17.61.61,0,0,1,.19.48.75.75,0,0,1-.19.52.88.88,0,0,1-.6.19l-.32,0Zm.17,1.18h.18A.52.52,0,0,0,44,3.6a.48.48,0,0,0-.55-.51h-.21Z"/><path class="cls-3" d="M44.48,3.85a.32.32,0,0,0,.34.33.65.65,0,0,0,.27,0l0,.13a1,1,0,0,1-.33.06.45.45,0,0,1-.48-.49.47.47,0,0,1,.46-.52.41.41,0,0,1,.4.46v.08ZM45,3.72a.25.25,0,0,0-.24-.28.3.3,0,0,0-.28.28Z"/><path class="cls-3" d="M45.39,3.65a2.91,2.91,0,0,0,0-.31h.16V3.5h0a.37.37,0,0,1,.34-.19.44.44,0,0,1,.42.49.46.46,0,0,1-.45.52.36.36,0,0,1-.3-.15h0v.52h-.18Zm.18.26a.17.17,0,0,0,0,.07.27.27,0,0,0,.26.2c.19,0,.3-.15.3-.37s-.1-.36-.29-.36a.29.29,0,0,0-.27.22.17.17,0,0,0,0,.07Z"/><path class="cls-3" d="M47.08,4.3V4.18h0a.37.37,0,0,1-.3.14.28.28,0,0,1-.3-.28c0-.23.21-.36.59-.35v0a.2.2,0,0,0-.22-.23.47.47,0,0,0-.26.08l0-.12a.63.63,0,0,1,.32-.09.35.35,0,0,1,.38.4v.36a1.69,1.69,0,0,0,0,.23Zm0-.49c-.19,0-.41,0-.41.21a.16.16,0,0,0,.17.17A.23.23,0,0,0,47,4a.13.13,0,0,0,0-.06Z"/><path class="cls-3" d="M47.51,3.64a2.72,2.72,0,0,0,0-.3h.16v.19h0a.31.31,0,0,1,.27-.22H48v.17h-.06a.24.24,0,0,0-.23.22.25.25,0,0,0,0,.08V4.3h-.18Z"/><path class="cls-3" d="M48.43,3.06v.28h.26v.13h-.26V4c0,.12,0,.18.14.18h.1v.13a.35.35,0,0,1-.16,0,.24.24,0,0,1-.19-.08A.34.34,0,0,1,48.26,4V3.47h-.15V3.34h.15V3.11Z"/><path class="cls-3" d="M48.89,3.6a2.09,2.09,0,0,0,0-.26H49v.15h0a.33.33,0,0,1,.3-.18.28.28,0,0,1,.28.2h0a.34.34,0,0,1,.1-.13A.38.38,0,0,1,50,3.31c.13,0,.32.09.32.42V4.3h-.17V3.75c0-.18-.07-.29-.21-.29a.22.22,0,0,0-.21.16.19.19,0,0,0,0,.08v.6H49.5V3.72c0-.15-.07-.26-.21-.26a.24.24,0,0,0-.22.17.28.28,0,0,0,0,.09V4.3h-.17Z"/><path class="cls-3" d="M50.67,3.85a.3.3,0,0,0,.33.33.59.59,0,0,0,.27,0l0,.13a1,1,0,0,1-.32.06.45.45,0,0,1-.48-.49A.47.47,0,0,1,51,3.31a.42.42,0,0,1,.4.46.19.19,0,0,1,0,.08Zm.52-.13a.25.25,0,0,0-.25-.28.28.28,0,0,0-.27.28Z"/><path class="cls-3" d="M51.58,3.6a2.09,2.09,0,0,0,0-.26h.16V3.5h0a.35.35,0,0,1,.32-.19c.14,0,.35.08.35.41V4.3h-.18V3.74c0-.15-.06-.28-.22-.28a.25.25,0,0,0-.24.18.19.19,0,0,0,0,.08V4.3h-.18Z"/><path class="cls-3" d="M52.9,3.06v.28h.26v.13H52.9V4c0,.12,0,.18.14.18h.1v.13a.35.35,0,0,1-.16,0,.24.24,0,0,1-.19-.08A.34.34,0,0,1,52.73,4V3.47h-.15V3.34h.15V3.11Z"/><path class="cls-3" d="M53.79,3a1.58,1.58,0,0,1,.34,0,.57.57,0,0,1,.38.11.37.37,0,0,1,.12.28.4.4,0,0,1-.11.29.58.58,0,0,1-.41.14H54V4.3h-.18Zm.18.64h.14c.21,0,.34-.1.34-.28s-.12-.26-.32-.26H54Z"/><path class="cls-3" d="M54.83,3.64c0-.12,0-.21,0-.3H55v.19h0a.3.3,0,0,1,.27-.22h.05v.17h-.06A.24.24,0,0,0,55,3.7a.25.25,0,0,0,0,.08V4.3h-.17Z"/><path class="cls-3" d="M55.56,3.85a.32.32,0,0,0,.34.33.62.62,0,0,0,.27,0l0,.13a1,1,0,0,1-.33.06.45.45,0,0,1-.48-.49.47.47,0,0,1,.46-.52.42.42,0,0,1,.41.46s0,.06,0,.08Zm.52-.13a.24.24,0,0,0-.24-.28.28.28,0,0,0-.27.28Z"/><path class="cls-3" d="M56.45,4.12a.52.52,0,0,0,.23.07c.13,0,.19-.07.19-.15s0-.12-.18-.17-.26-.16-.26-.27a.3.3,0,0,1,.34-.29.5.5,0,0,1,.24.06l0,.13a.44.44,0,0,0-.2,0c-.11,0-.17.06-.17.13s.06.11.19.16.26.15.26.29-.14.29-.37.29a.51.51,0,0,1-.27-.07Z"/><path class="cls-3" d="M57.37,3.85a.32.32,0,0,0,.34.33.65.65,0,0,0,.27,0l0,.13a1,1,0,0,1-.33.06.45.45,0,0,1-.48-.49.47.47,0,0,1,.46-.52.41.41,0,0,1,.4.46v.08Zm.52-.13c0-.11,0-.28-.24-.28a.3.3,0,0,0-.28.28Z"/><path class="cls-3" d="M58.28,3.6V3.34h.15V3.5h0a.35.35,0,0,1,.32-.19c.13,0,.34.08.34.41V4.3h-.17V3.74c0-.15-.06-.28-.23-.28a.25.25,0,0,0-.24.18s0,0,0,.08V4.3h-.18Z"/><path class="cls-3" d="M59.61,3.06v.28h.25v.13h-.25V4c0,.12,0,.18.13.18h.1v.13a.31.31,0,0,1-.15,0,.26.26,0,0,1-.2-.08A.34.34,0,0,1,59.44,4V3.47h-.16V3.34h.16V3.11Z"/><path class="cls-3" d="M60,4.12a.48.48,0,0,0,.23.07c.13,0,.19-.07.19-.15s-.05-.12-.18-.17S60,3.71,60,3.6a.3.3,0,0,1,.34-.29.53.53,0,0,1,.24.06l-.05.13a.38.38,0,0,0-.2,0c-.1,0-.16.06-.16.13s.06.11.19.16.25.15.25.29-.13.29-.36.29A.58.58,0,0,1,60,4.25Z"/><path class="cls-3" d="M60.82,3.5a.12.12,0,1,1,.24,0,.12.12,0,0,1-.24,0Zm0,.7a.12.12,0,1,1,.24,0,.12.12,0,1,1-.24,0Z"/><path class="cls-3" d="M6.38,79.48l1.09-.22,0,3a11.44,11.44,0,0,1,0,1.33,1.23,1.23,0,0,1-.22.61.58.58,0,0,1-.42.28.66.66,0,0,1-.6-.25,1.72,1.72,0,0,1-.36-.84.48.48,0,0,0,.24,0,.3.3,0,0,0,.26-.17,1.31,1.31,0,0,0,.05-.52C6.42,81.4,6.41,80.76,6.38,79.48Z"/><path class="cls-3" d="M7.9,81.88c0-.48,0-.72,0-1.2A1.58,1.58,0,0,1,8.83,80a.65.65,0,0,1,.76.31,2.88,2.88,0,0,1,.26,1.35c0,.9,0,1.35,0,2.25l-1,.15c0-.12,0-.19,0-.31a.72.72,0,0,1-.47.41c-.15,0-.27-.06-.37-.24a1.44,1.44,0,0,1-.16-.73,1.74,1.74,0,0,1,.17-.86A.65.65,0,0,1,8.52,82a.67.67,0,0,1,.34,0,.75.75,0,0,0-.11-.42.29.29,0,0,0-.29-.11A1,1,0,0,0,7.9,81.88Zm1,1.32c0-.23,0-.34,0-.57a.27.27,0,0,0-.17,0,.2.2,0,0,0-.14.12.63.63,0,0,0-.05.26.48.48,0,0,0,.06.26.14.14,0,0,0,.15.09A.24.24,0,0,0,8.88,83.2Z"/><path class="cls-3" d="M12.13,82.2c0,.56,0,.84,0,1.4l-2.06.31c.26-1.15.39-1.73.66-2.9l-.61.11c0-.53,0-.79,0-1.31l2-.39c-.26,1.17-.39,1.74-.65,2.89Z"/><path class="cls-3" d="M14.28,81.84c0,.58,0,.86,0,1.44l-2.06.31c.27-1.18.4-1.78.67-3l-.61.11c0-.53,0-.8,0-1.33l2-.4c-.27,1.19-.4,1.79-.66,3Z"/><path class="cls-3" d="M17.7,81.33c0,.56,0,.85,0,1.41l-2,.32c0-2.21-1.21-4.29.05-5.44l2.1-.39c-.29.33-.15.72-.14,1.29l-1,.19v.69l.66-.13c0,.57,0,.85,0,1.41l-.66.12v.69Z"/><path class="cls-3" d="M19,78v.57c.17-.44.37-.68.6-.73s.4.06.52.33a3.65,3.65,0,0,1,.19,1.29v2.84l-.93.16c0-1.06,0-1.59,0-2.65,0-.37-.06-.55-.19-.53a.42.42,0,0,0-.17.18c0,1.22,0,1.83,0,3.05l-1,.16c0-1.79,0-2.68,0-4.46Z"/><path class="cls-3" d="M20.45,81.86c.08-.53.13-.8.21-1.33a1.46,1.46,0,0,0,.25.47.34.34,0,0,0,.29.14.19.19,0,0,0,.13-.12.49.49,0,0,0,.06-.25.6.6,0,0,0-.05-.24.51.51,0,0,0-.23-.19,1.09,1.09,0,0,1-.32-.23,1,1,0,0,1-.2-.42,2.12,2.12,0,0,1-.08-.64,2.28,2.28,0,0,1,.24-1.11,1,1,0,0,1,.7-.53.92.92,0,0,1,.86.22l-.23,1.23c-.16-.3-.31-.44-.46-.41a.17.17,0,0,0-.12.1.46.46,0,0,0,0,.21.52.52,0,0,0,.05.23.4.4,0,0,0,.24.18.93.93,0,0,1,.33.21.92.92,0,0,1,.21.42,2.87,2.87,0,0,1,.08.7,2.53,2.53,0,0,1-.24,1.18.87.87,0,0,1-.62.52A1.34,1.34,0,0,1,20.45,81.86Z"/><path class="cls-3" d="M24.61,79.79v.84c-.21.74-.53,1.15-.93,1.21s-.61-.12-.81-.54a4,4,0,0,1-.31-1.74,4.89,4.89,0,0,1,.28-1.78c.19-.48.43-.76.73-.82a.51.51,0,0,1,.43.09,1.2,1.2,0,0,1,.34.49,4,4,0,0,1,.21.81,9.47,9.47,0,0,1,.07,1.18l-1,.19a1.25,1.25,0,0,0,.19.54.28.28,0,0,0,.29.15C24.3,80.37,24.48,80.16,24.61,79.79Zm-1.07-.89.47-.09a1.86,1.86,0,0,0-.07-.54c0-.12-.1-.18-.17-.16s-.11.08-.16.22A2.1,2.1,0,0,0,23.54,78.9Z"/><path class="cls-3" d="M25.91,76.55v.61q.24-.7.6-.78c.28-.06.49.17.62.71a2.7,2.7,0,0,1,.34-.72.61.61,0,0,1,.37-.28c.21,0,.38.08.5.38a3.71,3.71,0,0,1,.17,1.36V81l-.93.16V78.17a1.09,1.09,0,0,0,0-.4c0-.09-.08-.13-.14-.12a.36.36,0,0,0-.18.2c0,1.33,0,2,0,3.33l-.93.16V78.43a1,1,0,0,0-.05-.39c0-.09-.07-.13-.13-.12s-.12.08-.18.2c0,1.31,0,2,0,3.28l-1,.17c0-1.93,0-2.89,0-4.8Z"/><path class="cls-3" d="M30,74.47a7.12,7.12,0,0,0-.17,1.36.74.74,0,0,1,.38-.28c.27-.06.5.13.67.57a4.69,4.69,0,0,1,.27,1.75,6,6,0,0,1-.3,1.91c-.19.54-.46.83-.8.9l-1.24.21a30.94,30.94,0,0,1,.21-6.17Zm-.19,4.41h0a.69.69,0,0,0,.19-.07.38.38,0,0,0,.12-.2,1.72,1.72,0,0,0,0-.45,1.61,1.61,0,0,0,0-.44c0-.1-.09-.14-.16-.13a.28.28,0,0,0-.16.15C29.85,78.2,29.85,78.43,29.84,78.88Z"/><path class="cls-3" d="M32.39,80.26l-1,.18a57.8,57.8,0,0,1,.17-6.38l1-.26C32.35,76.28,32.41,77.65,32.39,80.26Z"/><path class="cls-3" d="M34.77,77.82c0,.37,0,.56,0,.93-.22.82-.53,1.26-.94,1.33s-.6-.14-.81-.6a5,5,0,0,1-.29-1.92,6.07,6.07,0,0,1,.3-2c.19-.54.45-.83.74-.9a.45.45,0,0,1,.42.1,1.36,1.36,0,0,1,.34.54,4,4,0,0,1,.2.9,9.9,9.9,0,0,1,.05,1.3l-1,.2a1.65,1.65,0,0,0,.18.59.27.27,0,0,0,.29.17C34.45,78.46,34.63,78.23,34.77,77.82Zm-1.06-1,.47-.1a2.55,2.55,0,0,0-.07-.59c0-.14-.1-.2-.17-.19s-.11.1-.16.25A2.49,2.49,0,0,0,33.71,76.84Z"/><path class="cls-3" d="M6,89.07l0-1.34a1.43,1.43,0,0,1,1-.66.66.66,0,0,1,.74.41A3.51,3.51,0,0,1,7.94,89c0,1,0,1.51,0,2.52l-1,.09c0-.14,0-.2,0-.34-.14.26-.3.4-.47.42s-.27-.09-.37-.3A1.91,1.91,0,0,1,6,90.57a2.21,2.21,0,0,1,.17-.95.62.62,0,0,1,.47-.42.66.66,0,0,1,.34.06.88.88,0,0,0-.11-.47.26.26,0,0,0-.28-.14A.85.85,0,0,0,6,89.07Zm1,1.54c0-.25,0-.37,0-.62a.27.27,0,0,0-.16-.06c-.06,0-.1,0-.14.13a.76.76,0,0,0,0,.29.6.6,0,0,0,.06.29c0,.08.09.12.15.11S6.93,90.7,7,90.61Z"/><path class="cls-3" d="M9.28,86.78v.58c.16-.43.36-.67.59-.7s.4.09.52.38a3.67,3.67,0,0,1,.18,1.33v2.9l-.93.09v-2.7c0-.39-.06-.57-.18-.55s-.12.06-.18.17c0,1.24,0,1.86,0,3.11l-1,.09c0-1.82,0-2.74,0-4.56Z"/><path class="cls-3" d="M13.17,85c0,2.42,0,3.64,0,6.07L12,91.13c-.35,0-.63-.17-.83-.6a4.17,4.17,0,0,1-.29-1.67,4.79,4.79,0,0,1,.27-1.71c.18-.47.41-.73.68-.77a.42.42,0,0,1,.37.12V85.1Zm-1,4.44V88.32c-.05-.07-.1-.11-.16-.1s-.11.07-.15.19a1.37,1.37,0,0,0-.06.44,1.08,1.08,0,0,0,.07.43.21.21,0,0,0,.22.12Z"/><path class="cls-3" d="M15.79,90.85q-.51.06-.87-.84a5.94,5.94,0,0,1-.35-2.22,6.88,6.88,0,0,1,.38-2.3c.25-.65.55-1,.9-1.06s.64.2.88.79a6.06,6.06,0,0,1,.34,2.25,6.79,6.79,0,0,1-.39,2.35C16.43,90.48,16.14,90.82,15.79,90.85Zm0-4q-.11,0-.18.21a1.62,1.62,0,0,0-.07.48,1.4,1.4,0,0,0,.06.45c0,.12.11.18.17.17s.13-.08.18-.21a1.35,1.35,0,0,0,.07-.48A1.51,1.51,0,0,0,16,87C16,86.86,15.9,86.8,15.83,86.81Z"/><path class="cls-3" d="M18.39,86.56c.13-.78.32-1.19.56-1.23s.24.08.32.3a2.15,2.15,0,0,1,.12.86,2.66,2.66,0,0,1-.14.92c-.09.24-.2.37-.33.38s-.29-.11-.39-.41a3.37,3.37,0,0,0-.17,1.24c0,.75,0,1.12,0,1.87l-1,.1c0-2,0-3,.06-5l1-.14C18.4,85.9,18.39,86.12,18.39,86.56Z"/><path class="cls-3" d="M21.27,85.23c0,.91,0,1.36,0,2.27-.19-.23-.37-.33-.53-.31a.3.3,0,0,0-.23.15.7.7,0,0,0-.08.35c0,.32.11.48.33.45a.75.75,0,0,0,.5-.33c0,.89,0,1.34,0,2.24a1.08,1.08,0,0,1-.61.29c-.39,0-.68-.18-.88-.65a4.5,4.5,0,0,1-.29-1.83,5.57,5.57,0,0,1,.33-1.94c.21-.54.49-.84.82-.89A1,1,0,0,1,21.27,85.23Z"/><path class="cls-3" d="M22.63,83.43c0,.83,0,1.25,0,2.08.16-.51.36-.78.6-.82s.39.12.51.45a4.29,4.29,0,0,1,.15,1.44c0,1.34,0,2-.07,3.34l-.92.1c0-1.21,0-1.82.06-3,0-.44-.05-.66-.18-.64s-.11.08-.17.23c0,1.39,0,2.09-.07,3.48l-1,.1c.05-2.63.07-3.94.12-6.57Z"/><path class="cls-3" d="M26.16,87.61c0,.38,0,.57,0,1-.23.82-.55,1.25-.95,1.29s-.6-.19-.79-.68a5.51,5.51,0,0,1-.26-2,6.11,6.11,0,0,1,.33-2c.19-.53.44-.82.74-.87a.47.47,0,0,1,.42.15,1.36,1.36,0,0,1,.32.58,4.34,4.34,0,0,1,.19.93,11.1,11.1,0,0,1,0,1.34l-1,.13a1.73,1.73,0,0,0,.16.62c.09.14.18.21.29.2S26,88,26.16,87.61Zm-1-1.09.46-.06a2.1,2.1,0,0,0,0-.62c0-.14-.1-.21-.16-.2s-.12.09-.17.24A2.44,2.44,0,0,0,25.12,86.52Z"/><path class="cls-3" d="M26.26,89.13l.25-1.54a2,2,0,0,0,.23.57c.1.14.19.2.28.19s.1,0,.14-.13a.62.62,0,0,0,.06-.29.79.79,0,0,0,0-.28A.5.5,0,0,0,27,87.4a1.07,1.07,0,0,1-.3-.3,1.4,1.4,0,0,1-.19-.51,3,3,0,0,1-.06-.76,2.88,2.88,0,0,1,.27-1.29,1,1,0,0,1,.71-.56.89.89,0,0,1,.85.33c-.11.58-.17.87-.28,1.44-.14-.38-.29-.55-.43-.53s-.09,0-.12.11a.52.52,0,0,0-.05.23.85.85,0,0,0,0,.29.49.49,0,0,0,.23.23.94.94,0,0,1,.32.27,1.29,1.29,0,0,1,.19.52,3.56,3.56,0,0,1,.06.83,3.41,3.41,0,0,1-.28,1.37c-.16.34-.37.53-.63.55A1.24,1.24,0,0,1,26.26,89.13Z"/><path class="cls-3" d="M30.11,83.67l-.05,1.56-.41.06c0,.48,0,.72,0,1.19s.05.6.17.59.18-.16.25-.43c0,.88,0,1.32-.06,2.21-.17.31-.36.48-.58.51s-.43-.16-.58-.55a4.4,4.4,0,0,1-.2-1.65l.05-1.72-.4,0c.59-1.32.88-2,1.48-3.35l0,1.59Z"/><path class="cls-3" d="M31.35,84.7c.15-.87.35-1.33.59-1.37s.24.09.32.33a3,3,0,0,1,.1,1,3.9,3.9,0,0,1-.16,1c-.1.27-.21.41-.35.43s-.28-.13-.38-.46A4.65,4.65,0,0,0,31.28,87c0,.84,0,1.26-.06,2.11l-1,.11c.06-2.24.1-3.36.16-5.6l1-.16C31.38,84,31.37,84.21,31.35,84.7Z"/><path class="cls-3" d="M32.43,85.63c0-.69,0-1,.06-1.72a1.48,1.48,0,0,1,1-.82c.34-.06.58.12.73.52a5.9,5.9,0,0,1,.17,2c0,1.28-.07,1.92-.11,3.2l-1,.11v-.43c-.16.34-.32.52-.49.54s-.27-.12-.35-.39a3.16,3.16,0,0,1-.12-1,3.68,3.68,0,0,1,.22-1.21c.14-.33.3-.51.49-.53a.47.47,0,0,1,.34.08,1.45,1.45,0,0,0-.09-.61.25.25,0,0,0-.28-.18Q32.73,85.14,32.43,85.63Zm.88,2c0-.32,0-.48,0-.81a.25.25,0,0,0-.16-.07c-.06,0-.11.06-.15.16a1.22,1.22,0,0,0-.07.37,1,1,0,0,0,0,.38c0,.1.08.15.14.14S33.26,87.72,33.31,87.61Z"/><path class="cls-2" d="M7.76,93.2l-.22.52A.8.8,0,0,0,7,93.54c-.12,0-.17,0-.17.11s0,0,.06,0a1.66,1.66,0,0,0,.3.07,3.08,3.08,0,0,1,.41.1.51.51,0,0,1,.22.13.32.32,0,0,1,.08.21.41.41,0,0,1-.25.41,1.87,1.87,0,0,1-.82.19,4.43,4.43,0,0,1-1.06,0c.09-.22.14-.32.22-.54a.71.71,0,0,0,.28.16.72.72,0,0,0,.31.05.21.21,0,0,0,.12,0s0,0,0-.07,0,0,0-.06a1.16,1.16,0,0,0-.26-.07l-.31-.08A.45.45,0,0,1,5.87,94a.24.24,0,0,1-.1-.21A.42.42,0,0,1,6,93.38a2.08,2.08,0,0,1,.82-.2A3.5,3.5,0,0,1,7.76,93.2Z"/><path class="cls-2" d="M9,93.35v.1a1.1,1.1,0,0,1,.44-.15.88.88,0,0,1,.57.14.56.56,0,0,1,.26.44.65.65,0,0,1-.22.52,1,1,0,0,1-.61.23,1.2,1.2,0,0,1-.38,0c0,.16,0,.24,0,.4l-.93.06c0-.65-.05-1-.09-1.63Zm0,.57a1.77,1.77,0,0,1,0,.23.33.33,0,0,0,.17,0,.21.21,0,0,0,.13,0,.13.13,0,0,0,0-.12.17.17,0,0,0,0-.12.17.17,0,0,0-.14,0A.24.24,0,0,0,9,93.92Z"/><path class="cls-2" d="M11.46,93.44a.56.56,0,0,1,.49-.35.54.54,0,0,1,.32.06.28.28,0,0,1,.13.23.3.3,0,0,1-.1.25.5.5,0,0,1-.31.11.58.58,0,0,1-.38-.09.38.38,0,0,0-.13.33c0,.2,0,.3,0,.5l-.93.06c0-.52,0-.79-.07-1.32l.93-.08C11.45,93.26,11.45,93.32,11.46,93.44Z"/><path class="cls-2" d="M13.44,93c0,.55,0,.83.07,1.38l-.93.07c0-.55,0-.82-.07-1.37a1.36,1.36,0,0,0,.48,0A1.34,1.34,0,0,0,13.44,93Zm-.27,0A.32.32,0,0,1,13,93a.17.17,0,0,1,0-.28.29.29,0,0,1,.18-.07.25.25,0,0,1,.19,0,.17.17,0,0,1,0,.28A.37.37,0,0,1,13.17,93Z"/><path class="cls-2" d="M14.71,92.86a1,1,0,0,1,0,.17.92.92,0,0,1,.55-.24.75.75,0,0,1,.5.1.48.48,0,0,1,.19.4c0,.36,0,.54,0,.9l-.88.06c0-.34,0-.5,0-.83,0-.12-.06-.17-.18-.17a.52.52,0,0,0-.16.06c0,.39,0,.58,0,1l-.93.06c0-.56,0-.84-.06-1.39Z"/><path class="cls-2" d="M18.26,92.54c0,.47,0,.7.06,1.17a.64.64,0,0,1-.22.57,1.2,1.2,0,0,1-.72.23,2.53,2.53,0,0,1-1.08-.14c0-.27,0-.4,0-.66a1.18,1.18,0,0,0,.75.2c.25,0,.37-.09.37-.21s0,0,0,0a.85.85,0,0,1-.38.11.9.9,0,0,1-.54-.11.47.47,0,0,1-.22-.39.48.48,0,0,1,.07-.29.57.57,0,0,1,.19-.19,1.06,1.06,0,0,1,.25-.09,2.49,2.49,0,0,1,.47-.07Zm-.91.5h0q-.31,0-.3.21a.11.11,0,0,0,.06.11.24.24,0,0,0,.15,0,.29.29,0,0,0,.13-.05Z"/><path class="cls-2" d="M21.8,92l-.39.73a1.46,1.46,0,0,0-.42,0c-.21,0-.32.07-.31.17a.11.11,0,0,0,.09.11A.67.67,0,0,0,21,93a1.12,1.12,0,0,0,.39-.1l.45.71a1.43,1.43,0,0,1-.43.18,2.13,2.13,0,0,1-.48.09,1.42,1.42,0,0,1-.95-.21.85.85,0,0,1-.37-.68.9.9,0,0,1,.32-.75,1.54,1.54,0,0,1,.91-.38,1.68,1.68,0,0,1,.5,0A1.23,1.23,0,0,1,21.8,92Z"/><path class="cls-2" d="M23,93.72a1.05,1.05,0,0,1-.72-.18A.69.69,0,0,1,22,93a.76.76,0,0,1,.25-.62,1.07,1.07,0,0,1,.7-.29,1,1,0,0,1,.73.16.71.71,0,0,1,.3.58.78.78,0,0,1-.25.62A1.12,1.12,0,0,1,23,93.72Zm0-1a.26.26,0,0,0-.15.07.21.21,0,0,0-.05.13.15.15,0,0,0,.06.13.24.24,0,0,0,.15,0,.34.34,0,0,0,.15-.06.19.19,0,0,0,.05-.14.15.15,0,0,0-.06-.13A.24.24,0,0,0,23,92.69Z"/><path class="cls-2" d="M25.17,91.89a1.34,1.34,0,0,0,0,.2.83.83,0,0,1,.55-.27.63.63,0,0,1,.49.12.58.58,0,0,1,.19.46c0,.42,0,.62,0,1l-.87.07c0-.39,0-.58,0-1,0-.13-.07-.2-.18-.19a.41.41,0,0,0-.17.07l0,1.11-.93.07c0-.65,0-1-.07-1.62Z"/><path class="cls-2" d="M28.4,91.64c0,.3,0,.45,0,.75a1.25,1.25,0,0,0-.52-.08.43.43,0,0,0-.2.06.12.12,0,0,0-.07.12c0,.11.11.15.33.13a.92.92,0,0,0,.46-.13c0,.3,0,.45,0,.75a2.59,2.59,0,0,1-.58.12,1.29,1.29,0,0,1-.85-.18.73.73,0,0,1-.32-.59.87.87,0,0,1,.25-.66,1.3,1.3,0,0,1,.76-.33A2.24,2.24,0,0,1,28.4,91.64Z"/><path class="cls-2" d="M30.64,92.45v.3a1.08,1.08,0,0,1-.86.46A1.06,1.06,0,0,1,29,93a.79.79,0,0,1-.32-.63.87.87,0,0,1,.24-.66,1,1,0,0,1,.68-.31.89.89,0,0,1,.4,0,.76.76,0,0,1,.32.17.63.63,0,0,1,.21.3,1.06,1.06,0,0,1,.08.43l-.94.08a.37.37,0,0,0,.17.2.54.54,0,0,0,.28.05A.76.76,0,0,0,30.64,92.45Zm-1-.32.43,0A.27.27,0,0,0,30,91.9a.17.17,0,0,0-.16-.06.19.19,0,0,0-.15.08A.28.28,0,0,0,29.62,92.13Z"/><path class="cls-2" d="M31.83,91.63a.59.59,0,0,1,.5-.46.34.34,0,0,1,.31.09.38.38,0,0,1,.13.3.47.47,0,0,1-.1.33.44.44,0,0,1-.31.15.47.47,0,0,1-.38-.13.59.59,0,0,0-.13.44c0,.27,0,.4,0,.67L31,93.1c0-.71,0-1.07-.07-1.77l.93-.1C31.82,91.39,31.82,91.47,31.83,91.63Z"/><path class="cls-2" d="M34.47,91c0,.21,0,.31,0,.52l-.39,0c0,.16,0,.23,0,.39s.07.2.19.19a.3.3,0,0,0,.22-.16c0,.3,0,.44,0,.74a1,1,0,0,1-.53.19.8.8,0,0,1-.57-.16.66.66,0,0,1-.25-.53c0-.23,0-.34,0-.57l-.38,0,1.27-1.16c0,.21,0,.31,0,.52Z"/><path class="cls-9" d="M52.74,69.21l.71.44a.86.86,0,0,1,.43.61,1,1,0,0,1-.15.71,1.17,1.17,0,0,1-.35.35.84.84,0,0,1-.46.13,1.14,1.14,0,0,1-.51-.17l-.69-.43Zm.24,1-.24.39h0a.45.45,0,0,0,.19.06.22.22,0,0,0,.15-.12.2.2,0,0,0-.08-.31Z"/><path class="cls-9" d="M54.59,71.24q.3-.22.51-.09a.3.3,0,0,1,.13.21.34.34,0,0,1-.06.27.42.42,0,0,1-.22.18.28.28,0,0,1-.25,0,.38.38,0,0,1-.16-.27c-.09,0-.18.11-.28.26l-.3.48-.58-.36.81-1.29.58.36Z"/><path class="cls-9" d="M54.61,72.21a.4.4,0,0,1,.25-.19.34.34,0,0,1,.28,0,.34.34,0,0,1,.15.24.48.48,0,0,1-.07.3.45.45,0,0,1-.24.19.34.34,0,0,1-.28,0,.32.32,0,0,1-.15-.24A.39.39,0,0,1,54.61,72.21Z"/><path class="cls-9" d="M55.77,73.38l1-1.63.63.39-.76,1.22.55.35-.26.41Z"/><path class="cls-9" d="M58.54,74.43l-.14.23a.81.81,0,0,1-1.08-.54.91.91,0,0,1,.59-1,.65.65,0,0,1,.54.09.66.66,0,0,1,.32.48.83.83,0,0,1,0,.31,1.28,1.28,0,0,1-.16.34L58,74a.33.33,0,0,0,0,.22.31.31,0,0,0,.13.17A.44.44,0,0,0,58.54,74.43Zm-.44-.68.28.17a.49.49,0,0,0,0-.18.19.19,0,0,0-.07-.12.13.13,0,0,0-.12,0A.29.29,0,0,0,58.1,73.75Z"/><path class="cls-9" d="M58.4,74.85l.35-.28a.44.44,0,0,0,.06.23.35.35,0,0,0,.13.16.12.12,0,0,0,.1,0,.1.1,0,0,0,.07,0,.15.15,0,0,0,0-.09.53.53,0,0,0-.1-.15.92.92,0,0,1-.13-.19.45.45,0,0,1,0-.2.44.44,0,0,1,.07-.22.41.41,0,0,1,.33-.21.78.78,0,0,1,.47.15,1.3,1.3,0,0,1,.44.43l-.35.24a.49.49,0,0,0-.17-.31.15.15,0,0,0-.09,0s0,0-.06,0a.11.11,0,0,0,0,.08s0,.08.1.15a1.72,1.72,0,0,1,.15.2.46.46,0,0,1,0,.21.49.49,0,0,1-.08.22.46.46,0,0,1-.34.23.66.66,0,0,1-.43-.12A1.58,1.58,0,0,1,58.4,74.85Z"/><path class="cls-9" d="M60.18,76.14l-.58-.36,1-1.64.58.37Z"/><path class="cls-9" d="M61.78,75.35,61,76.64l-.58-.36L61.21,75a.56.56,0,0,0,.25.26A.6.6,0,0,0,61.78,75.35Zm-.16-.1a.18.18,0,0,1-.09-.13.24.24,0,0,1,0-.16.22.22,0,0,1,.13-.1.16.16,0,0,1,.15,0,.2.2,0,0,1,.08.12.26.26,0,0,1,0,.17.31.31,0,0,1-.13.1A.16.16,0,0,1,61.62,75.25Z"/><path class="cls-9" d="M62.66,77l-.14.23a.81.81,0,0,1-1.08-.54.91.91,0,0,1,.59-1,.65.65,0,0,1,.54.09.7.7,0,0,1,.22.2.73.73,0,0,1,.1.28.83.83,0,0,1,0,.31,1.28,1.28,0,0,1-.16.34l-.59-.37a.33.33,0,0,0,0,.22.31.31,0,0,0,.13.17A.44.44,0,0,0,62.66,77Zm-.44-.69.28.18a.49.49,0,0,0,0-.18.15.15,0,0,0-.07-.12.13.13,0,0,0-.12,0A.31.31,0,0,0,62.22,76.32Z"/><path class="cls-9" d="M63.2,78l1-1.63.63.4L64.09,78l.56.35-.26.41Z"/><path class="cls-9" d="M65,78.1l.24-.39a1.27,1.27,0,0,1,.65.2.66.66,0,0,1,.35.42.76.76,0,0,1-.13.53l-.45.71-.58-.36.06-.1a.47.47,0,0,1-.35-.07.31.31,0,0,1-.15-.23.38.38,0,0,1,.06-.29.45.45,0,0,1,.28-.21.47.47,0,0,1,.34.07.93.93,0,0,1,.18.16.2.2,0,0,0,0-.18.35.35,0,0,0-.14-.16A.81.81,0,0,0,65,78.1Zm.26.82.11-.18-.08-.08a.13.13,0,0,0-.1,0,.14.14,0,0,0-.11.17.13.13,0,0,0,.07.09A.14.14,0,0,0,65.26,78.92Z"/><path class="cls-9" d="M67.56,78.49l.9.56a.76.76,0,0,1,.34.38.49.49,0,0,1-.07.42.47.47,0,0,1-.41.24.51.51,0,0,1,.07.26.43.43,0,0,1-.08.25.48.48,0,0,1-.33.25.61.61,0,0,1-.44-.1l-1-.63Zm.06,1.32-.22.35h0a.24.24,0,0,0,.18.06.23.23,0,0,0,.07-.4Zm.37-.6-.2.32h0a.27.27,0,0,0,.17.06.21.21,0,0,0,.12-.1.17.17,0,0,0-.07-.26Z"/><path class="cls-9" d="M68.68,80.4l.24-.38a1.2,1.2,0,0,1,.65.19.69.69,0,0,1,.35.42.72.72,0,0,1-.14.53l-.44.71-.58-.36.06-.1a.47.47,0,0,1-.35-.07.32.32,0,0,1-.16-.23.39.39,0,0,1,.07-.29.46.46,0,0,1,.27-.21.5.5,0,0,1,.35.07l.18.16a.23.23,0,0,0,0-.18.32.32,0,0,0-.13-.16A.81.81,0,0,0,68.68,80.4Zm.25.82.12-.18L69,81a.22.22,0,0,0-.11,0,.15.15,0,0,0-.1.17.15.15,0,0,0,.06.09A.12.12,0,0,0,68.93,81.22Z"/><path class="cls-9" d="M70.76,81.36c.19-.15.36-.18.5-.09a.28.28,0,0,1,.14.21.45.45,0,0,1-.06.27.47.47,0,0,1-.22.18.28.28,0,0,1-.25,0,.34.34,0,0,1-.16-.26.51.51,0,0,0-.28.26l-.3.48L69.55,82l.81-1.28.57.36Z"/><path class="cls-9" d="M72,82.14c.2-.15.36-.18.5-.09a.25.25,0,0,1,.14.2.45.45,0,0,1-.06.27.4.4,0,0,1-.22.19.32.32,0,0,1-.25,0,.36.36,0,0,1-.16-.26.49.49,0,0,0-.28.25l-.3.48-.58-.36.81-1.29.58.37Z"/><path class="cls-9" d="M73.48,83.78l-.14.23a.81.81,0,0,1-1.08-.54.91.91,0,0,1,.59-1,.66.66,0,0,1,.54.09.7.7,0,0,1,.22.2.94.94,0,0,1,.1.28.83.83,0,0,1,0,.31,1.7,1.7,0,0,1-.16.34l-.6-.37a.4.4,0,0,0,0,.22.39.39,0,0,0,.14.17A.44.44,0,0,0,73.48,83.78ZM73,83.1l.27.17a.38.38,0,0,0,.06-.18A.19.19,0,0,0,73.3,83a.13.13,0,0,0-.12,0A.29.29,0,0,0,73,83.1Z"/><path class="cls-9" d="M73.25,84.75v0a.42.42,0,0,0,.31-.18.39.39,0,0,1,0-.5.45.45,0,0,1,.26-.21.37.37,0,0,1,.29,0,.32.32,0,0,1,.15.25.45.45,0,0,1-.08.33.7.7,0,0,1-.4.31A.72.72,0,0,1,73.25,84.75Z"/><path class="cls-9" d="M51.25,71.68l.33.2-.32.51a1.55,1.55,0,0,1-.15.22.21.21,0,0,1-.13,0,.29.29,0,0,1-.16,0,.32.32,0,0,1-.14-.17.28.28,0,0,1,0-.22l.06,0,.1,0a.19.19,0,0,0,.07-.08Z"/><path class="cls-9" d="M51.41,72.42l.13-.21a.62.62,0,0,1,.34.11.3.3,0,0,1,.18.21.34.34,0,0,1-.07.28l-.23.38-.3-.19,0,0a.34.34,0,0,1-.18,0,.18.18,0,0,1-.09-.12.24.24,0,0,1,0-.16.21.21,0,0,1,.14-.1.23.23,0,0,1,.18,0l.1.08a.1.1,0,0,0,0-.09.13.13,0,0,0-.07-.08A.35.35,0,0,0,51.41,72.42Zm.14.43.06-.1,0,0h-.06s0,0,0,0a.07.07,0,0,0,0,.06s0,0,0,0Z"/><path class="cls-9" d="M52.6,73.4l-.14.22-.64-.39.51-.33-.19-.12.13-.21.61.38-.49.32Z"/><path class="cls-9" d="M53.26,73.81l-.14.22-.64-.39.5-.33-.18-.11.13-.22.61.38-.49.32Z"/><path class="cls-9" d="M54.3,74.48l-.14.21-.62-.39.54-.85.62.39-.13.21-.3-.18-.06.1.2.13-.13.22-.21-.13-.06.1Z"/><path class="cls-9" d="M55,74.26l0,.08a.25.25,0,0,1,.24,0,.21.21,0,0,1,.12.16.36.36,0,0,1-.07.23l-.26.42L54.66,75l.25-.39c0-.06,0-.1,0-.12a.06.06,0,0,0-.06,0l-.29.45-.3-.19.42-.67Z"/><path class="cls-9" d="M55.05,75.15l.18-.15a.28.28,0,0,0,0,.13.27.27,0,0,0,.07.08h.05l0,0a.09.09,0,0,0,0,0l0-.08a.3.3,0,0,1-.07-.1.2.2,0,0,1,0-.11.23.23,0,0,1,0-.11.27.27,0,0,1,.18-.11.43.43,0,0,1,.24.08.7.7,0,0,1,.23.22l-.18.13a.27.27,0,0,0-.09-.16h0s0,0,0,0,0,0,0,0a.15.15,0,0,0,.05.08.76.76,0,0,1,.08.11.3.3,0,0,1,0,.1.28.28,0,0,1,0,.12.23.23,0,0,1-.18.12.35.35,0,0,1-.23-.06A.91.91,0,0,1,55.05,75.15Z"/><path class="cls-9" d="M56.44,75.76l-.07.12a.42.42,0,0,1-.38,0,.41.41,0,0,1-.19-.26.4.4,0,0,1,.07-.31.42.42,0,0,1,.24-.2.35.35,0,0,1,.28,0,.32.32,0,0,1,.12.11.34.34,0,0,1,.05.14.43.43,0,0,1,0,.16.71.71,0,0,1-.08.18l-.31-.19a.2.2,0,0,0,0,.11.16.16,0,0,0,.07.09A.26.26,0,0,0,56.44,75.76Zm-.23-.36.14.09a.23.23,0,0,0,0-.09.09.09,0,0,0,0-.07.08.08,0,0,0-.07,0A.15.15,0,0,0,56.21,75.4Z"/><path class="cls-9" d="M57.1,75.59l-.05.08a.24.24,0,0,1,.23,0,.22.22,0,0,1,.12.23.47.47,0,0,1,.16,0,.22.22,0,0,1,.13,0,.22.22,0,0,1,.11.16.35.35,0,0,1-.06.23l-.27.42-.28-.18.25-.4a.25.25,0,0,0,0-.07s0,0,0,0a.08.08,0,0,0-.07,0l-.29.45-.28-.18.25-.4a.1.1,0,0,0,0-.07.05.05,0,0,0,0,0,.08.08,0,0,0-.07,0l-.28.45-.31-.19.43-.67Z"/><path class="cls-9" d="M58.42,76.16l-.13.2a.29.29,0,0,1,.13,0,.28.28,0,0,1,.15.22.42.42,0,0,1-.07.3.45.45,0,0,1-.24.19.34.34,0,0,1-.3-.06l-.38-.23.53-.86Zm-.38.61h0l.06,0h0l.05,0s0-.05,0-.07a.07.07,0,0,0,0-.06h-.06Z"/><path class="cls-9" d="M58.67,77.51l-.31-.19.54-.86.3.19Z"/><path class="cls-9" d="M59.55,77.7l-.07.12a.37.37,0,0,1-.38,0,.36.36,0,0,1-.19-.25.42.42,0,0,1,.07-.32.41.41,0,0,1,.24-.19.31.31,0,0,1,.28,0,.29.29,0,0,1,.11.11.35.35,0,0,1,.06.14.49.49,0,0,1,0,.17,1.5,1.5,0,0,1-.09.18l-.31-.2a.17.17,0,0,0,0,.12.18.18,0,0,0,.07.08A.2.2,0,0,0,59.55,77.7Zm-.23-.36.14.09a.16.16,0,0,0,0-.09.05.05,0,0,0,0-.06.06.06,0,0,0-.06,0A.13.13,0,0,0,59.32,77.34Z"/><path class="cls-9" d="M60.74,78.12l.19.12a1.38,1.38,0,0,1-.29.12l.06.42-.34-.21,0-.14h-.17a.44.44,0,0,1-.16-.06.29.29,0,0,1-.12-.15.31.31,0,0,1,0-.19.33.33,0,0,1,.34-.13.34.34,0,0,1,0-.23.31.31,0,0,1,.19-.13.32.32,0,0,1,.23,0,.33.33,0,0,1,.13.16.31.31,0,0,1,0,.19.32.32,0,0,1-.23.13l0,.13A.56.56,0,0,0,60.74,78.12Zm-.43.14,0-.14h-.06s0,0,0,0,0,0,0,0,0,0,0,0S60.27,78.27,60.31,78.26Zm.25-.32a.1.1,0,0,0,.12,0,.07.07,0,0,0,0-.05s0,0,0,0h0l0,0A.14.14,0,0,0,60.56,77.94Z"/><path class="cls-9" d="M61.46,79.28a.41.41,0,0,1-.19-.3.55.55,0,0,1,.08-.39.56.56,0,0,1,.31-.24.43.43,0,0,1,.35,0,.41.41,0,0,1,.19.3.48.48,0,0,1-.08.38.54.54,0,0,1-.31.25A.43.43,0,0,1,61.46,79.28Zm.35-.56a.09.09,0,0,0-.07,0,.1.1,0,0,0-.06.05.09.09,0,0,0,0,.08.06.06,0,0,0,0,.06s.05,0,.07,0a.1.1,0,0,0,.06,0,.08.08,0,0,0,0-.08A.06.06,0,0,0,61.81,78.72Z"/><path class="cls-9" d="M62.59,79.23c.1-.08.19-.1.26,0a.14.14,0,0,1,.07.11.18.18,0,0,1,0,.14.26.26,0,0,1-.11.1.19.19,0,0,1-.13,0,.19.19,0,0,1-.09-.14.25.25,0,0,0-.15.13l-.15.26L62,79.57l.43-.68.3.19Z"/><path class="cls-9" d="M63.54,79.66l-.18.29a.41.41,0,0,0-.14-.15l-.07,0-.06,0s0,.09.07.13a.32.32,0,0,0,.17.06l-.18.3-.21-.09a.44.44,0,0,1-.21-.27.35.35,0,0,1,.06-.31.4.4,0,0,1,.25-.19.39.39,0,0,1,.31,0A.65.65,0,0,1,63.54,79.66Z"/><path class="cls-9" d="M64.08,79.71l-.16.27a.26.26,0,0,1,.35.18.35.35,0,0,1-.06.23l-.27.42-.28-.18.24-.39s0-.1,0-.12h-.07l-.28.45-.31-.19.54-.85Z"/><path class="cls-9" d="M64.82,81l-.07.12a.37.37,0,0,1-.38,0,.39.39,0,0,1-.19-.25.42.42,0,0,1,.07-.32.41.41,0,0,1,.24-.19.38.38,0,0,1,.29,0,.57.57,0,0,1,.11.11.25.25,0,0,1,0,.15.3.3,0,0,1,0,.16.67.67,0,0,1-.08.18l-.31-.2a.24.24,0,0,0,0,.12.19.19,0,0,0,.07.08A.2.2,0,0,0,64.82,81Zm-.23-.36.15.09a.15.15,0,0,0,0-.09.06.06,0,0,0,0-.06.08.08,0,0,0-.07,0A.19.19,0,0,0,64.59,80.64Z"/><path class="cls-9" d="M64.75,81.22l.18-.14a.27.27,0,0,0,0,.12.27.27,0,0,0,.07.08s0,0,0,0a.05.05,0,0,0,0,0,.09.09,0,0,0,0,0,.28.28,0,0,0,0-.08A.61.61,0,0,1,65,81a.16.16,0,0,1,0-.1.15.15,0,0,1,0-.11.2.2,0,0,1,.17-.11.43.43,0,0,1,.25.07.6.6,0,0,1,.22.23l-.18.12A.2.2,0,0,0,65.4,81h0l0,0a.09.09,0,0,0,0,.05l.05.08a.35.35,0,0,1,.08.1.2.2,0,0,1,0,.11.25.25,0,0,1,0,.11.23.23,0,0,1-.18.12A.35.35,0,0,1,65,81.5.91.91,0,0,1,64.75,81.22Z"/><path class="cls-9" d="M66.27,81.33l-.12.19L66,81.44l-.09.14s0,.09,0,.11a.09.09,0,0,0,.1,0l-.17.27a.3.3,0,0,1-.2-.06.27.27,0,0,1-.14-.19.34.34,0,0,1,0-.25l.13-.21-.12-.08.67-.11-.12.19Z"/><path class="cls-9" d="M66.57,81.72c.11-.07.2-.09.27,0a.14.14,0,0,1,.07.11.19.19,0,0,1,0,.14.18.18,0,0,1-.12.09.13.13,0,0,1-.13,0,.2.2,0,0,1-.08-.13.25.25,0,0,0-.15.13l-.16.25-.3-.19.42-.67.31.19Z"/><path class="cls-9" d="M66.84,82.07l.12-.2a.64.64,0,0,1,.35.1.37.37,0,0,1,.18.22.42.42,0,0,1-.07.27l-.24.38-.3-.19,0-.05a.27.27,0,0,1-.18,0,.14.14,0,0,1-.08-.12.21.21,0,0,1,0-.15.21.21,0,0,1,.14-.11.24.24,0,0,1,.18,0,.39.39,0,0,1,.1.08.12.12,0,0,0,0-.1.17.17,0,0,0-.07-.08A.39.39,0,0,0,66.84,82.07Zm.13.43.06-.1,0,0h-.06l0,0a.13.13,0,0,0,0,.06.05.05,0,0,0,0,0Z"/><path class="cls-9" d="M68.18,82.27l.37.23a.48.48,0,0,1,.23.32.54.54,0,0,1-.08.37.66.66,0,0,1-.18.19.44.44,0,0,1-.25.06.48.48,0,0,1-.26-.09l-.36-.22Zm.13.54-.13.2h0a.11.11,0,0,0,.1,0,.09.09,0,0,0,.08-.06.1.1,0,0,0,0-.16Z"/><path class="cls-9" d="M69.25,83.19l-.43.68-.3-.19.42-.68a.43.43,0,0,0,.13.14A.41.41,0,0,0,69.25,83.19Zm-.09,0a.12.12,0,0,1,0-.07.19.19,0,0,1,0-.08.13.13,0,0,1,.07-.06.11.11,0,0,1,.08,0,.1.1,0,0,1,0,.07.08.08,0,0,1,0,.08.12.12,0,0,1-.06.06A.11.11,0,0,1,69.16,83.14Z"/><path class="cls-9" d="M69.57,83.6a.23.23,0,0,1,.26,0,.15.15,0,0,1,.08.11.25.25,0,0,1,0,.14.21.21,0,0,1-.11.1.15.15,0,0,1-.13,0,.16.16,0,0,1-.08-.14.29.29,0,0,0-.15.13l-.16.26-.3-.19.42-.68.3.19Z"/><path class="cls-9" d="M70.35,84.46l-.08.12a.37.37,0,0,1-.38,0,.4.4,0,0,1-.18-.25.46.46,0,0,1,.06-.32.42.42,0,0,1,.25-.19.32.32,0,0,1,.28,0,.38.38,0,0,1,.11.11.35.35,0,0,1,.06.14.41.41,0,0,1,0,.16.48.48,0,0,1-.08.18l-.31-.19a.17.17,0,0,0,0,.12.13.13,0,0,0,.07.08A.26.26,0,0,0,70.35,84.46Zm-.23-.36.14.09a.16.16,0,0,0,0-.09.07.07,0,0,0,0-.06.07.07,0,0,0-.06,0A.16.16,0,0,0,70.12,84.1Z"/><path class="cls-9" d="M71.24,84.47l-.19.3a.44.44,0,0,0-.14-.16l-.07,0a0,0,0,0,0,0,0s0,.08.06.13a.32.32,0,0,0,.17.06l-.18.29a1,1,0,0,1-.21-.09.39.39,0,0,1-.21-.27.36.36,0,0,1,.06-.31.4.4,0,0,1,.25-.19.39.39,0,0,1,.31.05A1.12,1.12,0,0,1,71.24,84.47Z"/><path class="cls-9" d="M71.84,84.81l-.12.19-.13-.08-.09.15c0,.05,0,.08,0,.11a.14.14,0,0,0,.11,0l-.17.27a.31.31,0,0,1-.29-.5l.13-.21-.13-.07.67-.12-.12.19Z"/><path class="cls-9" d="M71.8,85.74a.33.33,0,0,1-.17-.24.41.41,0,0,1,.07-.31A.43.43,0,0,1,72,85a.34.34,0,0,1,.29,0,.34.34,0,0,1,.17.24.44.44,0,0,1-.06.31.42.42,0,0,1-.25.19A.36.36,0,0,1,71.8,85.74Zm.27-.43H72a.12.12,0,0,0-.05,0,.14.14,0,0,0,0,.06.13.13,0,0,0,0,.06H72l0,0a.08.08,0,0,0,0-.07A.07.07,0,0,0,72.07,85.31Z"/><path class="cls-9" d="M72.86,85.66a.24.24,0,0,1,.27,0,.16.16,0,0,1,.07.11.24.24,0,0,1,0,.14.28.28,0,0,1-.12.1.15.15,0,0,1-.13,0,.18.18,0,0,1-.08-.14.29.29,0,0,0-.15.13l-.16.26-.3-.19.42-.68.3.19Z"/><line class="cls-10" x1="29.39" y1="47.38" x2="28.55" y2="52.04"/><path class="cls-10" d="M23.81,52.44c0-.07.05-.14.07-.21.13-.4-.11-.17-.1-.6a2.78,2.78,0,0,0-.07-.81"/><path class="cls-10" d="M3.61,52.85a4,4,0,0,0,1.95-2l2.56-4.3,0,0"/><path class="cls-10" d="M4.78,57.11a61.87,61.87,0,0,1,5.8-8.25l0,0"/><path class="cls-10" d="M7.89,58.75c1.34-2.9,4.38-4.92,5.7-7.85l0-.08"/><path class="cls-11" d="M13.17,59.52a56,56,0,0,0,2.65-5,25.37,25.37,0,0,0,2.12-6.77"/><path class="cls-10" d="M17.75,57.68a23.76,23.76,0,0,0,2.19-6.13l.09-.48"/><path class="cls-2" d="M19.68,21.38a2.17,2.17,0,0,0-1.19,1.76,6.51,6.51,0,0,0,.21,2.19l2.12,9.75a2.14,2.14,0,0,0,.43,1,.73.73,0,0,0,1,.07,1.17,1.17,0,0,0,.19-.49c.42-2.08,1.67-5,1.14-7C23.42,28,20,21.25,19.68,21.38Z"/><path class="cls-2" d="M49.5,56.17a1.72,1.72,0,0,0,.68,1.66,3.73,3.73,0,0,0,1.61.56l7.66,1.44a1.42,1.42,0,0,0,.91,0,.88.88,0,0,0,.5-.89.72.72,0,0,0-.25-.34c-1.25-1.09-2.68-3.19-4.34-3.42C55.71,55.07,49.55,55.84,49.5,56.17Z"/><path class="cls-2" d="M62.34,62.69A1.73,1.73,0,0,0,63,64.35a3.87,3.87,0,0,0,1.61.56l7.66,1.44a1.43,1.43,0,0,0,.91,0,.86.86,0,0,0,.5-.88.72.72,0,0,0-.25-.34C72.2,64,70.77,61.9,69.11,61.66,68.55,61.58,62.39,62.35,62.34,62.69Z"/><path class="cls-2" d="M5.21,57.56a2.37,2.37,0,0,0,.65,1.81,9.58,9.58,0,0,0,1.62,1.5L15.22,67a2.69,2.69,0,0,0,.93.56c.31.08.6-.08.52-.4a1.16,1.16,0,0,0-.25-.44c-1.23-1.7-2.64-4.35-4.32-5.62C11.53,60.67,5.27,57.32,5.21,57.56Z"/><path class="cls-9" d="M45.87,40.37h-.48l-.53-1.7h.64l.18.55.18-.55h.46l.19.55.16-.55h.65l-.51,1.7h-.48l-.24-.67Z"/><path class="cls-9" d="M48.51,39.86v.24a.65.65,0,0,1-.57.29.64.64,0,0,1-.49-.19.74.74,0,0,1-.19-.52.69.69,0,0,1,.18-.49.55.55,0,0,1,.44-.19.75.75,0,0,1,.26,0,.65.65,0,0,1,.21.16.68.68,0,0,1,.12.24,1.13,1.13,0,0,1,0,.34H47.9A.31.31,0,0,0,48,40a.28.28,0,0,0,.18.06A.39.39,0,0,0,48.51,39.86Zm-.65-.31h.29a.34.34,0,0,0,0-.16.12.12,0,0,0-.1,0,.14.14,0,0,0-.1,0A.34.34,0,0,0,47.86,39.55Z"/><path class="cls-9" d="M50.08,38.67v1.7h-.72a.66.66,0,0,1-.51-.19.69.69,0,0,1-.18-.49.67.67,0,0,1,.17-.48.5.5,0,0,1,.41-.19.53.53,0,0,1,.23,0v-.39Zm-.6,1.21v-.3a.2.2,0,0,0-.11,0,.08.08,0,0,0-.08.05.16.16,0,0,0,0,.12c0,.06,0,.1,0,.12a.2.2,0,0,0,.14,0Z"/><path class="cls-9" d="M50.41,40.69h0a.36.36,0,0,0,.15-.29.34.34,0,0,1-.26-.35.4.4,0,0,1,.1-.28.3.3,0,0,1,.23-.11.28.28,0,0,1,.23.11.46.46,0,0,1,.09.29.63.63,0,0,1-.15.41A.59.59,0,0,1,50.41,40.69Z"/><path class="cls-9" d="M52.06,40.37H51.4l.51-1.7h1l.51,1.7h-.66l-.08-.29h-.49Zm.2-.69h.25l-.13-.42Z"/><path class="cls-9" d="M54.1,39v.1a.42.42,0,0,1,.29-.11.44.44,0,0,1,.37.19.72.72,0,0,1,.15.47.81.81,0,0,1-.16.5.48.48,0,0,1-.41.2.53.53,0,0,1-.24-.06v.43h-.61V39Zm0,.59v.24a.19.19,0,0,0,.1,0,.1.1,0,0,0,.09,0,.21.21,0,0,0,0-.12.28.28,0,0,0,0-.13.1.1,0,0,0-.09,0A.12.12,0,0,0,54.1,39.62Z"/><path class="cls-9" d="M55.7,39.32q.12-.3.33-.3a.25.25,0,0,1,.2.09.31.31,0,0,1,.08.23.36.36,0,0,1-.07.24.27.27,0,0,1-.21.09.31.31,0,0,1-.24-.12.42.42,0,0,0-.09.32v.5h-.61V39h.61Z"/><path class="cls-9" d="M58.17,40.37h-.66V38.86l.66-.22Z"/><path class="cls-9" d="M59.84,38.67V39h-.53l-.05.23a.59.59,0,0,1,.39.17.61.61,0,0,1,.13.39.62.62,0,0,1-.64.64.83.83,0,0,1-.44-.12.5.5,0,0,1-.24-.32v0a.56.56,0,0,0,.34.12A.38.38,0,0,0,59,40a.22.22,0,0,0,.08-.18c0-.14-.1-.21-.32-.21a.41.41,0,0,0-.28.08h0l.22-1Z"/><path class="cls-9" d="M60.62,38.83v.22h-.15v.16c0,.06,0,.09.07.09a.12.12,0,0,0,.09-.06v.31a.31.31,0,0,1-.21.07.29.29,0,0,1-.21-.09.32.32,0,0,1-.09-.24v-.24H60l.49-.45v.23Z"/><path class="cls-9" d="M61.07,38.62v.31a.28.28,0,0,1,.21-.11.26.26,0,0,1,.19.08.34.34,0,0,1,.06.22v.49H61.2v-.45c0-.07,0-.1-.07-.1a.09.09,0,0,0-.06,0v.52h-.35v-1Z"/><path class="cls-9" d="M62.39,39.58v-.4A1,1,0,0,1,63,39a.6.6,0,0,1,.45.15.62.62,0,0,1,.15.46v.74H63v-.1a.43.43,0,0,1-.3.11.27.27,0,0,1-.22-.1.35.35,0,0,1-.09-.25.36.36,0,0,1,.11-.28.4.4,0,0,1,.29-.11.76.76,0,0,1,.21,0,.15.15,0,0,0-.07-.14.24.24,0,0,0-.17-.06A.65.65,0,0,0,62.39,39.58Zm.58.49v-.18a.2.2,0,0,0-.1,0,.12.12,0,0,0-.09,0,.11.11,0,0,0,0,.08.12.12,0,0,0,.12.13A.13.13,0,0,0,63,40.07Z"/><path class="cls-9" d="M64.72,39v.38h-.25v.28c0,.1,0,.15.11.15a.17.17,0,0,0,.15-.1v.54a.58.58,0,0,1-.35.1.51.51,0,0,1-.37-.15.52.52,0,0,1-.15-.4v-.42h-.24l.85-.77V39Z"/><path class="cls-9" d="M66.4,40.37h-.73L66.2,39h-.44v-.3H67Z"/><path class="cls-9" d="M67.25,39.25a.29.29,0,0,1,.09-.22.36.36,0,0,1,.23-.08.32.32,0,0,1,.23.08.29.29,0,0,1,.09.22.28.28,0,0,1-.09.22.32.32,0,0,1-.23.08.36.36,0,0,1-.23-.08A.28.28,0,0,1,67.25,39.25Zm0,.85a.28.28,0,0,1,.09-.22.36.36,0,0,1,.23-.08.32.32,0,0,1,.23.08.28.28,0,0,1,.09.22.27.27,0,0,1-.09.22.34.34,0,0,1-.23.08.36.36,0,0,1-.23-.08A.28.28,0,0,1,67.25,40.1Z"/><path class="cls-9" d="M68.31,38.67h.58a.67.67,0,0,1,.41.11.43.43,0,0,1,.14.34.38.38,0,0,1-.06.22.62.62,0,0,1-.19.16.4.4,0,0,1,.26.41.42.42,0,0,1-.13.34.62.62,0,0,1-.42.12h-.59v-.59a.38.38,0,0,0,.31.18.21.21,0,0,0,.13-.05.14.14,0,0,0,0-.11.18.18,0,0,0-.06-.15.21.21,0,0,0-.16-.06.73.73,0,0,0-.26.06v-.3a.85.85,0,0,0,.23,0,.23.23,0,0,0,.17-.05.15.15,0,0,0,.07-.14.17.17,0,0,0,0-.12.18.18,0,0,0-.13,0,.24.24,0,0,0-.16,0,.33.33,0,0,0-.13.13Z"/><path class="cls-9" d="M70.54,38.64a.71.71,0,0,1,.55.26.87.87,0,0,1,.22.62.91.91,0,0,1-.22.63.72.72,0,0,1-1.09,0,.91.91,0,0,1-.22-.63A.87.87,0,0,1,70,38.9.7.7,0,0,1,70.54,38.64Zm0,1a.14.14,0,0,0,.11,0,.19.19,0,0,0,0-.13.17.17,0,0,0,0-.12.13.13,0,0,0-.11-.06.11.11,0,0,0-.1.06.17.17,0,0,0,0,.12.19.19,0,0,0,0,.13A.12.12,0,0,0,70.54,39.65Z"/><path class="cls-9" d="M71.83,39.57v.06a.26.26,0,0,1,.18-.07.29.29,0,0,1,.22.11.46.46,0,0,1,.09.29.44.44,0,0,1-.1.3.29.29,0,0,1-.24.12.28.28,0,0,1-.15,0v.26h-.36v-1Zm0,.35v.15l.07,0s0,0,0,0A.15.15,0,0,0,72,40a.14.14,0,0,0,0-.07s0,0,0,0A.1.1,0,0,0,71.83,39.92Z"/><path class="cls-9" d="M72.79,39.57v.1a.27.27,0,0,1,.45,0,.4.4,0,0,1,.12-.11.28.28,0,0,1,.13,0,.22.22,0,0,1,.18.08.32.32,0,0,1,.07.23v.5H73.4v-.48a.14.14,0,0,0,0-.07l0,0-.06,0v.54h-.35v-.48a.15.15,0,0,0,0-.07l0,0a.09.09,0,0,0-.07,0v.54h-.36v-.8Z"/><path class="cls-12" d="M6.05,107.15a.34.34,0,0,0,.33.27c.2,0,.33-.08.33-.27s-.07-.24-.33-.31-.4-.15-.4-.36a.36.36,0,0,1,.39-.35c.32,0,.41.2.42.32h-.1a.29.29,0,0,0-.32-.22c-.2,0-.28.11-.28.24s.08.21.31.27.42.22.42.4-.16.37-.44.37a.4.4,0,0,1-.43-.36Zm.29.55V106h.1v1.71Z"/><path class="cls-12" d="M7.83,106.25H7.26c0,.13-.06.39-.08.47a.38.38,0,0,1,.31-.13.39.39,0,0,1,.4.44.43.43,0,0,1-.43.49.39.39,0,0,1-.42-.35h.1a.32.32,0,0,0,.32.25c.21,0,.32-.15.32-.38s-.08-.35-.29-.35a.31.31,0,0,0-.33.2l-.1,0c0-.18.09-.55.11-.71h.68Z"/><path class="cls-12" d="M8.73,107.11a.37.37,0,0,0,.41.3c.26,0,.36-.13.36-.28s-.07-.27-.39-.34-.43-.18-.43-.38.14-.37.44-.37a.42.42,0,0,1,.47.37H9.48a.33.33,0,0,0-.36-.26c-.21,0-.32.09-.32.25s.09.22.36.28.46.27.46.44-.15.39-.48.39a.47.47,0,0,1-.52-.4Z"/><path class="cls-12" d="M9.74,106.47h.19v-.32H10v.32h.24v.1H10v.66c0,.12,0,.18.12.18h.1v.09l-.12,0c-.13,0-.21-.07-.21-.23v-.71H9.74Z"/><path class="cls-12" d="M11.22,107.19v.3h-.09a.67.67,0,0,1,0-.17.31.31,0,0,1-.33.2c-.15,0-.33-.06-.33-.37v-.68h.1v.65c0,.15,0,.3.25.3s.31-.13.31-.42v-.53h.1Z"/><path class="cls-12" d="M12.35,106v1.5h-.1s0-.12,0-.17a.32.32,0,0,1-.34.2c-.26,0-.42-.22-.42-.53s.17-.54.45-.54a.31.31,0,0,1,.31.15V106Zm-.77,1c0,.28.15.43.32.43s.35-.18.35-.46-.07-.42-.33-.42S11.58,106.7,11.58,107Z"/><path class="cls-12" d="M12.7,107c0,.27.14.43.33.43a.29.29,0,0,0,.3-.19h.1a.39.39,0,0,1-.4.29c-.31,0-.43-.27-.43-.53s.14-.54.44-.54a.42.42,0,0,1,.42.46.19.19,0,0,1,0,.08Zm.65-.09a.32.32,0,0,0-.31-.36c-.21,0-.31.15-.33.36Z"/><path class="cls-12" d="M13.71,106.73a2.17,2.17,0,0,0,0-.26h.1a1.34,1.34,0,0,1,0,.2.33.33,0,0,1,.34-.22c.18,0,.34.1.34.38v.66h-.1v-.64c0-.18-.08-.3-.25-.3s-.33.2-.33.42v.52h-.1Z"/><path class="cls-12" d="M14.67,106.47h.19v-.32H15v.32h.24v.1H15v.66c0,.12,0,.18.12.18h.11v.09l-.13,0c-.13,0-.2-.07-.2-.23v-.71h-.19Z"/><path class="cls-12" d="M15.35,107.6l.57-1.56H16l-.58,1.56Z"/><path class="cls-12" d="M16.34,107.11a.37.37,0,0,0,.41.3c.26,0,.36-.13.36-.28s-.07-.27-.39-.34-.43-.18-.43-.38.13-.37.44-.37a.42.42,0,0,1,.47.37h-.12a.32.32,0,0,0-.36-.26c-.2,0-.31.09-.31.25s.09.22.35.28.47.27.47.44-.16.39-.49.39a.45.45,0,0,1-.51-.4Z"/><path class="cls-12" d="M17.53,107c0,.27.13.43.33.43a.28.28,0,0,0,.29-.19h.11a.41.41,0,0,1-.41.29c-.31,0-.43-.27-.43-.53s.15-.54.45-.54a.42.42,0,0,1,.41.46V107Zm.65-.09c0-.2-.12-.36-.32-.36s-.3.15-.33.36Z"/><path class="cls-12" d="M18.53,106.73v-.26h.1v.2a.33.33,0,0,1,.34-.22c.18,0,.34.1.34.38v.66h-.1v-.64c0-.18-.07-.3-.25-.3s-.33.2-.33.42v.52h-.1Z"/><path class="cls-12" d="M19.65,106h.1v.2h-.1Zm0,.48h.1v1h-.1Z"/><path class="cls-12" d="M20.91,107a.48.48,0,0,1-.46.54c-.27,0-.44-.23-.44-.54a.47.47,0,0,1,.45-.53C20.73,106.45,20.91,106.66,20.91,107Zm-.8,0c0,.25.13.44.35.44s.35-.18.35-.44-.13-.44-.35-.44S20.11,106.74,20.11,107Z"/><path class="cls-12" d="M21.17,106.75v-.28h.1v.23a.39.39,0,0,1,.35-.25v.11a.36.36,0,0,0-.35.4v.53h-.1Z"/><path class="cls-12" d="M21.77,107.6l.57-1.56h.11l-.58,1.56Z"/><path class="cls-12" d="M22.76,107.11a.36.36,0,0,0,.4.3c.27,0,.37-.13.37-.28s-.08-.27-.39-.34-.43-.18-.43-.38.13-.37.44-.37a.43.43,0,0,1,.47.37H23.5a.32.32,0,0,0-.36-.26c-.2,0-.31.09-.31.25s.09.22.35.28c.41.1.46.27.46.44s-.15.39-.48.39a.45.45,0,0,1-.51-.4Z"/><path class="cls-12" d="M23.77,106.47H24v-.32h.1v.32h.24v.1h-.24v.66c0,.12,0,.18.12.18h.11v.09l-.13,0c-.13,0-.2-.07-.2-.23v-.71h-.19Z"/><path class="cls-12" d="M25.21,107.3a.71.71,0,0,0,0,.19h-.1a.88.88,0,0,1,0-.15.33.33,0,0,1-.33.18.31.31,0,0,1-.34-.31c0-.22.17-.33.48-.33h.19v-.1c0-.1,0-.24-.26-.24s-.24.11-.26.19h-.1c0-.11.08-.28.36-.28s.36.1.36.32Zm-.1-.33h-.2c-.22,0-.36.06-.36.24a.21.21,0,0,0,.23.21c.29,0,.33-.19.33-.41Z"/><path class="cls-12" d="M25.67,106.57v.92h-.1v-.92h-.18v-.1h.18v-.14c0-.17,0-.36.26-.36h.1v.1l-.1,0c-.12,0-.16.08-.16.25v.16h.41v-.14c0-.17,0-.36.27-.36h.09v.1l-.1,0c-.11,0-.16.08-.16.25v.16h.22v.1h-.22v.92h-.1v-.92Z"/><path class="cls-12" d="M26.5,107.6l.58-1.56h.1l-.57,1.56Z"/><path class="cls-12" d="M28.72,106.84c0-.28,0-.55,0-.69h0c-.06.19-.35.89-.53,1.34h-.11c-.14-.35-.44-1.13-.5-1.35h0c0,.17,0,.5,0,.74v.61h-.11v-1.43h.16c.2.49.45,1.13.5,1.3h0c0-.11.32-.82.52-1.3h.16v1.43h-.11Z"/><path class="cls-12" d="M29.2,106h.1v.2h-.1Zm0,.48h.1v1h-.1Z"/><path class="cls-12" d="M29.64,107.49V106h.1v1.5Z"/><path class="cls-12" d="M30.08,106h.1v.2h-.1Zm0,.48h.1v1h-.1Z"/><path class="cls-12" d="M30.37,106.47h.19v-.32h.11v.32h.24v.1h-.24v.66c0,.12,0,.18.12.18h.11v.09l-.13,0c-.13,0-.21-.07-.21-.23v-.71h-.19Z"/><path class="cls-12" d="M31.82,107.3c0,.09,0,.16,0,.19h-.1s0-.07,0-.15a.36.36,0,0,1-.34.18.31.31,0,0,1-.34-.31c0-.22.18-.33.48-.33h.2v-.1c0-.1,0-.24-.27-.24a.23.23,0,0,0-.26.19h-.1c0-.11.08-.28.36-.28s.37.1.37.32Zm-.1-.33h-.2c-.23,0-.37.06-.37.24s.09.21.24.21.33-.19.33-.41Z"/><path class="cls-12" d="M32.16,106.75c0-.17,0-.25,0-.28h.1a1.11,1.11,0,0,1,0,.23.39.39,0,0,1,.35-.25v.11a.36.36,0,0,0-.35.4v.53h-.1Z"/><path class="cls-12" d="M32.85,106.47c.21.59.3.83.33.94h0c0-.13.12-.36.32-.94h.1l-.38,1.08c-.11.3-.18.37-.37.37h-.09v-.11h.09c.15,0,.2-.07.27-.28l-.39-1.07Z"/><path class="cls-12" d="M6.05,109.55a.33.33,0,0,0,.33.27c.2,0,.33-.07.33-.27s-.07-.24-.33-.31-.4-.15-.4-.36a.35.35,0,0,1,.39-.34c.32,0,.41.19.42.31h-.1a.3.3,0,0,0-.32-.22c-.2,0-.28.11-.28.24s.08.21.31.27.42.22.42.4-.16.37-.44.37a.39.39,0,0,1-.43-.36Zm.29.55v-1.71h.1v1.71Z"/><path class="cls-12" d="M7.3,109.9v-1.22a1,1,0,0,1-.31.16v-.1a1,1,0,0,0,.32-.2H7.4v1.36Z"/><path class="cls-12" d="M8.61,109.21c0,.31-.08.71-.44.71s-.43-.37-.43-.7.09-.69.44-.69S8.61,108.9,8.61,109.21Zm-.76,0c0,.26.06.59.32.59s.33-.32.33-.61-.05-.58-.32-.58S7.85,108.93,7.85,109.23Z"/><path class="cls-12" d="M10.56,109.9h-.09a.75.75,0,0,1,0-.23.45.45,0,0,1-.46.24c-.41,0-.62-.31-.62-.72s.22-.74.64-.74a.51.51,0,0,1,.56.42h-.11a.42.42,0,0,0-.45-.32c-.36,0-.52.28-.52.64s.16.62.51.62.45-.23.45-.55v0H10v-.1h.57Z"/><path class="cls-12" d="M10.92,109.4c0,.26.14.42.33.42a.29.29,0,0,0,.3-.19h.1a.38.38,0,0,1-.4.29c-.31,0-.43-.27-.43-.53s.14-.54.44-.54a.42.42,0,0,1,.41.46v.09Zm.65-.09a.32.32,0,0,0-.31-.36c-.22,0-.31.14-.33.36Z"/><path class="cls-12" d="M11.92,109.13v-.26H12a1.41,1.41,0,0,1,0,.2.31.31,0,0,1,.33-.22.33.33,0,0,1,.35.38v.67h-.1v-.65c0-.18-.08-.3-.26-.3s-.32.2-.32.43v.52h-.11Z"/><path class="cls-12" d="M13.06,109.4c0,.26.14.42.34.42a.28.28,0,0,0,.29-.19h.1a.38.38,0,0,1-.4.29c-.31,0-.43-.27-.43-.53s.15-.54.44-.54a.42.42,0,0,1,.42.46v.09Zm.65-.09a.32.32,0,0,0-.31-.36c-.21,0-.31.14-.33.36Z"/><path class="cls-12" d="M14.07,109.15v-.28h.1v.23a.39.39,0,0,1,.36-.25V109a.36.36,0,0,0-.36.4v.54h-.1Z"/><path class="cls-12" d="M15.4,109.7a1,1,0,0,0,0,.2h-.1a1.08,1.08,0,0,1,0-.16.33.33,0,0,1-.33.18.3.3,0,0,1-.34-.31c0-.22.17-.32.48-.32h.19v-.11c0-.1,0-.24-.26-.24s-.24.11-.26.2h-.1c0-.12.08-.29.36-.29s.37.1.37.32Zm-.1-.32h-.2c-.23,0-.37.05-.37.23a.21.21,0,0,0,.23.22c.29,0,.34-.2.34-.42Z"/><path class="cls-12" d="M15.73,109.9v-1.51h.1v1.51Z"/><path class="cls-12" d="M6.05,112a.33.33,0,0,0,.33.27c.2,0,.33-.07.33-.26s-.07-.24-.33-.31-.4-.16-.4-.37a.36.36,0,0,1,.39-.34c.32,0,.41.19.42.32h-.1a.3.3,0,0,0-.32-.23c-.2,0-.28.11-.28.24s.08.22.31.28.42.21.42.4-.16.37-.44.36A.39.39,0,0,1,6,112Zm.29.55v-1.7h.1v1.7Z"/><path class="cls-12" d="M7.3,112.3v-1.22a1,1,0,0,1-.31.16v-.1a1,1,0,0,0,.32-.2H7.4v1.36Z"/><path class="cls-12" d="M8.53,111.06H8a4.12,4.12,0,0,1-.07.46.39.39,0,0,1,.31-.13.4.4,0,0,1,.4.45.43.43,0,0,1-.44.48.4.4,0,0,1-.42-.35h.11a.32.32,0,0,0,.32.26c.21,0,.32-.15.32-.39s-.09-.35-.3-.35a.31.31,0,0,0-.32.21l-.1,0a6.71,6.71,0,0,0,.1-.71h.69Z"/><path class="cls-12" d="M9.57,111.8l-.18.5H9.27l.53-1.43h.13l.55,1.43h-.12l-.19-.5Zm.56-.1L9.86,111h0c0,.11-.12.36-.25.72Z"/><path class="cls-12" d="M10.5,111.28h.19V111h.1v.32H11v.09h-.25V112c0,.11,0,.18.13.18a.18.18,0,0,0,.1,0v.09a.23.23,0,0,1-.12,0c-.14,0-.21-.06-.21-.23v-.71H10.5Z"/><path class="cls-12" d="M11.69,111.73v.1h-.51v-.1Z"/><path class="cls-12" d="M11.81,111.28H12V111h.1v.32h.24v.09H12.1V112c0,.11,0,.18.12.18a.23.23,0,0,0,.11,0v.09a.3.3,0,0,1-.13,0c-.13,0-.2-.06-.2-.23v-.71h-.19Z"/><path class="cls-12" d="M12.65,110.79v.66a.33.33,0,0,1,.33-.2c.15,0,.35.08.35.4v.65h-.1v-.63c0-.2-.1-.32-.27-.32s-.31.13-.31.38v.57h-.11v-1.51Z"/><path class="cls-12" d="M13.69,111.8c0,.26.13.43.33.43a.29.29,0,0,0,.29-.19h.11a.41.41,0,0,1-.41.28c-.31,0-.43-.26-.43-.52s.15-.55.44-.55a.42.42,0,0,1,.42.47v.08Zm.64-.09a.32.32,0,0,0-.31-.36c-.21,0-.31.15-.33.36Z"/><path class="cls-12" d="M15.2,111.73v.1h-.52v-.1Z"/><path class="cls-12" d="M16.29,110.79v1.51h-.1v-.17a.34.34,0,0,1-.35.19c-.26,0-.42-.21-.42-.52s.17-.55.45-.55.29.09.32.16v-.62Zm-.76,1c0,.28.14.43.32.43s.34-.19.34-.47-.06-.41-.32-.41S15.53,111.51,15.53,111.8Z"/><path class="cls-12" d="M17.45,111.79a.48.48,0,0,1-.46.53c-.28,0-.45-.22-.45-.53a.48.48,0,0,1,.46-.54C17.27,111.25,17.45,111.47,17.45,111.79Zm-.8,0c0,.24.13.44.35.44s.34-.18.34-.44-.12-.44-.35-.44S16.65,111.54,16.65,111.79Z"/><path class="cls-12" d="M18.54,111.79a.47.47,0,0,1-.46.53c-.27,0-.44-.22-.44-.53a.48.48,0,0,1,.45-.54C18.37,111.25,18.54,111.47,18.54,111.79Zm-.8,0a.39.39,0,0,0,.35.44c.22,0,.35-.18.35-.44s-.13-.44-.35-.44S17.74,111.54,17.74,111.79Z"/><path class="cls-12" d="M18.8,111.56v-.28h.1v.23a.39.39,0,0,1,.36-.26v.11a.37.37,0,0,0-.36.41v.53h-.1Z"/><path class="cls-12" d="M20,111.91a.38.38,0,0,0,.41.31c.26,0,.36-.13.36-.29s-.07-.26-.39-.34-.43-.17-.43-.38.14-.36.44-.36a.42.42,0,0,1,.47.36h-.11a.33.33,0,0,0-.36-.26c-.21,0-.32.1-.32.26s.09.21.36.28.46.26.46.43-.15.4-.49.4a.46.46,0,0,1-.51-.41Z"/><path class="cls-12" d="M21.9,112.1a1,1,0,0,0,0,.2h-.1a1.08,1.08,0,0,1,0-.16.32.32,0,0,1-.33.18.3.3,0,0,1-.34-.3c0-.23.17-.33.48-.33h.19v-.1c0-.11,0-.24-.26-.24s-.24.11-.26.19h-.1a.32.32,0,0,1,.36-.29c.24,0,.37.1.37.33Zm-.1-.32h-.2c-.23,0-.37.06-.37.23a.21.21,0,0,0,.23.22c.3,0,.34-.19.34-.42Z"/><path class="cls-12" d="M22.23,112.3v-1.51h.11v1.51Z"/><path class="cls-12" d="M22.69,111.8c0,.26.14.43.33.43a.29.29,0,0,0,.3-.19h.1a.39.39,0,0,1-.4.28c-.31,0-.43-.26-.43-.52s.14-.55.44-.55a.42.42,0,0,1,.42.47.22.22,0,0,1,0,.08Zm.65-.09a.32.32,0,0,0-.31-.36c-.21,0-.31.15-.33.36Z"/><path class="cls-12" d="M23.72,112a.28.28,0,0,0,.29.21c.18,0,.26-.08.26-.2s-.05-.17-.28-.23-.33-.14-.33-.28.11-.27.34-.27a.31.31,0,0,1,.35.29h-.1a.23.23,0,0,0-.26-.19c-.18,0-.23.08-.23.17s0,.14.25.19.36.16.36.31-.15.3-.36.3a.35.35,0,0,1-.39-.3Z"/><path class="cls-12" d="M6.1,113.05V114H6v-.93Z"/><path class="cls-12" d="M6.35,114v-.6H6.24v-.06h.11v-.1c0-.11,0-.23.18-.23H6.6v.06H6.53c-.08,0-.11,0-.11.17v.09h.14v.06H6.42v.6Z"/><path class="cls-12" d="M7,113.32c.14.37.19.53.22.6h0c0-.08.08-.23.21-.6h.06l-.24.7c-.07.19-.12.24-.24.24H6.94v-.06H7c.09,0,.12,0,.17-.18l-.25-.69Z"/><path class="cls-12" d="M8.15,113.65a.31.31,0,0,1-.3.34c-.17,0-.28-.14-.28-.34s.1-.35.29-.35S8.15,113.44,8.15,113.65Zm-.51,0c0,.15.08.28.22.28s.22-.12.22-.28-.08-.29-.22-.29S7.64,113.49,7.64,113.65Z"/><path class="cls-12" d="M8.81,113.78v.2H8.75v-.12a.21.21,0,0,1-.22.13c-.09,0-.21,0-.21-.24v-.43h.06v.42c0,.09,0,.19.16.19s.21-.08.21-.27v-.34h.06Z"/><path class="cls-12" d="M9.44,113v.43a.23.23,0,0,1,.22-.13c.09,0,.22,0,.22.26V114H9.81v-.41c0-.13-.06-.2-.17-.2s-.2.08-.2.24V114H9.37v-1Z"/><path class="cls-12" d="M10.54,113.85c0,.06,0,.11,0,.13h-.06a.25.25,0,0,1,0-.1.26.26,0,0,1-.22.11.2.2,0,0,1-.22-.19c0-.15.11-.22.31-.22h.13v-.06c0-.07,0-.16-.17-.16s-.16.07-.17.13h-.07c0-.08,0-.19.24-.19s.23.06.23.21Zm-.06-.21h-.13c-.15,0-.24,0-.24.15a.13.13,0,0,0,.15.14c.19,0,.22-.12.22-.27Z"/><path class="cls-12" d="M10.72,113.32c.11.3.19.51.21.59h0l.22-.59h.07L11,114h-.08l-.24-.66Z"/><path class="cls-12" d="M11.36,113.66c0,.17.09.27.22.27a.2.2,0,0,0,.19-.12h.06a.24.24,0,0,1-.26.18c-.2,0-.28-.17-.28-.34s.1-.35.29-.35a.27.27,0,0,1,.27.3v.06Zm.42-.06c0-.13-.07-.24-.2-.24s-.2.1-.21.24Z"/><path class="cls-12" d="M12.26,113.32h.12v-.21h.06v.21h.16v.06h-.16v.43c0,.07,0,.11.08.11h.07v0l-.08,0c-.08,0-.13,0-.13-.15v-.46h-.12Z"/><path class="cls-12" d="M12.74,113h.06v.13h-.06Zm0,.32h.06V114h-.06Z"/><path class="cls-12" d="M13.51,113.78a.26.26,0,0,1-.26.21c-.17,0-.28-.12-.28-.34s.09-.35.29-.35a.24.24,0,0,1,.25.21h-.07a.18.18,0,0,0-.18-.15c-.14,0-.22.12-.22.29s.07.28.21.28.15-.05.19-.15Z"/><path class="cls-12" d="M13.73,113.66l.33-.34h.08l-.26.26.3.4H14.1l-.26-.36-.11.11V114h-.07v-1h.07Z"/><path class="cls-12" d="M14.28,113.66c0,.17.09.27.22.27a.19.19,0,0,0,.19-.12h.07a.26.26,0,0,1-.26.18c-.2,0-.28-.17-.28-.34s.09-.35.28-.35a.27.27,0,0,1,.27.3v.06Zm.42-.06c0-.13-.07-.24-.2-.24s-.2.1-.21.24Z"/><path class="cls-12" d="M14.84,113.32H15v-.21H15v.21h.16v.06H15v.43c0,.07,0,.11.08.11h.07v0l-.08,0c-.08,0-.13,0-.13-.15v-.46h-.13Z"/><path class="cls-12" d="M15.33,113h.06v.13h-.06Zm0,.32h.06V114h-.06Z"/><path class="cls-12" d="M15.61,113.48v-.16h.06a.48.48,0,0,1,0,.12.24.24,0,0,1,.45.11V114h-.07v-.42c0-.12-.05-.19-.16-.19s-.22.13-.22.27V114h-.06Z"/><path class="cls-12" d="M16.84,113.93c0,.21-.1.33-.29.33a.24.24,0,0,1-.26-.2h.07a.18.18,0,0,0,.2.13c.17,0,.21-.11.21-.28v-.06a.21.21,0,0,1-.22.13.29.29,0,0,1-.27-.33c0-.22.13-.35.28-.35s.2.06.21.12a.46.46,0,0,0,0-.1h.06v.61Zm-.49-.29c0,.16.08.28.21.28s.22-.11.22-.29-.06-.27-.22-.27S16.35,113.49,16.35,113.64Z"/><path class="cls-12" d="M17.84,113.87a.21.21,0,0,1-.22.12c-.15,0-.27-.12-.27-.33s.13-.36.28-.36.2.07.21.12a.34.34,0,0,1,0-.1h.06v.92h-.07Zm-.42-.22c0,.15.06.28.21.28s.22-.11.22-.29-.05-.28-.22-.28S17.42,113.48,17.42,113.65Z"/><path class="cls-12" d="M18.62,113.78v.2h-.06a.35.35,0,0,1,0-.12c0,.08-.09.13-.21.13s-.22,0-.22-.24v-.43h.07v.42c0,.09,0,.19.16.19s.2-.08.2-.27v-.34h.07Z"/><path class="cls-12" d="M18.85,113.66c0,.17.09.27.21.27a.2.2,0,0,0,.2-.12h.06a.26.26,0,0,1-.26.18c-.2,0-.28-.17-.28-.34s.1-.35.29-.35a.28.28,0,0,1,.27.3v.06Zm.42-.06c0-.13-.07-.24-.2-.24s-.2.1-.22.24Z"/><path class="cls-12" d="M19.52,113.8a.17.17,0,0,0,.18.13c.12,0,.17-.05.17-.13s0-.11-.18-.14-.21-.1-.21-.18.06-.18.21-.18a.22.22,0,0,1,.24.19h-.07a.16.16,0,0,0-.17-.13c-.11,0-.15.06-.15.11s0,.09.17.12.23.11.23.21-.1.19-.24.19a.23.23,0,0,1-.25-.19Z"/><path class="cls-12" d="M20,113.32h.12v-.21h.07v.21h.16v.06h-.16v.43c0,.07,0,.11.08.11h.07v0l-.09,0c-.08,0-.13,0-.13-.15v-.46H20Z"/><path class="cls-12" d="M20.48,113h.07v.13h-.07Zm0,.32h.07V114h-.07Z"/><path class="cls-12" d="M21.3,113.65a.31.31,0,0,1-.3.34c-.18,0-.29-.14-.29-.34s.1-.35.3-.35S21.3,113.44,21.3,113.65Zm-.52,0c0,.15.08.28.22.28s.23-.12.23-.28-.08-.29-.23-.29S20.78,113.49,20.78,113.65Z"/><path class="cls-12" d="M21.46,113.48v-.16h.07v.12a.21.21,0,0,1,.22-.14c.12,0,.22.07.22.25V114H21.9v-.42c0-.12,0-.19-.16-.19s-.21.13-.21.27V114h-.07Z"/><path class="cls-12" d="M22.18,113.8a.18.18,0,0,0,.19.13c.12,0,.17-.05.17-.13s0-.11-.18-.14-.22-.1-.22-.18.07-.18.22-.18a.21.21,0,0,1,.23.19h-.06a.17.17,0,0,0-.17-.13c-.12,0-.15.06-.15.11s0,.09.16.12.24.11.24.21-.1.19-.24.19a.22.22,0,0,1-.25-.19Z"/><path class="cls-12" d="M22.68,114.13a.93.93,0,0,0,.1-.32h.06a.8.8,0,0,1-.1.32Z"/><path class="cls-12" d="M23.42,113.88v.36h-.06v-.92h.06v.12a.25.25,0,0,1,.24-.14c.15,0,.26.13.26.33s-.13.36-.29.36A.23.23,0,0,1,23.42,113.88Zm.43-.25c0-.15-.07-.27-.2-.27s-.23.1-.23.28,0,.29.22.29S23.85,113.82,23.85,113.63Z"/><path class="cls-12" d="M24.09,114v-1h.06v1Z"/><path class="cls-12" d="M24.38,113.66c0,.17.09.27.22.27a.2.2,0,0,0,.19-.12h.06a.24.24,0,0,1-.26.18c-.2,0-.27-.17-.27-.34s.09-.35.28-.35a.27.27,0,0,1,.27.3v.06Zm.42-.06c0-.13-.07-.24-.2-.24s-.2.1-.21.24Z"/><path class="cls-12" d="M25.49,113.85V114h-.06s0,0,0-.1a.23.23,0,0,1-.22.11.2.2,0,0,1-.22-.19c0-.15.12-.22.31-.22h.13v-.06c0-.07,0-.16-.17-.16a.15.15,0,0,0-.17.13H25a.21.21,0,0,1,.24-.19c.15,0,.24.06.24.21Zm-.07-.21h-.13c-.15,0-.24,0-.24.15s.06.14.16.14.21-.12.21-.27Z"/><path class="cls-12" d="M25.7,113.8a.17.17,0,0,0,.18.13c.12,0,.17-.05.17-.13s0-.11-.18-.14-.21-.1-.21-.18.07-.18.22-.18a.21.21,0,0,1,.23.19H26a.16.16,0,0,0-.17-.13c-.11,0-.15.06-.15.11s0,.09.17.12.23.11.23.21-.1.19-.24.19a.23.23,0,0,1-.25-.19Z"/><path class="cls-12" d="M26.3,113.66c0,.17.09.27.21.27a.18.18,0,0,0,.19-.12h.07a.26.26,0,0,1-.26.18c-.2,0-.28-.17-.28-.34s.09-.35.29-.35a.28.28,0,0,1,.27.3.13.13,0,0,1,0,.06Zm.42-.06a.22.22,0,0,0-.21-.24c-.13,0-.19.1-.21.24Z"/><path class="cls-12" d="M6.49,115.47a.26.26,0,0,1-.26.21c-.16,0-.28-.13-.28-.35a.31.31,0,0,1,.29-.35.24.24,0,0,1,.25.21H6.42a.18.18,0,0,0-.18-.15c-.14,0-.22.12-.22.29s.08.28.21.28a.18.18,0,0,0,.19-.14Z"/><path class="cls-12" d="M7.1,115.53c0,.06,0,.11,0,.13H7.05a.25.25,0,0,1,0-.1.23.23,0,0,1-.22.12.2.2,0,0,1-.22-.2c0-.15.11-.21.31-.21H7v-.07c0-.07,0-.16-.17-.16s-.16.07-.17.13H6.63a.22.22,0,0,1,.24-.19c.15,0,.23.07.23.21ZM7,115.32H6.91c-.15,0-.24,0-.24.15a.13.13,0,0,0,.15.14c.19,0,.22-.12.22-.26Z"/><path class="cls-12" d="M7.32,115.66v-1h.07v1Z"/><path class="cls-12" d="M7.6,115.66v-1h.07v1Z"/><path class="cls-12" d="M8.13,115h.12v-.21h.07V115h.16v.06H8.32v.43c0,.07,0,.12.08.12h.07v.06H8.39c-.09,0-.14,0-.14-.15v-.46H8.13Z"/><path class="cls-12" d="M8.67,114.69v.42a.24.24,0,0,1,.22-.13c.1,0,.23,0,.23.26v.42H9.05v-.41c0-.13-.06-.2-.17-.2s-.21.08-.21.24v.37H8.61v-1Z"/><path class="cls-12" d="M9.35,115.34c0,.17.08.27.21.27a.18.18,0,0,0,.19-.12h.07a.26.26,0,0,1-.26.19c-.2,0-.28-.18-.28-.35s.09-.35.29-.35a.27.27,0,0,1,.26.3v.06Zm.42-.06c0-.13-.08-.24-.21-.24s-.19.1-.21.24Z"/><path class="cls-12" d="M10.34,114.69h.07v.42a.21.21,0,0,1,.22-.13c.16,0,.27.13.27.33s-.1.37-.29.37a.2.2,0,0,1-.2-.12s0,.08,0,.1h-.06v-1Zm.49.63c0-.17-.08-.28-.21-.28s-.22.12-.22.29,0,.28.22.28S10.83,115.5,10.83,115.32Z"/><path class="cls-12" d="M11.61,115.33a.31.31,0,0,1-.3.35c-.18,0-.29-.15-.29-.35a.31.31,0,0,1,.3-.35C11.49,115,11.61,115.12,11.61,115.33Zm-.52,0c0,.16.09.28.23.28s.22-.11.22-.28-.08-.29-.23-.29S11.09,115.17,11.09,115.33Z"/><path class="cls-12" d="M11.76,115l.19.27h0s.09-.14.19-.27h.07l-.23.32.24.34h-.08l-.2-.29h0l-.19.29h-.08l.24-.34-.23-.32Z"/><path class="cls-12" d="M13.21,115.33a.31.31,0,0,1-.29.35c-.18,0-.29-.15-.29-.35s.1-.35.29-.35S13.21,115.12,13.21,115.33Zm-.51,0c0,.16.08.28.22.28s.22-.11.22-.28-.08-.29-.22-.29S12.7,115.17,12.7,115.33Z"/><path class="cls-12" d="M13.47,115.06v.6h-.06v-.6h-.12V115h.12v-.09c0-.12,0-.24.17-.24h.06v.06h-.07c-.07,0-.1,0-.1.17v.1h.27v-.09c0-.12,0-.24.17-.24H14v.06h-.06c-.08,0-.11,0-.11.17v.1h.14v.06H13.8v.6h-.06v-.6Z"/><path class="cls-12" d="M14.07,114.69h.07v.12h-.07Zm0,.31h.07v.66h-.07Z"/><path class="cls-12" d="M14.84,115.47a.26.26,0,0,1-.26.21c-.16,0-.28-.13-.28-.35a.31.31,0,0,1,.29-.35.24.24,0,0,1,.25.21h-.07a.18.18,0,0,0-.18-.15c-.14,0-.22.12-.22.29s.07.28.21.28a.18.18,0,0,0,.19-.14Z"/><path class="cls-12" d="M15,115.34c0,.17.09.27.22.27a.2.2,0,0,0,.19-.12h.06a.24.24,0,0,1-.26.19c-.2,0-.27-.18-.27-.35s.09-.35.28-.35a.27.27,0,0,1,.27.3v.06Zm.42-.06c0-.13-.07-.24-.2-.24s-.2.1-.21.24Z"/><path class="cls-12" d="M16.46,115.53a.42.42,0,0,0,0,.13H16.4a.46.46,0,0,0,0-.1.21.21,0,0,1-.21.12.19.19,0,0,1-.22-.2c0-.15.11-.21.31-.21h.12v-.07c0-.07,0-.16-.17-.16a.15.15,0,0,0-.17.13H16a.21.21,0,0,1,.23-.19c.15,0,.24.07.24.21Zm-.07-.21h-.13c-.14,0-.23,0-.23.15a.13.13,0,0,0,.15.14c.19,0,.21-.12.21-.26Z"/><path class="cls-12" d="M16.57,115h.12v-.21h.07V115h.16v.06h-.16v.43c0,.07,0,.12.08.12h.07v.06h-.08c-.09,0-.14,0-.14-.15v-.46h-.12Z"/><path class="cls-12" d="M17.44,115.49a.16.16,0,0,0,.17.12c.2,0,.22-.28.22-.4a.21.21,0,0,1-.22.12.25.25,0,0,1-.26-.27.27.27,0,0,1,.27-.29c.2,0,.28.16.28.4s0,.5-.29.5a.25.25,0,0,1-.25-.18Zm0-.43a.2.2,0,1,0,.4,0,.2.2,0,0,0-.2-.22A.19.19,0,0,0,17.42,115.06Z"/><path class="cls-12" d="M18,115.66h0a.56.56,0,0,1,.26-.38c.15-.12.19-.16.19-.27a.16.16,0,0,0-.18-.17c-.12,0-.18,0-.2.18H18a.27.27,0,0,1,.27-.25.23.23,0,0,1,.25.24c0,.14,0,.18-.21.31a.78.78,0,0,0-.24.27h.49v.07Z"/><path class="cls-12" d="M19.23,114.85h-.38a2.36,2.36,0,0,1,0,.31.24.24,0,0,1,.2-.09.26.26,0,0,1,.26.29.29.29,0,0,1-.29.32.27.27,0,0,1-.27-.23h.07a.2.2,0,0,0,.21.16c.14,0,.2-.09.2-.25s-.05-.22-.19-.22a.2.2,0,0,0-.21.13l-.06,0a4.3,4.3,0,0,0,.07-.46h.44Z"/><path class="cls-12" d="M19.74,115.29v.06h-.33v-.06Z"/><path class="cls-12" d="M20.29,115.66v-.24h-.42v-.07l.42-.56h.07v.56h.12v.07h-.11v.24Zm0-.57a1.7,1.7,0,0,1,0-.22c0,.07-.25.34-.35.48h.34Z"/><path class="cls-12" d="M20.58,115.66h0a.56.56,0,0,1,.26-.38c.15-.12.19-.16.19-.27a.16.16,0,0,0-.18-.17c-.12,0-.18,0-.2.18h-.07a.27.27,0,0,1,.27-.25.23.23,0,0,1,.25.24c0,.14-.05.18-.21.31a.78.78,0,0,0-.24.27h.49v.07Z"/><path class="cls-12" d="M21.64,115.66v-.24h-.42v-.07l.41-.56h.07v.56h.12v.07H21.7v.24Zm0-.57v-.22c0,.07-.25.34-.35.48h.35Z"/><path class="cls-12" d="M22.27,115.29v.06h-.33v-.06Z"/><path class="cls-12" d="M22.59,115.66v-.79a.5.5,0,0,1-.19.1v-.06a.71.71,0,0,0,.21-.13h.05v.88Z"/><path class="cls-12" d="M23,115.66v-.79a.5.5,0,0,1-.19.1v-.06a.67.67,0,0,0,.2-.13h.06v.88Z"/><path class="cls-12" d="M23.31,115.66h0a.54.54,0,0,1,.27-.38c.15-.12.18-.16.18-.27a.16.16,0,0,0-.17-.17c-.12,0-.18,0-.21.18h-.06a.25.25,0,0,1,.27-.25.23.23,0,0,1,.25.24c0,.14-.06.18-.22.31s-.21.19-.23.27h.48v.07Z"/><path class="cls-12" d="M24.56,115.22c0,.2,0,.46-.28.46s-.28-.24-.28-.46.06-.45.28-.45S24.56,115,24.56,115.22Zm-.49,0c0,.17,0,.38.21.38s.21-.21.21-.39,0-.38-.2-.38S24.07,115,24.07,115.23Z"/><path class="cls-3" d="M6,118.55h.32c.18,0,.27.09.27.23a.2.2,0,0,1-.14.2.24.24,0,0,1,.17.23.27.27,0,0,1-.3.27H6Zm.29.4c.16,0,.23-.06.23-.17s-.07-.16-.2-.16H6.1V119Zm-.22.46h.26a.19.19,0,0,0,.22-.2c0-.12-.08-.2-.26-.2H6.1Z"/><path class="cls-3" d="M7.29,119.35a.45.45,0,0,0,0,.13H7.23a1,1,0,0,1,0-.11.22.22,0,0,1-.22.12.2.2,0,0,1-.22-.2c0-.14.12-.21.31-.21h.13V119c0-.06,0-.15-.17-.15a.15.15,0,0,0-.17.12H6.82c0-.07,0-.18.23-.18s.24.06.24.21Zm-.07-.21H7.09c-.14,0-.24,0-.24.15a.14.14,0,0,0,.16.14c.19,0,.21-.12.21-.27Z"/><path class="cls-3" d="M7.5,119v-.18h.07V119a.24.24,0,0,1,.23-.16v.07a.23.23,0,0,0-.23.26v.35H7.5Z"/><path class="cls-3" d="M7.93,118.5H8v.43a.22.22,0,0,1,.22-.13.29.29,0,0,1,.28.33c0,.21-.11.36-.29.36a.2.2,0,0,1-.21-.12v.11H7.93v-1Zm.5.63c0-.16-.09-.27-.21-.27S8,119,8,119.15s.06.28.22.28S8.43,119.32,8.43,119.13Z"/><path class="cls-3" d="M9.11,119.35c0,.06,0,.1,0,.13H9.06a.28.28,0,0,1,0-.11.23.23,0,0,1-.22.12.2.2,0,0,1-.22-.2c0-.14.11-.21.31-.21h.13V119c0-.06,0-.15-.17-.15s-.16.07-.17.12H8.64a.21.21,0,0,1,.24-.18c.15,0,.23.06.23.21Zm-.06-.21H8.92c-.15,0-.24,0-.24.15a.14.14,0,0,0,.15.14c.19,0,.22-.12.22-.27Z"/><path class="cls-3" d="M9.33,119v-.18h.06a.53.53,0,0,1,0,.15.24.24,0,0,1,.23-.16v.07a.23.23,0,0,0-.23.26v.35H9.33Z"/><path class="cls-3" d="M10.19,119.35c0,.06,0,.1,0,.13h-.06a.54.54,0,0,1,0-.11.21.21,0,0,1-.21.12.19.19,0,0,1-.22-.2c0-.14.11-.21.31-.21h.12V119c0-.06,0-.15-.17-.15s-.15.07-.16.12H9.72a.2.2,0,0,1,.23-.18c.16,0,.24.06.24.21Zm-.06-.21H10c-.15,0-.24,0-.24.15a.14.14,0,0,0,.15.14c.19,0,.22-.12.22-.27Z"/><path class="cls-3" d="M10.77,118.55h.56v.07h-.49V119h.46V119h-.46v.45h-.07Z"/><path class="cls-3" d="M11.39,119.48v-.17h.07v.17Z"/><path class="cls-3" d="M12.81,119.05c0-.18,0-.35,0-.45h0c0,.13-.22.58-.34.88H12.4c-.09-.23-.28-.74-.32-.88h0c0,.11,0,.32,0,.48v.4H12v-.93h.11c.13.32.29.73.32.84h0c0-.07.21-.53.34-.84h.1v.93h-.07Z"/><path class="cls-3" d="M13.13,119.15c0,.17.09.28.22.28a.2.2,0,0,0,.19-.12h.06a.24.24,0,0,1-.26.18c-.2,0-.28-.17-.28-.34s.1-.35.29-.35a.27.27,0,0,1,.27.3v.05Zm.42-.06a.2.2,0,0,0-.2-.23c-.14,0-.2.1-.21.23Z"/><path class="cls-3" d="M13.78,119v-.18h.06a.53.53,0,0,1,0,.15.24.24,0,0,1,.23-.16v.07a.23.23,0,0,0-.23.26v.35h-.07Z"/><path class="cls-3" d="M14.15,118.81h.12v-.2h.07v.2h.16v.07h-.16v.43c0,.07,0,.11.08.11h.07v.06h-.08a.12.12,0,0,1-.14-.14v-.46h-.12Z"/><path class="cls-3" d="M14.64,119.15c0,.17.09.28.21.28a.18.18,0,0,0,.19-.12h.07a.26.26,0,0,1-.26.18c-.2,0-.28-.17-.28-.34s.1-.35.29-.35a.27.27,0,0,1,.27.3v.05Zm.42-.06a.21.21,0,0,0-.2-.23c-.14,0-.2.1-.22.23Z"/><path class="cls-3" d="M15.3,119.29a.18.18,0,0,0,.19.14c.12,0,.17-.05.17-.13s0-.11-.18-.15-.22-.09-.22-.18.07-.17.22-.17a.21.21,0,0,1,.23.18h-.06a.16.16,0,0,0-.17-.12c-.12,0-.15.06-.15.11s0,.09.16.12.24.11.24.21-.1.19-.24.19a.22.22,0,0,1-.25-.2Z"/><path class="cls-3" d="M17,119.23a.33.33,0,0,1-.34.26.48.48,0,0,1,0-.95.32.32,0,0,1,.34.26h-.07a.27.27,0,0,0-.28-.2c-.23,0-.32.21-.32.41s.09.41.33.41a.27.27,0,0,0,.27-.19Z"/><path class="cls-3" d="M17.14,119.15c0,.17.09.28.22.28a.2.2,0,0,0,.19-.12h.06a.24.24,0,0,1-.26.18c-.2,0-.28-.17-.28-.34s.1-.35.29-.35a.27.27,0,0,1,.27.3v.05Zm.42-.06a.2.2,0,0,0-.2-.23c-.14,0-.2.1-.21.23Z"/><path class="cls-3" d="M17.79,119v-.17h.06a.62.62,0,0,1,0,.13.21.21,0,0,1,.22-.14c.11,0,.22.06.22.25v.43h-.07v-.42c0-.12-.05-.2-.16-.2s-.21.13-.21.28v.34h-.07Z"/><path class="cls-3" d="M18.41,118.81h.12v-.2h.07v.2h.16v.07H18.6v.43c0,.07,0,.11.08.11h.07v.06h-.08a.12.12,0,0,1-.14-.14v-.46h-.12Z"/><path class="cls-3" d="M18.9,119.15c0,.17.09.28.21.28a.18.18,0,0,0,.19-.12h.07a.26.26,0,0,1-.26.18c-.2,0-.28-.17-.28-.34s.1-.35.29-.35a.27.27,0,0,1,.27.3v.05Zm.42-.06a.2.2,0,0,0-.2-.23c-.14,0-.2.1-.22.23Z"/><path class="cls-3" d="M19.55,119v-.18h.06V119a.25.25,0,0,1,.23-.16v.07a.24.24,0,0,0-.23.26v.35h-.06Z"/><path class="cls-3" d="M20.34,119.48v-.6h-.12v-.07h.12v-.09c0-.11,0-.23.18-.23h.06v.06h-.07c-.08,0-.11.06-.11.17v.09h.15v.07H20.4v.6Z"/><path class="cls-3" d="M21.19,119.14c0,.19-.1.35-.3.35a.3.3,0,0,1-.29-.34c0-.19.1-.35.3-.35A.3.3,0,0,1,21.19,119.14Zm-.52,0c0,.15.08.28.22.28s.23-.12.23-.28-.08-.29-.23-.29S20.67,119,20.67,119.15Z"/><path class="cls-3" d="M21.35,119v-.18h.06a.53.53,0,0,1,0,.15.24.24,0,0,1,.23-.16v.07a.23.23,0,0,0-.23.26v.35h-.07Z"/><path class="cls-3" d="M22,118.81h.13v-.2h.06v.2h.16v.07h-.16v.43c0,.07,0,.11.08.11h.07v.06h-.08c-.09,0-.13,0-.13-.14v-.46H22Z"/><path class="cls-3" d="M22.57,118.5v.43a.22.22,0,0,1,.22-.13c.09,0,.22,0,.22.26v.42h-.07v-.41c0-.13-.06-.21-.17-.21s-.2.08-.2.25v.37H22.5v-1Z"/><path class="cls-3" d="M23.24,119.15c0,.17.09.28.21.28a.18.18,0,0,0,.19-.12h.07a.26.26,0,0,1-.26.18c-.2,0-.28-.17-.28-.34s.1-.35.29-.35a.27.27,0,0,1,.27.3v.05Zm.42-.06a.2.2,0,0,0-.2-.23c-.14,0-.2.1-.22.23Z"/><path class="cls-3" d="M24.35,119.16l-.12.32h-.07l.34-.93h.08l.36.93h-.08l-.12-.32Zm.36-.07-.17-.47h0c0,.07-.08.23-.17.47Z"/><path class="cls-3" d="M25.08,119v-.18h.06s0,.07,0,.15a.23.23,0,0,1,.23-.16v.07a.23.23,0,0,0-.23.26v.35h-.07Z"/><path class="cls-3" d="M25.45,118.81h.12v-.2h.07v.2h.16v.07h-.16v.43c0,.07,0,.11.08.11h.07v.06H25.7c-.08,0-.13,0-.13-.14v-.46h-.12Z"/><path class="cls-3" d="M26,119.29a.18.18,0,0,0,.19.14c.12,0,.17-.05.17-.13s0-.11-.18-.15-.22-.09-.22-.18.07-.17.22-.17a.21.21,0,0,1,.23.18H26.3a.17.17,0,0,0-.17-.12c-.12,0-.15.06-.15.11s0,.09.16.12.24.11.24.21-.1.19-.24.19a.22.22,0,0,1-.25-.2Z"/><path class="cls-3" d="M27.71,119.05v-.45h0c0,.13-.23.58-.35.88h-.07c-.08-.23-.28-.74-.32-.88h0c0,.11,0,.32,0,.48v.4H26.9v-.93H27c.13.32.29.73.32.84h0c0-.07.2-.53.33-.84h.11v.93h-.07Z"/><path class="cls-3" d="M28.45,119.35a.45.45,0,0,0,0,.13H28.4a.54.54,0,0,1,0-.11.21.21,0,0,1-.21.12.19.19,0,0,1-.22-.2c0-.14.11-.21.31-.21h.12V119c0-.06,0-.15-.17-.15s-.15.07-.16.12H28a.2.2,0,0,1,.23-.18c.16,0,.24.06.24.21Zm-.07-.21h-.12c-.15,0-.24,0-.24.15a.14.14,0,0,0,.15.14c.19,0,.21-.12.21-.27Z"/><path class="cls-3" d="M28.67,118.5h.06v.13h-.06Zm0,.31h.06v.67h-.06Z"/><path class="cls-3" d="M29,119v-.17H29a.62.62,0,0,1,0,.13.21.21,0,0,1,.22-.14c.11,0,.22.06.22.25v.43h-.07v-.42c0-.12-.05-.2-.16-.2s-.21.13-.21.28v.34H29Z"/><path class="cls-3" d="M30.05,119.23a.23.23,0,0,0,.26.19c.17,0,.23-.08.23-.18s0-.17-.25-.22-.28-.11-.28-.25.09-.23.29-.23a.27.27,0,0,1,.3.23h-.07a.22.22,0,0,0-.24-.17c-.13,0-.2.07-.2.17s.06.14.23.18.3.17.3.28-.1.26-.31.26a.3.3,0,0,1-.34-.26Z"/><path class="cls-3" d="M30.7,118.81h.12v-.2h.07v.2h.16v.07h-.16v.43c0,.07,0,.11.08.11H31v.06H31c-.08,0-.13,0-.13-.14v-.46H30.7Z"/><path class="cls-3" d="M31.63,119.35c0,.06,0,.1,0,.13h-.06a.28.28,0,0,1,0-.11.23.23,0,0,1-.22.12.2.2,0,0,1-.22-.2c0-.14.11-.21.31-.21h.13V119c0-.06,0-.15-.17-.15s-.16.07-.17.12h-.07a.21.21,0,0,1,.24-.18c.15,0,.23.06.23.21Zm-.06-.21h-.13c-.15,0-.24,0-.24.15a.14.14,0,0,0,.15.14c.19,0,.22-.12.22-.27Z"/><path class="cls-3" d="M32.36,119.43c0,.21-.1.32-.29.32a.23.23,0,0,1-.26-.19h.07a.18.18,0,0,0,.19.13c.18,0,.22-.11.22-.28v-.07a.2.2,0,0,1-.22.14.29.29,0,0,1-.27-.33c0-.23.13-.35.28-.35s.19.06.21.12,0-.09,0-.11h.06v.62Zm-.49-.29c0,.16.08.27.21.27s.21-.11.21-.28,0-.27-.21-.27S31.87,119,31.87,119.14Z"/><path class="cls-3" d="M32.59,119.15c0,.17.08.28.21.28a.18.18,0,0,0,.19-.12h.07a.26.26,0,0,1-.26.18c-.2,0-.28-.17-.28-.34s.09-.35.29-.35a.27.27,0,0,1,.27.3.07.07,0,0,1,0,.05Zm.42-.06a.21.21,0,0,0-.21-.23c-.13,0-.19.1-.21.23Z"/><path class="cls-3" d="M6,120.48a.24.24,0,0,1,.25-.21.22.22,0,0,1,.25.22.18.18,0,0,1-.12.18h0a.2.2,0,0,1,.16.22.26.26,0,0,1-.29.27.26.26,0,0,1-.28-.23H6a.21.21,0,0,0,.22.17.19.19,0,0,0,.2-.21c0-.13-.09-.19-.22-.19h0v-.06h0c.14,0,.2-.06.2-.16s-.07-.15-.18-.15a.17.17,0,0,0-.18.14Z"/><path class="cls-3" d="M7.25,120.72c0,.2,0,.45-.29.45s-.28-.23-.28-.45.06-.45.29-.45S7.25,120.51,7.25,120.72Zm-.5,0c0,.17,0,.39.21.39s.21-.21.21-.39,0-.38-.2-.38S6.75,120.53,6.75,120.72Z"/><path class="cls-3" d="M8,120.72c0,.2,0,.45-.29.45s-.28-.23-.28-.45.06-.45.29-.45S8,120.51,8,120.72Zm-.5,0c0,.17,0,.39.21.39s.22-.21.22-.39,0-.38-.21-.38S7.46,120.53,7.46,120.72Z"/><path class="cls-3" d="M8.67,120.72c0,.2-.05.45-.29.45s-.28-.23-.28-.45.06-.45.29-.45S8.67,120.51,8.67,120.72Zm-.49,0c0,.17,0,.39.2.39s.22-.21.22-.39,0-.38-.21-.38S8.18,120.53,8.18,120.72Z"/><path class="cls-3" d="M9.91,120.91a.33.33,0,0,1-.35.26c-.26,0-.4-.21-.4-.47a.43.43,0,0,1,.41-.48.32.32,0,0,1,.34.26H9.84a.26.26,0,0,0-.28-.19c-.23,0-.32.21-.32.41s.09.4.33.4a.27.27,0,0,0,.27-.19Z"/><path class="cls-3" d="M10.53,121c0,.06,0,.11,0,.13h-.06a.25.25,0,0,1,0-.1.26.26,0,0,1-.22.11A.19.19,0,0,1,10,121c0-.15.11-.22.31-.22h.13v-.06c0-.07,0-.16-.18-.16s-.15.07-.16.13h-.07c0-.08,0-.19.24-.19s.23.06.23.21Zm-.06-.21h-.13c-.15,0-.24,0-.24.15a.13.13,0,0,0,.15.14c.19,0,.22-.12.22-.27Z"/><path class="cls-3" d="M10.75,120.67v-.17h.06s0,.08,0,.11a.19.19,0,0,1,.19-.13.18.18,0,0,1,.19.13.23.23,0,0,1,.22-.13c.1,0,.21.06.21.24v.44h-.07v-.43c0-.09,0-.18-.15-.18s-.19.1-.19.23v.38h-.06v-.43c0-.09,0-.18-.15-.18s-.19.11-.19.24v.37h-.07Z"/><path class="cls-3" d="M11.91,121.06v.36h-.07v-.92h.07v.12a.24.24,0,0,1,.23-.14c.16,0,.27.13.27.33s-.13.36-.29.36A.21.21,0,0,1,11.91,121.06Zm.43-.25c0-.15-.08-.27-.21-.27s-.22.1-.22.28.05.29.21.29S12.34,121,12.34,120.81Z"/><path class="cls-3" d="M13.07,121v.2H13a.35.35,0,0,1,0-.12.2.2,0,0,1-.21.13c-.1,0-.22,0-.22-.24v-.43h.07v.42c0,.09,0,.19.16.19s.2-.08.2-.27v-.34h.07Z"/><path class="cls-3" d="M13.28,121a.17.17,0,0,0,.18.13c.12,0,.17,0,.17-.13s0-.11-.18-.14-.21-.1-.21-.18a.19.19,0,0,1,.21-.18.22.22,0,0,1,.24.19h-.07a.16.16,0,0,0-.17-.13c-.11,0-.15.06-.15.11s0,.09.17.12.23.11.23.21-.1.19-.24.19a.23.23,0,0,1-.25-.19Z"/><path class="cls-3" d="M14.23,120.23h.07v.41h.55v-.41h.08v.93h-.08v-.46H14.3v.46h-.07Z"/><path class="cls-3" d="M15.16,120.18h.06v.13h-.06Zm0,.32h.06v.66h-.06Z"/><path class="cls-3" d="M15.44,121.16v-1h.07v1Z"/><path class="cls-3" d="M15.72,121.16v-1h.07v1Z"/><path class="cls-3" d="M16.37,120.23h.31a.42.42,0,0,1,.43.46.44.44,0,0,1-.43.47h-.31Zm.07.86h.22a.4.4,0,0,0,0-.79h-.22Z"/><path class="cls-3" d="M17.29,120.68v-.18h.06v.14a.28.28,0,0,1,.23-.16v.07a.25.25,0,0,0-.23.26v.35h-.06Z"/><path class="cls-3" d="M17.71,120.18h.06v.13h-.06Zm0,.32h.06v.66h-.06Z"/><path class="cls-3" d="M18,120.5c.11.3.18.51.2.59h0s.08-.25.21-.59h.07l-.25.66h-.08l-.23-.66Z"/><path class="cls-3" d="M18.62,120.84c0,.17.08.27.21.27A.19.19,0,0,0,19,121h.07a.26.26,0,0,1-.26.18c-.2,0-.28-.17-.28-.34s.09-.35.29-.35a.27.27,0,0,1,.26.3v.06Zm.42-.06c0-.13-.08-.24-.21-.24s-.2.1-.21.24Z"/><path class="cls-3" d="M19.19,121.31a1.13,1.13,0,0,0,.09-.32h.06a.8.8,0,0,1-.09.32Z"/><path class="cls-3" d="M19.88,120.23H20v.86h.5v.07h-.56Z"/><path class="cls-3" d="M20.6,120.18h.07v.13H20.6Zm0,.32h.07v.66H20.6Z"/><path class="cls-3" d="M20.88,120.5c.1.3.18.51.2.59h0l.22-.59h.07l-.25.66H21l-.23-.66Z"/><path class="cls-3" d="M21.51,120.84c0,.17.09.27.22.27a.19.19,0,0,0,.19-.12H22a.26.26,0,0,1-.26.18c-.2,0-.28-.17-.28-.34s.09-.35.28-.35a.27.27,0,0,1,.27.3v.06Zm.42-.06c0-.13-.07-.24-.2-.24s-.2.1-.21.24Z"/><path class="cls-3" d="M22.16,120.68v-.18h.07v.14a.27.27,0,0,1,.23-.16v.07a.24.24,0,0,0-.23.26v.35h-.07Z"/><path class="cls-3" d="M22.58,120.67v-.17h.06v.11a.22.22,0,0,1,.2-.13.19.19,0,0,1,.19.13.23.23,0,0,1,.22-.13c.1,0,.21.06.21.24v.44h-.07v-.43c0-.09,0-.18-.15-.18s-.19.1-.19.23v.38H23v-.43c0-.09,0-.18-.15-.18s-.19.11-.19.24v.37h-.06Z"/><path class="cls-3" d="M24.21,120.83a.31.31,0,0,1-.3.34c-.18,0-.29-.14-.29-.34s.1-.35.3-.35S24.21,120.62,24.21,120.83Zm-.52,0c0,.15.08.28.22.28s.23-.12.23-.28-.08-.29-.23-.29S23.69,120.67,23.69,120.83Z"/><path class="cls-3" d="M24.37,120.68v-.18h.07v.14a.27.27,0,0,1,.23-.16v.07a.24.24,0,0,0-.23.26v.35h-.07Z"/><path class="cls-3" d="M24.8,120.84c0,.17.09.27.22.27a.2.2,0,0,0,.19-.12h.07a.26.26,0,0,1-.26.18c-.21,0-.28-.17-.28-.34s.09-.35.28-.35a.27.27,0,0,1,.27.3v.06Zm.42-.06c0-.13-.07-.24-.2-.24s-.2.1-.21.24Z"/><path class="cls-3" d="M25.37,121.31a.93.93,0,0,0,.1-.32h.06a.8.8,0,0,1-.1.32Z"/><path class="cls-3" d="M26.77,120.91a.35.35,0,0,1-.35.26.42.42,0,0,1-.41-.47.43.43,0,0,1,.41-.48.33.33,0,0,1,.35.26H26.7a.27.27,0,0,0-.28-.19c-.23,0-.33.21-.33.41s.09.4.33.4a.27.27,0,0,0,.27-.19Z"/><path class="cls-3" d="M27.05,120.84l-.12.32h-.07l.34-.93h.08l.36.93h-.08l-.12-.32Zm.37-.07c-.11-.27-.16-.41-.18-.47h0c0,.07-.08.24-.16.47Z"/><path class="cls-3" d="M28.17,121a.16.16,0,0,0,.17.13c.2,0,.22-.28.22-.4a.21.21,0,0,1-.22.12.25.25,0,0,1-.26-.27.27.27,0,0,1,.27-.29c.2,0,.28.16.28.4s0,.5-.29.5a.24.24,0,0,1-.25-.19Zm0-.42a.19.19,0,0,0,.19.21.19.19,0,0,0,.21-.21.2.2,0,0,0-.2-.22C28.21,120.34,28.15,120.43,28.15,120.56Z"/><path class="cls-3" d="M29.17,121.16v-.25h-.42v-.06l.42-.56h.07v.56h.12v.06h-.11v.25Zm0-.57a1.7,1.7,0,0,1,0-.22c0,.07-.25.34-.35.48h.34Z"/><path class="cls-3" d="M30,120.35h-.37c0,.09,0,.25-.05.31a.24.24,0,0,1,.2-.09.26.26,0,0,1,.26.29.28.28,0,0,1-.28.31.26.26,0,0,1-.28-.22h.07a.21.21,0,0,0,.21.16c.14,0,.21-.1.21-.25s-.06-.22-.19-.22a.19.19,0,0,0-.21.13l-.07,0a4.3,4.3,0,0,0,.07-.46H30Z"/><path class="cls-3" d="M30.71,120.35h-.37c0,.09,0,.25-.05.31a.24.24,0,0,1,.2-.09.26.26,0,0,1,.26.29.28.28,0,0,1-.29.31.26.26,0,0,1-.27-.22h.07a.2.2,0,0,0,.21.16c.14,0,.2-.1.2-.25s-.05-.22-.19-.22a.2.2,0,0,0-.21.13l-.06,0a4.3,4.3,0,0,0,.07-.46h.44Z"/><path class="cls-3" d="M31.06,121.16v-.79a.62.62,0,0,1-.2.1v-.06a.71.71,0,0,0,.21-.13h.06v.88Z"/></g></g></svg>