<?xml version="1.0" encoding="UTF-8"?><svg id="Layer_2" xmlns="http://www.w3.org/2000/svg" width="536.96" height="96.47" viewBox="0 0 536.96 96.47"><defs><style>.cls-1{stroke-width:3.64px;}.cls-1,.cls-2,.cls-3,.cls-4{fill:none;stroke-linecap:round;stroke-miterlimit:10;}.cls-1,.cls-2,.cls-4{stroke:#f4e5ca;}.cls-5{fill:#f4e5ca;}.cls-2{stroke-width:2px;}.cls-3{stroke:#000;stroke-width:1.93px;}.cls-4{stroke-width:1.73px;}</style></defs><g id="Layer_1-2"><g><g><g><path d="M336.9,45.02c-.63-.17-1.27-.24-1.93-.15-1.09,.15-1.66,.87-2.64,1.25-1.15,.44-2.44,.25-3.63,.46-1.06,.18-1.84,.89-2.84,1.25-1.11,.41-2.33,.53-3.42-.01-.75-.37-1.11-.92-1.68-1.48-.28-.29-.61-.47-.93-.72-.95-.74-1.69-1.73-2.47-2.63-.71-.81-1.45-1.52-2.3-2.18-1.04-.79-1.92-1.77-2.97-2.54-2.12-1.57-4.61-2.49-6.75-3.99-.04-.03-.07-.05-.11-.08,.82-1,1.73-1.72,2.99-2.39,1.37-.72,2.53-1.61,3.35-2.95,.41-.66,.37-1.32,.65-2.02,.27-.67,.99-1.8,1.58-2.22,1.02-.72,2.31,.02,3.34,.37,1.56,.55,4.32,.31,5.23,1.93,.73,1.27,.66,2.71,1.77,3.81,.77,.75,1.76,1.05,2.76,1.36,3.4,1.06,2.74,4.76,4.04,7.43,.64,1.32,1.7,1.87,2.81,2.71,1.12,.85,2.04,1.93,3.15,2.79Z"/><path d="M535,69.19c-.3-.56-.22-1.25-.18-1.85,.07-1.11-.52-1.18-1.39-1.45-3.68-1.17-7.23-2.76-10.64-4.58-1.76-.94-3.49-1.94-5.19-2.98-1.72-1.05-3.37-2.35-5.19-3.2-1.65-.76-3.39-1.3-5-2.14-1.48-.78-2.65-1.92-4.24-2.47-1.21-.41-2.53-.41-3.72-.85-1.76-.64-3.06-2.29-4.21-3.68-.66-.78-1.25-1.78-2.12-2.33-.6-.38-1.23-.67-1.8-1.12-.94-.73-1.73-1.62-2.4-2.61-1.13-1.69-1.61-3.71-2.73-5.39-.43-.65-.78-.86-1.53-.65-1.16,.33-2.2,.48-3.41,.26-2.42-.45-4.53-1.96-6.63-3.17-2.15-1.24-4.72-2.58-6.98-.91-1.34,.98-2.73,1.38-4.38,1.5-.87,.07-1.75,.07-2.61,.22-.85,.15-1.5,.66-2.24,1.07-2.3,1.24-5.04,1.87-7.5,.72-1.47-.69-2.19-1.89-3.35-2.92-1.16-1.03-2.27-1.95-3.29-3.16-1.01-1.22-1.97-2.49-3.12-3.59-.58-.56-1.29-.95-1.87-1.5-.66-.63-1.25-1.32-1.93-1.94-1.42-1.28-3-2.38-4.64-3.36-1.56-.94-3.26-1.68-4.79-2.66-3.3-2.1-6.06-4.94-9.33-7.07-.54-.35-.95-.81-1.5-1.15-.41-.26-.84-.48-1.23-.77-.44-.33-.83-.72-1.1-1.2-.28-.48-.28-1.05-.5-1.54-.64-1.42-2.98-2.4-4.41-2.63-1.53-.24-3.1,.05-4.56,.52-1.56,.5-3.03,1.21-4.49,1.94-.73,.38-1.5,.73-2.21,1.15-.63,.37-1.09,.96-1.79,1.23-.57,.23-1.19,.24-1.74-.06-.33-.18-.48-.41-.89-.42-.92-.04-1.86,.87-2.47,1.45-1.84,1.73-3.29,3.84-4.89,5.78-1.85,2.22-4.15,3.99-6.43,5.73-1.6,1.23-3.21,2.44-4.71,3.79-1.25,1.13-2.33,2.43-3.65,3.49-2.14,1.7-4.47,3.17-5.95,5.54-.89,1.42-1.13,3.16-2.26,4.4-.87,.96-2.03,1.53-3.29,1.75-1.26,.22-2.54,.13-3.81,.2-1.45,.08-2.98,.59-4.29,1.19-3.32,1.5-5.96,4.19-8.78,6.42-1.06,.83-2.2,1.95-3.61,2.04-.13,.01-.26,.01-.39,0,1.53,.85,3.27,2.14,5.1,2,1.33-.09,2.22-.73,3.23,.51,.87,1.04,1.21,2.47,1.94,3.61,.55,.87,1.28,1.61,2.18,2.13,.57,.33,.92,.43,1.37,.93,.36,.41,.7,.85,1.06,1.26,.8,.9,1.64,1.95,2.87,2.2,1.18,.25,2.34,.38,3.44,.96,.68,.36,1.25,.9,1.94,1.25,.55,.28,1.13,.5,1.7,.72,1.1,.42,2.09,.85,3.09,1.43,.11-.13,.21-.25,.33-.36,.45-.42,1.01-.61,1.53-.93,1.28-.77,2.07-2.2,3.5-2.81,1.06-.46,2.11-.56,2.78-1.58,.31-.48,.62-.9,1.12-1.23,1.19-.81,2.52-.2,3.81-.03,.93,.13,2.13,.07,2.88,.75,.5,.44,.58,1.17,1.17,1.51,.58,.32,1.35,.28,1.97,.5,1.41,.49,1.43,1.58,2.1,2.71,.44,.74,1.46,.94,2.18,1.34,.69,.4,1.42,.96,2.24,1.01,1.05,.07,2.16-.69,3.06-1.16,.73-.38,1.46-.76,2.21-1.1,1.44-.66,2.97-1.15,4.55-1.31,1.69-.17,3.6,.34,4.75-1.2,.86-1.17,1.88-1.89,3.18-2.52,1.51-.73,2.89-1.62,4.37-2.38,1.66-.87,3.42-1.56,5.02-2.54,1.14-.69,2.11-1.62,3.2-2.37,.86-.59,1.92-1.23,3.01-1.09,.21,.02,.43,.16,.63,.18,.46,.03,.7-.18,1.11-.34,.76-.31,1.58-.52,2.37-.75,1.59-.47,3.27-.88,4.95-.77,1.24,.09,2.95,.48,3.76,1.51,.35,.43,.37,.57,.89,.78,.25,.1,.5,.2,.75,.31,.79,.36,1.58,.71,2.36,1.1,1.84,.9,3.62,1.75,5.57,2.42,1.86,.64,3.51,1.47,5.22,2.43,1.43,.81,2.67,1.86,4.08,2.67,1.53,.88,2.88,1.8,4.73,1.59,.95-.1,1.74-.5,2.64-.75,.78-.22,1.64-.16,2.44-.2,1.74-.09,3.08-1.05,4.87-.8,1.51,.21,2.89,.88,4.32,1.34,.77,.26,1.57,.48,2.39,.48,.62,0,1.22-.24,1.83-.18,.77,.08,1.25,.57,1.7,1.16,.75,1,1.4,1.84,2.6,2.35,.36,.16,.78,.22,1.13,.4,.42,.22,.79,.63,1.18,.91,.46,.35,.95,.72,1.49,.96,.66,.31,1.37,.31,2.09,.41,1.62,.23,3,1,4.57,1.41,3.47,.9,6.74,2.39,10.16,3.42h.01c.38,.01,.77,.02,1.15,.06,.93,.1,1.82,.36,2.74,.47,1.93,.25,3.88,.2,5.81,.15,1.92-.04,3.84-.12,5.76-.02,1.83,.09,3.55,.37,5.39,.25,3.25-.21,6.5-.69,9.75-.62-.67-.49-1.54-.8-1.96-1.58Zm-100.34-37.33c-.11,.17-.29,.26-.48,.26-.11,0-.22-.03-.32-.1-3.92-2.63-7.44-5.66-10.46-9.01-1.47-1.63-2.96-3.09-4.91-3.01-.32,.01-.63,.06-.94,.11-.45,.08-.9,.15-1.39,.13-1.64-.06-2.84-1.13-3.42-2.11-.57-.96-.75-2-.92-3.01l-.05-.27c-.08-.49-.18-.92-.47-1.21-.5-.5-1.51-.55-2.29-.37-.58,.13-1.12,.35-1.69,.59-.34,.14-.69,.28-1.04,.41-2.16,.75-4.63,.75-6.79,.01-.31-.1-.47-.43-.36-.73,.1-.3,.43-.46,.73-.36,1.89,.65,4.15,.64,6.04-.01,.33-.12,.66-.25,.98-.39,.59-.24,1.2-.5,1.88-.65,1.05-.23,2.49-.18,3.35,.68,.53,.53,.69,1.19,.8,1.83l.05,.28c.16,.94,.31,1.83,.77,2.61,.41,.69,1.3,1.51,2.47,1.55,.37,.02,.76-.05,1.16-.11,.35-.06,.71-.12,1.09-.13,2.66-.09,4.55,2,5.8,3.39,2.96,3.27,6.41,6.24,10.25,8.82,.27,.18,.34,.54,.16,.8Zm45.96,10.68s-.1,.02-.15,.02c-.25,0-.49-.17-.56-.42l-1.09-3.87c-.07-.24-.12-.3-.15-.31-.07-.03-.26,0-.4,.03-2.03,.34-4.1-.56-4.92-2.07-.12-.21-.19-.35-.25-.38-.09-.03-.32,.03-.49,.08-1.65,.43-3.41,.54-5.12,.33-.31-.04-.54-.33-.5-.64,.04-.32,.33-.54,.65-.5,1.55,.19,3.17,.09,4.67-.31,.32-.08,.75-.2,1.18-.04,.48,.17,.69,.57,.83,.84,.62,1.13,2.24,1.8,3.66,1.57,.38-.07,.73-.13,1.1,.01,.61,.23,.77,.82,.84,1.07l1.1,3.87c.09,.31-.09,.63-.4,.72Z"/></g><g><path d="M207.36,74.96s-.06,.01-.08,.02c-.69,.17-1.28,.15-1.91,.03,.66-.02,1.33-.04,1.99-.05Z"/><path d="M295.49,73.47h-1.03c-.07,0-.14,0-.21-.01,.26,0,.51,0,.77-.02h.09c.13,.01,.26,.03,.38,.03Z"/><path d="M305.89,73.48h-.87c.27-.02,.54-.04,.81-.07,.02,.02,.04,.04,.06,.07Z"/><path d="M366.79,64.42c-.08,.13-.16,.25-.25,.36-.51,.65-.9,1.14-1.69,1.44-.6,.23-1.27,.37-1.81,.75-.6,.43-.98,1.1-1.52,1.6-.55,.51-1.13,.99-1.69,1.48t-.02,.02c-.25,.22-.44,.46-.59,.71-.16,.23-.28,.48-.4,.74-.08,.17-.16,.34-.24,.52-.25,.53-.49,1.06-.74,1.59-2.66-.22-5.31-.56-8-.63-1.42-.03-2.85-.04-4.27-.03-1.75,.01-3.35,.34-5.07,.55-3.08,.38-6.22,.27-9.31,.02-.24-.02-.48-.04-.72-.05,.08-.16,.09-.35-.03-.54-.47-.77-1.18-1.07-1.98-1.41-.21-.09-.37-.17-.49-.25-.24-.15-.32-.32-.34-.68,0-.09,0-.19,0-.31,0-.14,0-.28-.03-.41-.03-.21-.09-.4-.22-.58-.59-.8-2.03-.77-2.91-.96-1.62-.35-3.24-.76-4.83-1.22-3.02-.87-5.99-1.9-8.91-3.04-2.92-1.14-5.71-2.4-8.75-3.19-1.44-.37-2.89-.76-4.24-1.41-1.06-.52-2.09-.87-3.27-1.09-1.12-.22-2.31-.18-3.4-.5-.84-.25-1.62-.69-2.36-1.22-.2-.13-.4-.28-.59-.44-.19-.14-.38-.3-.57-.45-.45-.37-.89-.75-1.32-1.1-.87-.73-2.04-.87-3.04-1.42-.89-.5-1.67-1.14-2.34-1.91-.84-.98-1.39-2.27-2.38-3.12-1.27-1.09-2.52-.47-4.01-.37-3.77,.24-7.06-2.13-10.64-2.98,.78-.63,1.62-1.2,2.42-1.82,.87-.67,1.59-1.49,2.41-2.21,1.12-.97,2.32-1.83,3.52-2.7,1.57-1.15,3.15-2.32,4.44-3.78,1.2-1.37,2.26-2.89,3.63-4.08,.39-.35,1.07-.96,1.65-.83,.24,.06,.39,.28,.62,.36,.46,.17,.99,.05,1.4-.16,.95-.47,1.82-1.12,2.8-1.59,1.06-.51,2.15-1,3.29-1.32,1.06-.29,2.17-.44,3.25-.18,.56,.13,1.08,.36,1.56,.68,.78,.52,.89,.87,1.24,1.64,.28,.64,.76,1.07,1.35,1.43,.77,.49,1.48,1,2.24,1.5,1.24,.82,2.39,1.8,3.57,2.71,.2,.15,.39,.3,.59,.44,.2,.15,.39,.3,.59,.43,.59,.42,1.2,.81,1.84,1.14,2.33,1.21,4.66,2.39,6.6,4.21,.82,.77,1.73,1.41,2.52,2.2,.78,.77,1.45,1.65,2.19,2.46,.68,.75,1.52,1.29,2.23,1.99,.76,.76,1.38,1.47,2.41,1.88,1.83,.73,3.81,.23,5.48-.67,1.1-.6,2.03-.66,3.26-.76,1.13-.09,2.07-.37,3.03-.97,1.81-1.14,3.48-.22,5.18,.73,1.48,.84,3,1.81,4.73,2.03,.85,.11,1.47-.17,2.28-.24,.54-.05,.69,.16,.97,.65,.75,1.27,1.18,2.66,2.12,3.83,.52,.66,1.14,1.23,1.85,1.68,.46,.3,.96,.49,1.35,.87,.51,.5,.93,1.12,1.41,1.64,.78,.86,1.67,1.78,2.82,2.12,.99,.29,2,.3,2.97,.7,1.11,.46,2.04,1.3,3.16,1.79,1.11,.49,2.32,.81,3.39,1.39,.21,.11,.41,.22,.62,.34Z"/><path class="cls-5" d="M305.83,73.41c-.27,.03-.54,.05-.81,.07h.87s-.04-.05-.06-.07Zm12.44-.42c-.79-.03-1.57-.03-2.35,0,.91,.04,1.81,.07,2.74,.03,.26,0,.53-.02,.79-.03-.39-.02-.79-.02-1.18,0Z"/></g></g><path d="M305.89,73.48h-.87c.27-.02,.54-.04,.81-.07,.02,.02,.04,.04,.06,.07Z"/><path d="M318.27,72.99c-.79-.03-1.57-.03-2.35,0,.91,.04,1.81,.07,2.74,.03,.26,0,.53-.02,.79-.03-.39-.02-.79-.02-1.18,0Z"/><path d="M326.86,72.03c-.21-.17-.31-.38-.36-.61-.06-.22-.07-.45-.09-.67-.03-.29-.08-.56-.29-.75-.05-.07-.12-.12-.21-.16-.59-.29-1.59-.31-2.23-.45-.78-.18-1.55-.36-2.32-.56-1.37-.36-2.73-.75-4.08-1.17-3-.94-5.95-2.04-8.87-3.23-1.46-.59-2.91-1.29-4.41-1.76-1.33-.41-2.7-.69-4.04-1.09-2.21-.66-4.16-1.82-6.48-2.16-1.07-.15-2.17-.15-3.2-.54-.79-.3-1.5-.74-2.18-1.23-.2-.14-.39-.29-.59-.44-.19-.15-.38-.3-.57-.46-.4-.31-.79-.63-1.19-.93-1-.74-2.23-.99-3.31-1.61-.7-.41-1.35-.9-1.92-1.47-1.01-1-1.6-2.29-2.55-3.32-1.19-1.29-3.01-.28-4.55-.38-2.25-.14-4.37-1.02-6.45-1.82-1.35-.52-2.78-1.09-4.24-1.33-.3-.05-.61-.08-.91-.09-.31-.03-.6-.03-.9,0-.25,.01-.49,.04-.73,.09-1.38,.26-2.52,1.07-3.96,1.28-1.31,.18-2.64,.12-3.96,.24-1.4,.14-2.65,.84-4,1.19-1.13,.29-2.31,.45-3.48,.4-1.08-.04-2.16-.26-3.15-.7-.98-.42-1.72-1.14-2.64-1.65-2.32-1.29-4.2-3.15-6.49-4.48-.65-.38-1.33-.64-1.96-1.07-.56-.39-1.13-.75-1.72-1.09-1.37-.79-2.82-1.45-4.29-2.03-2.65-1.05-5.31-1.86-7.85-3.17-1.42-.73-2.82-1.51-4.25-2.22-1.18-.59-2.41-.89-3.62-1.39-2.95-1.23-5.45-3.22-8.74-3.6-1.58-.18-3.18-.08-4.77,.03-1.66,.13-3.14,.36-4.6,1.2-1.23,.72-2.37,1.59-3.68,2.16-1.12,.49-2.3,.79-3.47,1.14-2.9,.88-5.44,2.45-8.05,3.95-2.6,1.48-5.35,2.68-7.96,4.15-1.25,.7-2.38,1.57-3.62,2.27-.93,.52-1.9,.97-2.85,1.45-1.11,.55-2.22,1.14-3.16,1.95-.9,.77-1.34,1.69-2,2.64-1.16,1.69-3.68,1.94-5.54,1.99-1.22,.03-2.46-.05-3.67,.15-1.31,.21-2.67,.65-3.95,1.03-3.16,.95-5.96,2.95-8.91,4.38-1.1,.52-1.96,.74-3.18,.5-1.3-.26-2.36-.91-3.54-1.47-.98-.48-2.07-.88-2.7-1.84-.38-.59-.51-1.25-1-1.79-.41-.46-.92-.81-1.33-1.27-.97-1.07-1.48-2.55-3.04-2.9-1.27-.29-2.52,.29-3.78-.24-1.22-.52-1.8-1.7-2.71-2.6-1.22-1.19-2.45-1.23-4.03-1.51-1.36-.24-2.88-.77-4.08,.27-1.02,.88-.87,1.75-1.1,2.96-.21,1.07-.99,1.21-1.95,1.47-.89,.24-1.23,.56-1.85,1.26-.36,.42-.75,.73-1.24,.99-1.27,.69-2.62,1.16-3.96,1.65-1.08,.4-1.98,1.24-2.98,1.81-1.27,.72-2.03,1.89-2.76,3.09,2.47,1.2,4.7,2.86,7,4.33,1.65,1.05,3.45,.56,5.16,.02,.73-.23,1.41-.27,2.18-.3,1.05-.05,1.8-.28,2.79-.62,2.63-.88,5.11,.99,7.62,1.46,1.09,.2,2.34-.4,3.35,.11,.58,.29,.91,.9,1.28,1.4,.38,.51,.8,.97,1.33,1.32,.59,.39,1.27,.48,1.87,.79,1.04,.55,1.77,1.58,2.94,1.94,.63,.2,1.31,.17,1.96,.29,1.45,.25,2.73,.96,4.16,1.33,2.22,.56,4.34,1.4,6.49,2.19,1.94,.03,3.9,.4,5.81,.67,3.39,.47,6.72,.71,10.09,.7h.01c.18-.13,.35-.25,.5-.37,.87-.67,1.75-1.32,2.63-1.98,.87-.64,1.74-1.29,2.6-1.96,.3-.23,.59-.49,.89-.75,.78-.68,1.58-1.39,2.69-1.9,1.05-.48,2.26-.8,3.44-1.1,1.22-.33,2.49-.66,3.47-1.16,1.1-.56,1.91-1.27,2.78-2.03,1.25-1.09,2.54-2.23,4.72-2.85,.39-.1,.8-.18,1.2-.26,.63-.13,1.22-.24,1.66-.45,.49-.24,.72-.63,.99-1.07,.2-.32,.4-.65,.7-.94,.72-.71,1.73-.93,2.62-1.13,.19-.04,.38-.08,.55-.12l.46-.12c1.17-.3,2.38-.61,3.62-.5,.71,.06,1.41,.27,1.94,.45,.25,.08,.49,.2,.72,.31,.41,.2,.66,.32,.97,.27,.02,0,.1-.05,.16-.07,.15-.09,.36-.2,.62-.23,.3-.03,.66,.03,.91,.14,.4,.18,.71,.46,1.02,.73,.24,.21,.46,.41,.68,.52,.43,.21,.89,.35,1.38,.51,.25,.08,.49,.16,.73,.24,1.5,.53,3.04,.93,4.59,1.19,1.49-.62,2.82-1.33,3.93-2.12l.22-.16,.27,.05c.94,.19,1.91,.33,2.85,.46,.93,.14,1.88,.27,2.83,.46,.03,.01,.05,.01,.08,.02,.24,.04,.47,.09,.71,.15,.25,.04,.5,.1,.75,.15,.41,.09,.83,.19,1.24,.28,.95,.22,1.9,.44,2.86,.62l.16,.03,.12,.1c1.84,1.51,3.98,2.8,6.23,3.77,1.27-1.09,3.69-1.7,5.58-2.04,1.14-.2,2.29-.36,3.44-.53,1.14-.16,2.28-.32,3.42-.52,.88-.16,1.68-.36,2.31-.6,.65-.24,1.16-.58,1.65-.95,.2-.15,.39-.31,.59-.47,0,0,.02-.01,.03-.02,.17-.14,.35-.29,.53-.43,.93-.71,1.99-1.35,3.73-1.42h.26s.19,.16,.19,.16c.03,.03,.06,.06,.1,.08,.18,.14,.42,.26,.71,.37,.26,.08,.55,.15,.88,.21,.4,.07,.85,.12,1.33,.14,1.22-.53,2.04-1.16,2.36-1.82l.13-.27,.28-.07c2.86-.7,6.31-.61,8.79,.23,2.37,.8,3.96,2.37,4.18,4.04,1.92,.2,4.12-.21,5.1-.99l.23-.18,.28,.05c2.91,.58,5.33,1.47,7.2,2.66,.67,.42,1.3,.74,2.18,.95,.56,.13,1.18,.27,1.76,.39,1,.19,1.78,.6,2.45,.98,.03,.01,.07,.03,.1,.05h.01s.04,.02,.04,.02c.14,.08,.28,.16,.42,.23,.24,.13,.47,.26,.69,.38,1.37,.76,2.54,1.44,3.58,2.06l.28,.17c1.71,1.03,3.32,2,4.19,3.17,.21,.29,.36,.56,.5,.81,.32,.6,.54,.99,1.7,1.43,.61,.23,1.39,.32,2.13,.37h.01c.18,.02,.35,.03,.52,.04,.75,.05,1.47,.09,2.03,.27l.07,.03h.02l.6,.18c.58,.18,1.24,.38,1.88,.6t.02,.01c1.31,.44,2.64,1.01,3.52,1.82h.01c.44,.01,.88,.01,1.33,0,.82-.01,1.63-.03,2.44-.04,1.15-.02,2.31-.02,3.47,.03,.77,.03,1.55,.09,2.3,.13h.22c.78-.03,1.56-.03,2.35,0,.39-.02,.79-.02,1.18,0h.12c1.28-.07,2.57-.16,3.86-.23,1.52-.09,3.05-.16,4.57-.15-.41-.15-.82-.3-1.14-.58ZM192.45,34.13c-1.37,.01-2.78,.02-3.77,.61-.65,.38-1.1,1-1.57,1.66-.66,.92-1.34,1.86-2.62,2.25-.37,.11-.74,.16-1.1,.21-.45,.05-.87,.11-1.19,.27-.34,.18-.59,.5-.85,.83l-.06,.09c-1.55,1.99-3.63,3.74-6.03,5.04-.08,.04-.18,.07-.27,.07-.21,0-.4-.11-.51-.31-.15-.28-.05-.63,.23-.78,2.26-1.22,4.22-2.86,5.67-4.73l.06-.08c.31-.4,.66-.86,1.23-1.15,.5-.26,1.05-.33,1.57-.4,.33-.04,.64-.08,.92-.16,.91-.28,1.42-.99,2.01-1.82,.52-.73,1.06-1.48,1.93-1.99,1.26-.74,2.82-.75,4.34-.76,1.56-.01,3.04-.02,3.93-.82,.23-.21,.6-.2,.81,.04,.21,.24,.19,.6-.04,.81-1.22,1.1-2.98,1.11-4.69,1.12Zm5.86,4.63c-.86,.75-2.03,1.13-3.15,1.07-.19,.57-.24,1.18-.15,1.77,.05,.32-.16,.61-.48,.66-.03,0-.06,0-.09,0-.28,0-.52-.2-.57-.49-.15-.95,0-1.92,.4-2.82l.18-.41,.45,.08c.9,.17,1.94-.12,2.66-.74,.5-.43,.77-.94,.76-1.45-.01-.31,.24-.58,.55-.59,.3-.02,.59,.24,.6,.56,.02,.86-.38,1.69-1.16,2.35Z"/><path class="cls-5" d="M305.89,73.48h-.87c.27-.02,.54-.04,.81-.07,.02,.02,.04,.04,.06,.07Z"/><path d="M144.46,74.84c-.15-.19-.12-.42-.21-.63-.26-.59-.14-.43-.82-.56-1.96-.37-3.88-.92-5.77-1.54-.19-.06-.38-.13-.57-.19-.5-.18-1-.37-1.5-.56-.46-.19-.92-.37-1.38-.55-.85-.34-1.71-.67-2.58-.94-.93-.29-1.9-.45-2.83-.75-.74-.24-1.43-.62-2.18-.83-.85-.23-1.74-.19-2.59-.41-.98-.25-1.83-.92-2.62-1.52-1.09-.84-2.45-1.07-3.46-2.08-.54-.53-.92-1.54-1.58-1.92-.53-.29-1.17,.03-1.75,.05-.62,.03-1.24-.07-1.85-.21-1.28-.3-2.48-.88-3.73-1.25-.86-.26-1.82-.47-2.71-.22-.73,.2-1.33,.55-2.1,.65-.94,.12-1.94-.02-2.86,.22-.65,.17-1.24,.48-1.9,.61-2.77,.58-5.01-.79-7.15-2.39-1.25-.94-2.61-1.74-4-2.44-.07-.03-.13-.06-.2-.09-.19-.1-.38-.18-.57-.26-.19-.09-.38-.17-.57-.24-1.12-.45-2.28-.82-3.39-1.3-1.5-.65-3.17-1.1-4.6-1.87-.75-.41-1.3-1.17-2.11-1.47-.69-.26-1.43-.32-2.13-.63-.66-.28-1.24-.7-1.88-1.01-1.03-.51-2.1-.5-3.21-.4-1.8,.16-3.58,.59-5.26,1.25-1.78,.7-3.46,1.66-4.94,2.87-1.29,1.07-2.6,1.7-4.1,2.45-1.49,.76-2.9,1.67-4.4,2.4-1.28,.64-2.77,1.15-3.64,2.37-.72,1.02-1.34,1.53-2.65,1.7-1.34,.18-2.66,.04-4,.34-1.85,.41-3.48,1.29-5.15,2.14-1.03,.53-2.06,1.19-3.26,1-.72-.11-1.37-.49-1.99-.85-.61-.35-1.29-.57-1.88-.93-.91-.54-.96-1.32-1.43-2.18-.72-1.33-2.26-.83-3.32-1.65-.45-.35-.46-.72-.78-1.14-.41-.52-1.13-.5-1.72-.58-.78-.1-1.53-.29-2.29-.4-1.02-.14-1.47,.38-1.97,1.09-.66,.97-1.48,1.26-2.56,1.65-1.62,.59-2.41,2.05-3.85,2.86-.75,.43-1.27,.7-1.73,1.48-.29,.49-.52,.79-.88,1.23-.42,.51-.71,.89-1.33,1.18-.56,.27-1.21,.35-1.74,.66-.98,.59-1.75,1.77-2.61,2.53-.82,.73-1.15,1.28-1.6,2.25-.2,.42-.39,.84-.58,1.26,1.5,.28,2.82,.61,4.42,.33,1.34-.23,2.68-.54,4.03-.72,2.44-.34,4.97-.11,7.42-.06,2.65,.05,5.31,.13,7.96,.1,2.83-.03,5.66-.36,8.48-.57,1.29-.1,2.61-.27,3.89-.19,1.28,.07,2.55,.29,3.82,.45,2.55,.32,5.05,.33,7.62,.17,5.11-.31,10.16-.62,15.29-.5,4.55,.11,9.08,.58,13.63,.62h.44c1.45,.01,2.9,.04,4.36,.02,.29,0,.57-.01,.86-.01,2.11-.05,4.2-.38,6.31-.53,5.16-.36,10.25,.29,15.4,.56,5.09,.27,10.12-.39,15.22-.29,4.77,.1,9.53,.72,14.3,.66,2.2-.03,4.41,.16,6.59,.08,1.53-.06,3.05-.18,4.58-.21-.06-.05-.11-.1-.16-.16Zm-72.42-18.55c.09-.31,.41-.48,.72-.39l6.9,2.07c1.32,.4,2.76,.83,4.01,1.54,.19,.11,.37,.22,.54,.34,.18,.11,.36,.24,.53,.39,.04,.02,.08,.05,.11,.08,.41,.35,.77,.75,1.12,1.13,.69,.75,1.34,1.46,2.29,1.74,.61,.17,1.36,.18,2.1,.2,1.35,.02,2.75,.04,3.55,1.08,.19,.25,.14,.61-.11,.81-.11,.08-.23,.12-.35,.12-.17,0-.35-.08-.46-.23-.46-.6-1.52-.61-2.65-.63-.81-.01-1.65-.03-2.41-.25-1.25-.37-2.04-1.23-2.81-2.06-.34-.37-.66-.72-1.02-1.03-.21-.18-.43-.34-.67-.49h-.01c-.19-.13-.4-.25-.61-.35-.2-.11-.4-.21-.62-.29-.92-.41-1.92-.71-2.86-.99l-6.9-2.08c-.31-.09-.48-.41-.39-.71Z"/><path d="M511.34,73.94c-1.57,.03-3.14,.16-4.7,.22-2.28,.09-4.57-.12-6.85-.09-5.04,.07-10.07-.59-15.11-.69-2.74-.05-5.4,.02-8.12,.25-2.74,.24-5.5,.19-8.24,.04-5.43-.29-10.79-.96-16.24-.56-2.21,.16-4.41,.5-6.63,.54-1.94,.04-3.89,0-5.83,0-4.78-.04-9.54-.54-14.32-.65-5.49-.13-10.91,.21-16.38,.54-2.73,.16-5.39,.12-8.11-.23-1.33-.17-2.68-.42-4.03-.46-1.38-.05-2.8,.14-4.18,.24-2.73,.21-5.47,.5-8.21,.57-.31,.01-.63,.02-.94,.02h-.23c-.43,0-.87,0-1.3-.01h0c-2.2-.01-4.4-.07-6.59-.11-2.62-.05-5.29-.27-7.88,.11-.92,.13-1.82,.32-2.73,.49h0c-.52,.1-1.03,.2-1.55,.28-1.5,.25-2.81-.1-4.23-.37,.05-.11,.1-.22,.14-.33,.33-.76,.67-1.53,1.13-2.19,.19-.28,.41-.54,.66-.77h.01c.05-.07,.11-.11,.16-.16,.2-.17,.4-.37,.6-.58h0c.87-.9,1.73-2.02,2.82-2.43,1.27-.49,2.02-.84,2.89-1.92,.17-.22,.32-.45,.46-.68,.12-.18,.23-.37,.36-.55,.09-.14,.19-.28,.3-.42,.05-.06,.1-.12,.15-.17,.51-.53,1.18-.71,1.78-1.14,.57-.4,1.06-.97,1.56-1.45,.79-.74,1.56-1.09,2.56-1.45,.65-.23,1.29-.51,1.78-1,.38-.38,.51-.88,.9-1.25,.82-.78,1.66-.4,2.63-.22,.65,.13,1.32,.17,1.97,.28,.88,.14,.93,.43,1.4,1.14,.31,.46,.78,.78,1.3,.97,.55,.2,1.17,.19,1.71,.4,.97,.37,1.04,1.16,1.42,1.98,.58,1.26,1.89,1.53,3.01,2.18,1.11,.64,2.32,1.3,3.64,.89,1.67-.5,3.19-1.61,4.77-2.32,1.62-.73,3.33-1.17,5.11-1.19,1.29-.02,2.66,.01,3.76-.75,.6-.41,.79-1.02,1.27-1.54,.52-.58,1.21-.97,1.89-1.33,1.44-.74,2.81-1.52,4.23-2.29,1.74-.96,3.59-1.69,5.31-2.68,1.08-.62,2-1.44,2.99-2.18,.48-.35,.98-.71,1.51-.98,.71-.34,1.07-.29,1.78-.13,.66,.14,1.18-.12,1.77-.37,.8-.33,1.64-.57,2.47-.82,1.73-.5,3.61-.94,5.41-.52,.8,.18,1.4,.47,1.88,1.08,.35,.44,.64,.67,1.17,.9,1.54,.65,3.06,1.35,4.56,2.11,1.65,.84,3.32,1.43,5.06,2.06,1.86,.66,3.52,1.63,5.24,2.56,2.54,1.38,4.67,3.98,7.78,3.99,1.67,.01,3.12-.85,4.76-.95,.73-.04,1.48-.02,2.21-.15,.94-.17,1.76-.72,2.72-.76,2.96-.12,5.48,2.26,8.52,1.83,1.25-.17,1.41,.13,2.11,1.08,.67,.91,1.46,1.63,2.49,2.12,.65,.31,1.29,.5,1.88,.95,.55,.43,1.11,.86,1.73,1.2,.65,.37,1.29,.54,2.03,.62,1.28,.14,2.32,.49,3.52,.95,1.81,.7,3.72,1.03,5.53,1.75,.7,.28,1.41,.55,2.12,.81h.01c.89,.34,1.79,.65,2.69,.94,0,0,0,.01,.02,0,.3,.1,.6,.2,.9,.29,.62,.19,1.24,.36,1.87,.53h.01c.24,.07,.48,.13,.72,.19,.45,.11,.89,.22,1.33,.31,.24,.05,1.46,.13,1.62,.32,.22,.27,.02,.78,.3,1.1l.02,.02Z"/><g><path d="M304.56,73.14c-1.07,.04-2.12,.26-3.18,.27-.04,0-.04-.04-.08-.04-.28,0-.56-.04-.83-.04-.65,0-.65-.1-1.29-.1-1.36,.01-2.72,.15-4.07,.19-.05,0-.05-.12-.09-.12-.26,.01-.51,.14-.77,.15-.08,0-.08-.13-.16-.12-.63,.02-1.26,.14-1.89,.15-.63,0-1.25,.08-1.88,.1,0,0,0-.05-.01-.05-.39,.01-.77-.04-1.16-.03-.2,0-.4,.03-.6,.03-.01,0-.01,.03-.02,.03-.81,.02-1.61,.02-2.42,.04-.17,0-.34-.08-.51-.08,0,0,0,.13-.01,.13-.85,.01-1.7-.07-2.55-.06-1.01,.01-2.01,.21-3.01,.23-.48,.01-.95-.12-1.43-.12-.53,0-1.06,.02-1.6,0-.23,0-.46,.1-.69,.1-.79-.02-1.58-.16-2.37-.14-1.02,.02-2.04,0-3.06,.05-1.01,.04-2.02,.11-3.03,.12-1.02,.02-2.05,0-3.07,.07-1.01,.06-2,.21-3.01,.23-.6,.01-1.21,.11-1.82,.09-.03,0-.02-.19-.05-.19,0,0-.01,.16-.02,.16-.37-.02-.75,.02-1.11,0-1.01-.05-2.04-.07-3.08-.06-.42,.01-.84-.01-1.26,0,0,0-.02-.22-.03-.22-.6,.04-1.2,.29-1.79,.34-.24,.02-.49,.01-.74,.03,0,0,0,0-.01,0-.75,.06-1.51,.12-2.25,.13-1,.02-2.03,.03-3.03,0-1-.02-2.03-.16-3.06-.14-1.02,.02-2.02,.22-3.04,.27-1.01,.05-2.02,.1-3.03,.11-.16,0-.15-.07-.31-.07,0,.01-.03-.16-.04-.17,0,.01-.03,.2-.04,.19-.82,.02-1.65,0-2.47,0-.96-.01-1.92,.08-2.89,.1-.96,.02-1.93-.05-2.89,0-.95,.05-1.9,.14-2.85,.16-.94,.02-1.9-.19-2.83-.22-.95-.03-1.94,.08-2.91,.1-.09,0-.17-.11-.26-.1-.92,.02-1.84,.28-2.75,.34-.96,.07-1.97,.02-2.95,.04-.56,.01-1.11-.1-1.66-.12-.02,0-.02,.2-.04,.2-.42-.01-.84,.04-1.25,.03-.39-.01-.78-.09-1.18-.11,0,0,0-.14,0-.14-.61-.02-1.22,.17-1.82,.18-.3,.01-.6-.12-.9-.11,0,0,0,.11-.02,.12-.66,.01-1.33,.01-1.99,.03-.03,0-.04-.04-.07-.04-.8,.03-1.62,0-2.41,.01-.01,0-.01-.09-.02-.09-.19,0-.37,.11-.55,.11-.44,.01-.88-.01-1.31-.01-.86,0-.87,.14-1.73,.14-.98-.01-1.95-.11-2.92-.1-.99,.02-1.97,.07-2.96,.12-1,.06-2-.07-3-.06-1.05,.01-2.1,.1-3.15,.1-.94,0-1.87,.17-2.81,.18-1.03,.02-2.06-.27-3.09-.29-.96-.02-1.91,.1-2.87,.1-1,.01-2,.05-2.98,.12-.98,.07-1.99,.14-2.98,.14-1.01-.01-2.05,.03-3.07,0-.96-.04-1.92,.01-2.89,.01-.24,0-.24-.09-.49-.09-1.58,0-3.3,.11-5.25,.16-1.32,.03-2.68-.18-3.99-.21-.57-.02-1.14,.1-1.7,.09-.55,0-.55-.16-1.1-.17-1.24-.01-2.44,.05-3.6-.05,.56-.62,1.5-1.31,2.26-1.8,.12-.08,.24-.13,.36-.21,0,0,.08,.12,.09,.11,.32-.22,.65-.39,.88-.57,.02-.02-.1-.21-.08-.23,0,0,.08,.11,.09,.11,.27-.21,.48-.5,.75-.7,.57-.44,1.09-.94,1.67-1.36,.88-.66,1.87-1.17,2.72-1.84,.33-.25,.59-.59,.9-.86,.71-.62,1.45-1.31,2.39-1.74,.95-.43,2.12-.74,3.25-1.03,1.29-.34,2.67-.55,3.77-1.11,1.24-.63,2.19-1.4,3.07-2.18,1.2-1.05,2.22-2.26,4.13-2.8,.35-.1,.74-.18,1.11-.26,.68-.13,1.46-.02,2.04-.3,.82-.4,1.25-1.09,1.56-1.6,.16-.27,.26-.54,.45-.73,.46-.45,1.23-.54,1.99-.71,.21-.04,.42-.08,.61-.13,.23-.06,.18-.25,.41-.31,1.07-.27,2.18-.37,3.21-.28,.58,.05,1.17,.21,1.64,.37,.2,.06,.44-.02,.62,.07,.45,.22,.94,.48,1.65,.37,.24-.03,.46,.02,.61-.06,.06-.03,.12-.11,.13-.12,.09,0,.25-.06,.31-.04,.22,.1,.37,.44,.61,.65,.28,.25,.71,.36,1.09,.54,.51,.24,1.01,.45,1.51,.61,.23,.07,.38,.38,.61,.45,1.63,.57,3.35,.94,5.02,1.21,.09,.01,.1-.02,.19-.03s.13,.07,.21,.04c1.55-.63,2.91-1.4,4.1-2.21,.89,.17,1.76,.16,2.63,.28,.83,.12,1.69,.3,2.52,.45,.08,.01,.17-.02,.25-.01,.2,.04,.39,.12,.59,.17,.25,.04,.5,.1,.74,.15,.47,.11,.92,.29,1.38,.4,.91,.21,1.78,.45,2.7,.63,2.01,1.62,4.38,3.01,6.83,4.02,.21,.08,.21,.01,.43-.04s.19-.05,.34-.22c.67-.78,2.53-1.61,5.15-2.07,1.13-.2,2.27-.28,3.41-.44,1.15-.16,2.33-.22,3.47-.42,.96-.17,1.86-.4,2.56-.66,.95-.36,1.65-.96,2.27-1.45,.12-.1,.25-.14,.36-.23,.1-.08,.24-.11,.34-.19,.26-.21,.51-.4,.78-.57,0,0,.01,.01,.02,.01,.44-.29,.82-.79,1.43-.91,.2-.05,.43,.17,.66,.15,.1,.08,.18,.14,.3,.2,.24,.13,.58,.07,.85,.16,.85,.29,1.81,.37,2.62,.39,.07,0,.08,.2,.15,.19,.06,0,.05-.12,.11-.14,1.46-.61,2.52-1.22,3.04-2.09,2.59-.58,5.56-.57,7.75,.17,2.06,.7,3.41,2.03,3.31,3.31-.02,.28-.29,.43-.11,.65s.41-.11,.69-.06c2.27,.39,4.92,.13,6.36-.82,2.63,.54,4.85,1.18,6.53,2.25,.67,.43,1.4,.98,2.51,1.24,.58,.13,1.2,.36,1.8,.47,.84,.17,1.56,.27,2.22,.63,.02,.01,0,.07,.02,.08,.03,.01,.02,.03,.04,.04,.18,.1,.33,.25,.51,.35,.22,.12,.46,.2,.67,.32,1.32,.73,2.37,1.52,3.37,2.12,.14,.08,.24-.09,.38,0,1.6,.97,3.12,1.9,3.84,2.87,.18,.23,.17,.53,.28,.74,.35,.66,.77,1.38,2.2,1.96,.07,.03,.23-.18,.3-.15,.36,.14,.71,.35,1.11,.42,.62,.1,1.25,.29,1.85,.33,.12,.01,.26-.16,.37-.15,.01,0,0,.04,.02,.04,.53,.03,1.05-.02,1.38,.09,.36,.11,.36,.1,.72,.2,.99,.3,2.25,.74,3.33,1.24,.31,.14,.55,.24,.82,.4Z"/><path d="M207.36,74.96s-.06,0-.08,.02c-.69,.17-1.28,.15-1.91,.03,.66-.02,1.33-.04,1.99-.05Z"/><path d="M295.49,73.47c-.52,0-.52,0-1.03,0-.07,0-.14,0-.21,0,.26,0,.51,0,.77-.02,.05,0,.05,0,.09,0,.13,.01,.26,.03,.38,.03Z"/><path d="M305.89,73.48c-.43,.02-.44,.01-.87,0,.27-.02,.54-.04,.81-.07,.02,.02,.04,.04,.06,.07Z"/><path class="cls-5" d="M305.83,73.41c-.27,.03-.54,.05-.81,.07h.87s-.04-.05-.06-.07Zm-10.72,.03h-.09c-.26,.01-.51,.01-.77,.02,.07,.01,.14,.01,.21,.01h1.03c-.12,0-.25-.02-.38-.03Zm-89.74,1.57c.63,.12,1.22,.14,1.91-.03,.02-.01,.05-.02,.08-.02-.66,.01-1.33,.03-1.99,.05Z"/></g></g><g><path class="cls-1" d="M427.37,43.43c-.06,11.18-.11,22.4,1.27,33.5"/><path class="cls-1" d="M419.32,44.91l.2,5.36c.03,.91,.07,1.83,.41,2.67,1.02,2.51,4.18,3.25,6.88,3.38"/><path class="cls-1" d="M428.59,60.85l3.96,.02c.35,0,.73,0,1-.23,.34-.28,.37-.78,.37-1.23,0-2.12,0-4.24,0-6.36"/></g><g><path class="cls-2" d="M208.37,60.44c.85,5.95,1.18,11.98,.99,17.99"/><path class="cls-4" d="M204.62,64.42c.39,1.22-.03,2.93,.76,3.75,.29,.3,.68,.38,1.05,.43,.99,.14,1.98,.18,2.97,.13"/><path class="cls-2" d="M209.78,66.41l3.49-.9c.15-1.56-.17-3.15-.9-4.54"/></g><path d="M85.77,83.03c1.27-.7,3.07-.48,3.83,.48,.13,.16,.23,.35,.14,.55-.05,.12-.16,.21-.27,.3-1.26,.94-3.35,.91-4.3-.08-.13-.13-.24-.29-.24-.47,0-.44,.64-.73,1.17-.89"/><path class="cls-3" d="M163.84,83.08c2.04,1.18,3.92,2.63,5.56,4.32,.12,.12,.31,.08,.36-.08,.69-1.92,1.73-3.72,3.06-5.28"/><path class="cls-3" d="M168.11,81.09c1.18,1.93,1.73,4.23,1.55,6.49"/><g><path class="cls-3" d="M399.25,77.85c1.76,.56,3.4,1.46,4.82,2.63,.9-1.39,1.96-2.68,3.15-3.84"/><path class="cls-3" d="M402.81,76.06l1.39,3.86"/><path class="cls-3" d="M396.48,80.44c2.28-.29,4.64,.04,6.76,.94,.37,.16,.75,.33,1.15,.3,.39-.03,.73-.26,1.07-.46,1.49-.9,3.19-1.46,4.92-1.62"/></g><path class="cls-3" d="M246.2,85.33l1.08,.19"/><path class="cls-3" d="M368.79,81.38l1.97-.58"/><path class="cls-3" d="M206.06,79.01h.36"/><path class="cls-3" d="M273.2,77.39h.36"/><path class="cls-3" d="M459.32,84.77h.18"/><path class="cls-3" d="M502.52,80.09h.36"/><path class="cls-3" d="M81.68,82.07h1.44"/><path class="cls-3" d="M12.56,83.03h3.84"/><path class="cls-3" d="M45.68,95.51h2.4"/></g></svg>