<?xml version="1.0" encoding="UTF-8"?><svg id="Layer_2" xmlns="http://www.w3.org/2000/svg" viewBox="0 0 463.68 311.81"><defs><style>.cls-1{fill:none;stroke:#000;stroke-miterlimit:10;stroke-width:4px;}.cls-2{fill:#050404;}.cls-3{fill:#e27944;}</style></defs><g id="Layer_1-2"><rect class="cls-3" x="75.93" y="-75.93" width="311.81" height="463.68" transform="translate(75.93 387.75) rotate(-90)"/><rect class="cls-1" x="107.28" y="-43.17" width="249.12" height="398.16" transform="translate(75.93 387.75) rotate(-90)"/><path d="m139.72,200.86c.1-.07.2-.15.3-.22-.06.06-.13.11-.19.15-.04.02-.07.05-.11.07Z"/><path d="m115.23,176.33v2.22h.88l.55-.38v-1.84h-1.43Zm.9,3.15h-.9v2.53h1.45v-2.17l-.55-.36Zm0,0h-.9v2.53h1.45v-2.17l-.55-.36Zm-.9-3.15v2.22h.88l.55-.38v-1.84h-1.43Zm0,0v2.22h.88l.55-.38v-1.84h-1.43Zm.9,3.15h-.9v2.53h1.45v-2.17l-.55-.36Zm0,0h-.9v2.53h1.45v-2.17l-.55-.36Zm-.9-3.15v2.22h.88l.55-.38v-1.84h-1.43Zm-9.31,9.69h-.84v5.64h.81c.46,0,.7-.22.7-.65v-4.35c0-.43-.23-.64-.67-.64Zm9.31-9.69v2.22h.88l.55-.38v-1.84h-1.43Zm.9,3.15h-.9v2.53h1.45v-2.17l-.55-.36Zm0,0h-.9v2.53h1.45v-2.17l-.55-.36Zm.53-1.31v-1.84h-1.43v2.22h.88l.55-.38Zm-10.74,7.85h-.84v5.64h.81c.46,0,.7-.22.7-.65v-4.35c0-.43-.23-.64-.67-.64Zm31.99-15.27h-33.75c-.31,1.41-1.42,2.52-2.83,2.83v20.46c1.41.3,2.52,1.42,2.83,2.83h24.5c-.07-.4-.1-.81-.1-1.23,0-4.28,3.49-7.77,7.77-7.77,1.64,0,3.16.51,4.41,1.38v-15.67c-1.41-.31-2.52-1.42-2.83-2.83Zm-27.73,4.63h3.12v1h-1.99v2.21h1.71v.99h-1.71v2.38h2.01v1h-3.14v-7.58Zm-2.45,15.82c0,.45-.14.8-.4,1.05-.27.26-.62.38-1.07.38h-2.32v-7.58h2.32c.45,0,.8.13,1.07.38.26.26.4.61.4,1.06v4.71Zm-.41-8.23l-.68-4.3c0-.15-.02-.38-.03-.69,0,.15-.02.38-.04.69l-.68,4.3h-1.11l-1.11-7.59h1.15l.58,4.49c.01.16.03.39.04.7.01-.16.02-.39.05-.7l.65-4.49h.93l.66,4.49c.01.16.02.39.04.7,0-.16,0-.39.04-.7l.58-4.49h1.15l-1.11,7.59h-1.11Zm4.43,9.66h-3.15v-7.58h3.12v1h-1.98v2.22h1.7v.98h-1.7v2.38h2.01v1Zm3.1.01h-1.13l-1.45-7.59h1.14l.85,5.2c0,.15.01.36.02.65,0-.15.01-.37.03-.65l.86-5.2h1.13l-1.45,7.59Zm2.97-10.37c0,.46-.23.69-.69.69h-3.03v-7.58h3.01c.45,0,.67.23.67.69v1.96c0,.26-.08.46-.24.6-.02.02-.22.14-.59.37.38.24.59.37.61.39.18.15.26.36.26.62v2.26Zm9.68,6.92h-6.65c-.57,0-1.03-.46-1.03-1.03s.46-1.04,1.03-1.04h6.65c.57,0,1.04.46,1.04,1.04s-.47,1.03-1.04,1.03Zm7.67-6.17h-14.32c-.57,0-1.03-.47-1.03-1.04s.46-1.04,1.03-1.04h14.32c.57,0,1.03.47,1.03,1.04s-.46,1.04-1.03,1.04Zm-19.94-3.54v2.53h1.45v-2.17l-.55-.36h-.9Zm1.43-1.31v-1.84h-1.43v2.22h.88l.55-.38Zm-10.74,7.85h-.84v5.64h.81c.46,0,.7-.22.7-.65v-4.35c0-.43-.23-.64-.67-.64Zm9.31-9.69v2.22h.88l.55-.38v-1.84h-1.43Zm.9,3.15h-.9v2.53h1.45v-2.17l-.55-.36Zm0,0h-.9v2.53h1.45v-2.17l-.55-.36Zm-.9-3.15v2.22h.88l.55-.38v-1.84h-1.43Zm0,0v2.22h.88l.55-.38v-1.84h-1.43Zm.9,3.15h-.9v2.53h1.45v-2.17l-.55-.36Zm0,0h-.9v2.53h1.45v-2.17l-.55-.36Zm-.9-3.15v2.22h.88l.55-.38v-1.84h-1.43Z"/><path d="m144.95,168.74v30.15c0,1.09-.88,1.97-1.97,1.97h-.9c1.26-1.38,2.02-3.21,2.02-5.22,0-1.89-.68-3.62-1.81-4.97v-17.78c0-.43-.35-.78-.78-.78-1.17,0-2.13-.96-2.13-2.13,0-.43-.35-.78-.77-.78h-35.15c-.42,0-.77.35-.77.78,0,1.17-.96,2.13-2.13,2.13-.43,0-.78.35-.78.78v21.84c0,.43.35.78.78.78,1.17,0,2.13.96,2.13,2.13,0,.43.35.78.77.78h25.61c.35.9.87,1.73,1.52,2.44h-31.5c-1.09,0-1.97-.88-1.97-1.97v-30.15c0-1.09.88-1.97,1.97-1.97h43.89c1.09,0,1.97.88,1.97,1.97Z"/><path d="m145.7,208.35c-.04.14-.16.25-.31.28l-3.3.75-2.24,2.37c-.08.08-.19.13-.31.13-.03,0-.06,0-.09,0-.15-.03-.27-.14-.32-.28l-2.72-8.01-2.72,8.01c-.05.14-.17.25-.31.28-.03,0-.06,0-.09,0-.12,0-.23-.05-.31-.13l-2.25-2.37-3.3-.75c-.14-.03-.26-.14-.31-.28-.05-.13-.02-.29.07-.4l4.77-5.89c1.25.85,2.75,1.35,4.37,1.35h.14c1.62-.03,3.11-.55,4.33-1.42l4.83,5.96c.09.11.12.27.07.4Z"/><path d="m142.29,193.87c-.29-1-.84-1.9-1.55-2.62-1.13-1.13-2.69-1.83-4.41-1.83-3.43,0-6.22,2.79-6.22,6.22,0,.42.04.83.13,1.23.1.55.29,1.07.53,1.55.5,1,1.26,1.84,2.19,2.44.97.63,2.13,1,3.37,1s2.4-.37,3.38-1c1.71-1.11,2.84-3.04,2.84-5.22,0-.61-.09-1.21-.26-1.77Zm-2.14,1.85c-.43,0-.77-.35-.77-.78,0-1.29-1.05-2.34-2.35-2.34-.42,0-.77-.34-.77-.77s.35-.78.77-.78c2.15,0,3.89,1.75,3.89,3.89,0,.43-.34.78-.77.78Z"/><path d="m314.91,174.79l-6.06-6.07c-.55-.55-1.28-.85-2.06-.85h-19.68c-1.99,0-3.7,1.15-4.56,2.8-1.22.1-2.18,1.11-2.18,2.35v23.49c0,3.72,3.02,6.74,6.74,6.74h23.5c1.24,0,2.25-.96,2.35-2.18,1.65-.86,2.79-2.56,2.79-4.55v-19.68c0-.77-.3-1.5-.85-2.05Zm-1.31.93h-6.27v-6.15c.15.07.29.15.41.27l5.87,5.88Zm-1.05,23.79c-.43-.61-1.13-1-1.93-1h-23.5c-1.1,0-1.99-.89-1.99-1.99v-23.49c0-.8-.4-1.5-1.01-1.93.64-.99,1.74-1.64,3-1.64h18.63v7.06c0,.44.35.79.79.79h7.64v19.23c0,1.25-.65,2.35-1.63,2.98Z"/><path d="m308.15,183.66h-19.56c-.44,0-.79.35-.79.79s.35.79.79.79h19.56c.44,0,.79-.35.79-.79s-.35-.79-.79-.79Z"/><path d="m288.59,180.12h7.26c.44,0,.79-.35.79-.79s-.35-.79-.79-.79h-7.26c-.44,0-.79.35-.79.79s.35.79.79.79Z"/><path d="m308.15,188.98h-19.56c-.44,0-.79.35-.79.79s.35.79.79.79h19.56c.44,0,.79-.35.79-.79s-.35-.79-.79-.79Z"/><path d="m308.15,194.3h-19.56c-.44,0-.79.35-.79.79s.35.79.79.79h19.56c.44,0,.79-.35.79-.79s-.35-.79-.79-.79Z"/><path d="m342.23,174.4c-.89,0-1.57.68-1.57,1.52s.68,1.5,1.57,1.5,1.57-.68,1.57-1.55c0-.82-.68-1.47-1.57-1.47Z"/><rect x="341.07" y="179.88" width="2.32" height="12.8"/><path d="m354.64,179.76c-2.03,0-3.67.75-4.61,2.05v-1.93h-2.22v12.8h2.32v-6.59c0-2.78,1.59-4.25,4.06-4.25,2.2,0,3.45,1.23,3.45,3.74v7.1h2.32v-7.37c0-3.77-2.2-5.55-5.31-5.55Z"/><path d="m361.41,167.87h-23.51c-1.99,0-3.71,1.15-4.56,2.81-1.22.1-2.17,1.11-2.17,2.35v23.49c0,3.72,3.02,6.74,6.74,6.74h23.5c1.25,0,2.25-.96,2.35-2.18,1.65-.86,2.79-2.57,2.79-4.55v-23.51c0-2.84-2.31-5.15-5.15-5.15Zm3.57,28.66c0,1.25-.65,2.35-1.63,2.99-.43-.61-1.13-1-1.93-1h-23.5c-1.1,0-1.99-.89-1.99-1.99v-23.49c0-.8-.4-1.51-1.01-1.94.64-.99,1.74-1.64,2.99-1.64h23.51c1.97,0,3.57,1.6,3.57,3.57v23.51Z"/><path d="m175.03,105.74c-2.87-3.36-6.87-5.4-11.27-5.75-3.63-.28-7.17.63-10.18,2.56-.86-.59-2.04-.57-2.88.14-3.68,3.14-5.92,7.53-6.3,12.35-.38,4.82,1.14,9.51,4.28,13.19,3.14,3.68,7.53,5.92,12.35,6.3.49.04.97.06,1.46.06,4.3,0,8.42-1.51,11.73-4.34.83-.71,1.04-1.87.6-2.82,2.38-2.67,3.84-6.02,4.13-9.66.35-4.4-1.04-8.67-3.9-12.03Zm2.33,11.91c-.26,3.25-1.55,6.25-3.66,8.66-.82-.39-1.83-.29-2.56.33-2.72,2.32-6.17,3.43-9.73,3.16-3.56-.28-6.79-1.93-9.11-4.65s-3.44-6.17-3.16-9.73c.28-3.56,1.93-6.8,4.65-9.11.74-.63.99-1.61.73-2.48,2.37-1.5,5.09-2.3,7.92-2.3.4,0,.8.02,1.2.05,3.98.32,7.6,2.16,10.19,5.2s3.85,6.9,3.53,10.88Z"/><path d="m170.21,109.62h-15.51c-1.4,0-2.54,1.14-2.54,2.55v8.6c0,1.4,1.14,2.54,2.54,2.54h15.51c1.4,0,2.54-1.14,2.54-2.54v-8.6c0-1.4-1.14-2.55-2.54-2.55Zm-.56,1.58l-6.8,6.56c-.15.15-.39.15-.55.02l-7.72-6.56s.07-.02.11-.02h14.95Zm1.52,9.56c0,.53-.43.96-.96.96h-15.51c-.53,0-.96-.43-.96-.96v-8.18l7.54,6.41c.37.32.83.48,1.29.48.5,0,1-.19,1.38-.56l7.18-6.93c.01.07.04.13.04.2v8.6Z"/><path d="m128.23,105.73c-5.41-6.34-14.61-7.56-21.45-3.19-.86-.59-2.04-.57-2.88.14-7.6,6.48-8.5,17.94-2.02,25.54,3.58,4.19,8.67,6.35,13.79,6.35,4.16,0,8.34-1.42,11.75-4.33.83-.71,1.04-1.87.6-2.82,2.38-2.67,3.84-6.02,4.13-9.66.35-4.4-1.04-8.68-3.9-12.04Zm-19.69,22.05c-1.12-.7-2.15-1.58-3.05-2.64-2.15-2.53-3.19-5.63-3.18-8.71,1.13-.11,2.21-.4,3.16-.66,1.74-.48,3.54-.97,5.28-1.67.81-.33,1.6-.72,2.36-1.13,1.58,2.69,2.99,5.49,4.22,8.37-2.86,1.62-5.76,3.76-8.79,6.45Zm9.39-4.97c.82,2.05,1.54,4.13,2.17,6.24-3.29,1.16-6.92.98-10.07-.48,2.72-2.38,5.33-4.29,7.9-5.77Zm-7.78-10.18c-1.65.67-3.4,1.15-5.1,1.62-.84.23-1.74.47-2.64.59.39-3.2,1.92-6.28,4.57-8.53.39-.33.64-.76.75-1.21,1.63,2.09,3.15,4.27,4.55,6.53-.69.37-1.4.72-2.13,1.01Zm14.18,14c-.86.73-1.79,1.32-2.76,1.8-.65-2.16-1.4-4.29-2.24-6.39,3.69-1.91,7.32-2.91,11.06-3.12-.46,2.75-1.67,5.28-3.5,7.37-.82-.39-1.83-.29-2.56.33Zm2.69-19.87c2.52,2.96,3.77,6.7,3.54,10.58-4.03.18-7.91,1.22-11.84,3.24-1.24-2.89-2.66-5.7-4.25-8.41,3.46-2.18,6.36-5.23,8.34-8.8,1.55.85,2.99,1.97,4.21,3.4Zm-11.38-5.24c1.96,0,3.92.4,5.75,1.16-1.85,3.3-4.54,6.12-7.74,8.14-1.59-2.58-3.33-5.07-5.23-7.43,2.25-1.25,4.74-1.87,7.22-1.87Z"/><path d="m221.84,105.73c-2.87-3.36-6.87-5.4-11.27-5.75-3.63-.27-7.17.63-10.19,2.56-.86-.59-2.04-.57-2.88.15-3.68,3.14-5.91,7.52-6.29,12.35-.39,4.82,1.13,9.5,4.27,13.18s7.53,5.92,12.35,6.3c.49.04.98.06,1.46.06,4.3,0,8.42-1.51,11.73-4.34.83-.71,1.04-1.87.6-2.82,2.38-2.67,3.83-6.02,4.12-9.65.35-4.4-1.04-8.68-3.9-12.04Zm2.32,11.91c-.25,3.25-1.55,6.25-3.66,8.66-.82-.39-1.83-.3-2.56.33-1.13.97-2.4,1.72-3.74,2.25-.64.26-1.3.47-1.97.62-1.3.29-2.65.39-4.02.29-.51-.04-1.02-.11-1.52-.21-.63-.12-1.25-.29-1.86-.5h0c-2.2-.77-4.17-2.11-5.73-3.94-2.31-2.72-3.43-6.17-3.15-9.73.28-3.56,1.93-6.8,4.65-9.11.73-.63.99-1.61.73-2.49,2.37-1.49,5.09-2.3,7.92-2.3.4,0,.8.02,1.2.05,3.98.32,7.6,2.16,10.19,5.2,2.59,3.04,3.85,6.9,3.53,10.88Z"/><path d="m218.44,116.32c-.35,3.13-1.96,4.93-5.06,5.66-.07.02-.14.03-.21.05.28.62.35,1.17.35,2.08v2.73c0,.15,0,.31-.02.48-.02.47-.06,1.34.19,1.52.07.05.24.08.51.04-.64.26-1.3.47-1.97.62-.38-.68-.34-1.56-.31-2.24,0-.15.01-.29.01-.42v-2.74c.01-1.02-.07-1.31-.64-2.2-.14-.22-.16-.49-.06-.73.1-.24.31-.42.57-.47l.44-.09c.26-.06.52-.11.78-.17,2.45-.58,3.57-1.82,3.85-4.3.18-1.62-.09-2.78-.86-3.75-.27-.34-.27-.74-.27-1.01v-.13c-.02-.32-.03-.63-.04-.95-.02-.4-.03-.8-.06-1.2-.68.26-1.33.51-1.95.82-.45.22-1,.45-1.74.27-1.61-.39-3.24-.38-4.84.01-.76.18-1.29-.07-1.67-.26-.65-.31-1.34-.58-2.02-.84-.02.36-.03.73-.05,1.09-.01.34-.03.69-.05,1.03v.13c-.01.3-.03.72-.28,1.07-1.05,1.51-1.27,3.39-.59,5.04.69,1.64,2.12,2.76,3.92,3.07l.79.14c.24.04.44.18.56.39.12.2.14.45.05.68l-.17.43c-.15.39-.29.76-.46,1.11-.17.35-.51.66-.89.8-1.54.59-3.08.12-4.11-1.27-.3-.4-.59-.77-.94-.99-.11-.07-.24-.13-.39-.17.5.39.91.84,1.22,1.35.12.19.22.4.32.6.07.14.15.28.22.42.22.38.57.67,1.04.87.59.25,1.31.33,2.15.25l.54-.06c.23-.03.45.05.62.2.17.15.26.36.26.59,0,.7,0,.82-.04,1.39v.31c-.02.43-.06,1.3-.45,2.01-.63-.12-1.25-.29-1.86-.5.12,0,.24-.03.33-.09.35-.26.38-1.17.39-1.47v-.35c.02-.17.03-.31.04-.43-.98.05-1.85-.08-2.6-.4-.79-.33-1.39-.85-1.79-1.53-.09-.16-.17-.33-.26-.5-.08-.17-.16-.33-.26-.49-.28-.46-.71-.87-1.23-1.18-.27-.16-.66-.42-.87-.85-.17-.33-.19-.72-.05-1.07.13-.32.37-.56.7-.68.23-.09.46-.09.63-.09.71.02,1.52.1,2.2.54.56.36.97.88,1.35,1.37.42.58,1.16,1.17,2.27.74.1-.18.19-.36.26-.54-2.24-.43-4.08-1.92-4.95-3.99-.89-2.15-.61-4.6.75-6.55,0,.01-.01-.14,0-.23v-.17c.02-.33.04-.66.05-1,.02-.5.04-1.01.08-1.51.04-.45.25-.82.59-1.03.35-.22.79-.25,1.23-.08l.15.06c.75.29,1.53.59,2.28.95.34.17.44.19.61.15,1.85-.45,3.73-.46,5.59-.01.2.05.32.02.66-.15.73-.36,1.49-.65,2.23-.92l.23-.09c.41-.16.84-.13,1.18.09.34.21.54.57.57,1.01.05.54.07,1.1.09,1.65.01.31.02.62.04.93v.33c.99,1.29,1.34,2.82,1.12,4.82Z"/><path d="m192.86,182.72v4.97s-.1.09-.15.13c-1.67,1.3-3.6,2.33-5.67,3.04-1.31.46-2.69.79-4.11.98-1.03.15-2.08.22-3.15.22-1.13,0-2.25-.08-3.33-.25-1.37-.19-2.69-.51-3.95-.95-2.14-.73-4.1-1.8-5.8-3.16v-4.96l11.13,4.56c1.08.45,2.78.45,3.86,0l11.17-4.58Z"/><path d="m203.9,176.07l-3.48,1.43v4.76c.67.29,1.12.94,1.12,1.71,0,.69-.38,1.3-.94,1.61l.47,1.29,1.4,3.9-2.61.69-2.52-.55,1.16-3.97.39-1.3c-.64-.29-1.07-.93-1.07-1.68s.46-1.42,1.12-1.71v-4.15l-17.42,7.15c-.96.4-2.51.4-3.47,0l-22.4-9.18c-.96-.4-.96-1.03,0-1.42l22.4-9.19c.96-.39,2.51-.39,3.47,0l22.4,9.19c.96.39.96,1.02,0,1.42Z"/><path d="m176.66,192.85c-2.42-.3-4.72-.98-6.81-1.99h-1.02l-3.14,15.1h4.89l.51-2.33h2.7l.49,2.33h5.1l-2.72-13.11Zm-5.2,7.64l.94-5.06h.1l.93,5.06h-1.97Zm4.79-9.63h-3.75c1.26.44,2.58.76,3.95.95l-.2-.95Z"/><path d="m190.55,190.86h-.87c-2.14,1.04-4.5,1.72-6.97,2.02l-2.72,13.08h4.89l.51-2.33h2.7l.49,2.33h5.1l-3.13-15.1Zm-4.79,9.63l.94-5.06h.1l.93,5.06h-1.97Zm-2.63-9.63l-.2.98c1.42-.19,2.8-.52,4.11-.98h-3.91Z"/><path d="m253.6,182.6v4.98s-.1.08-.15.12c-1.53,1.19-3.26,2.14-5.12,2.84-1.74.66-3.6,1.1-5.53,1.28-.75.08-1.51.12-2.28.12-.37,0-.74-.01-1.11-.03-2.15-.1-4.24-.5-6.17-1.17-2.14-.73-4.1-1.8-5.8-3.16v-4.96l11.13,4.56c1.08.45,2.78.45,3.86,0l11.17-4.58Z"/><path d="m264.63,175.95l-3.48,1.43v4.76c.67.29,1.12.94,1.12,1.71,0,.69-.38,1.3-.94,1.61l.47,1.29,1.4,3.9-2.61.69-2.52-.55,1.16-3.97.39-1.3c-.64-.29-1.07-.93-1.07-1.68s.46-1.42,1.12-1.71v-4.15l-17.42,7.15c-.96.4-2.51.4-3.47,0l-22.4-9.18c-.96-.4-.96-1.03,0-1.42l22.4-9.19c.96-.39,2.51-.39,3.47,0l22.4,9.19c.96.39.96,1.02,0,1.42Z"/><path d="m238.77,197.91v-.09c1.14-.73,1.71-1.77,1.71-3.12,0-.68-.11-1.27-.34-1.77-3.41-.05-6.68-.81-9.55-2.19h-2.22v15.1h6.88c3.66,0,5.49-1.47,5.49-4.43,0-1.73-.65-2.9-1.97-3.5Zm-5.22-3.52h.7c.31,0,.53.1.67.31.14.21.21.56.21,1.04s-.07.81-.21,1.01c-.14.19-.35.29-.65.29h-.72v-2.65Zm1.58,8.16c-.15.18-.44.27-.88.27h-.7v-3.11h.7c.42,0,.71.13.86.38.16.25.24.68.24,1.28s-.08.99-.22,1.18Zm4.05-10.84c-.87-.65-2.21-.97-4.03-.97h-1.91c1.93.67,4.02,1.07,6.17,1.17-.07-.08-.15-.14-.23-.2Z"/><path d="m250.69,197.38c-.44-.28-.78-.48-1.03-.6-.26-.12-.63-.28-1.12-.48-.5-.21-.79-.33-.88-.37-.09-.04-.2-.08-.34-.13-.14-.05-.23-.09-.28-.12-.05-.04-.12-.08-.22-.14-.09-.05-.14-.16-.14-.3,0-.39.31-.59.95-.59s1.96.21,3.98.61l.56-4.28c-.58-.1-1.16-.19-1.73-.25-2.57,1.25-5.46,1.99-8.48,2.16-.43.74-.63,1.64-.63,2.69,0,1.6.65,2.85,1.94,3.74.42.29.79.51,1.1.65.31.14.69.3,1.14.48.45.19.8.34,1.03.45.24.12.42.22.54.32.12.1.18.23.18.39,0,.36-.25.53-.75.53-.76,0-2.23-.27-4.4-.82l-.34,4.11c1.71.43,3.47.65,5.26.65s3.17-.44,4.12-1.32c.96-.89,1.44-2.13,1.44-3.73s-.64-2.83-1.9-3.65Zm-3.85-6.88c-1.72,0-3.07.44-4.04,1.32,1.93-.18,3.79-.62,5.53-1.28-.5-.03-1-.04-1.49-.04Z"/><path d="m268.63,105.74c-2.87-3.36-6.87-5.4-11.27-5.75-3.63-.28-7.17.63-10.18,2.56-.86-.59-2.04-.57-2.88.14-3.68,3.14-5.92,7.53-6.3,12.35-.38,4.82,1.14,9.51,4.28,13.19,3.14,3.68,7.53,5.92,12.35,6.3.49.04.97.06,1.46.06,4.3,0,8.42-1.51,11.73-4.34.83-.71,1.04-1.87.6-2.82,2.38-2.67,3.84-6.02,4.13-9.66.35-4.4-1.04-8.67-3.9-12.03Zm2.33,11.91c-.26,3.25-1.55,6.25-3.66,8.66-.82-.39-1.83-.29-2.56.33-2.72,2.32-6.17,3.43-9.73,3.16-3.56-.28-6.79-1.93-9.11-4.65s-3.44-6.17-3.16-9.73c.28-3.56,1.93-6.8,4.65-9.11.74-.63.99-1.61.73-2.48,2.37-1.5,5.09-2.3,7.92-2.3.4,0,.8.02,1.2.05,3.98.32,7.6,2.16,10.19,5.2s3.85,6.9,3.53,10.88Z"/><path class="cls-2" d="m256.77,131.65c-4.3,0-7.67-6.68-7.67-15.21s3.37-15.21,7.67-15.21,7.67,6.68,7.67,15.21-3.37,15.21-7.67,15.21Zm0-29.28c-3.54,0-6.53,6.44-6.53,14.07s2.99,14.07,6.53,14.07,6.53-6.44,6.53-14.07-2.99-14.07-6.53-14.07Z"/><rect class="cls-2" x="242.18" y="115.87" width="29.18" height="1.14"/><path class="cls-2" d="m245.71,126.24l-.71-.9c2.89-2.27,7.27-3.57,12-3.57,4.43,0,8.62,1.17,11.5,3.2l-.66.93c-2.69-1.9-6.65-2.99-10.84-2.99-4.49,0-8.6,1.21-11.3,3.33Z"/><path class="cls-2" d="m257.01,111.12c-4.74,0-9.11-1.3-12-3.57l.7-.9c2.7,2.12,6.82,3.33,11.3,3.33,4.2,0,8.15-1.09,10.84-2.99l.66.93c-2.88,2.03-7.07,3.2-11.5,3.2Z"/><rect class="cls-2" x="256.2" y="101.85" width="1.14" height="29.18"/><path d="m315.43,105.74c-2.87-3.36-6.87-5.4-11.27-5.75-3.63-.28-7.17.63-10.18,2.56-.86-.59-2.04-.57-2.88.14-3.68,3.14-5.92,7.53-6.3,12.35-.38,4.82,1.14,9.51,4.28,13.19,3.14,3.68,7.53,5.92,12.35,6.3.49.04.97.06,1.46.06,4.3,0,8.42-1.51,11.73-4.34.83-.71,1.04-1.87.6-2.82,2.38-2.67,3.84-6.02,4.13-9.66.35-4.4-1.04-8.67-3.9-12.03Zm2.33,11.91c-.26,3.25-1.55,6.25-3.66,8.66-.82-.39-1.83-.29-2.56.33-2.72,2.32-6.17,3.43-9.73,3.16-3.56-.28-6.79-1.93-9.11-4.65s-3.44-6.17-3.16-9.73c.28-3.56,1.93-6.8,4.65-9.11.74-.63.99-1.61.73-2.48,2.37-1.5,5.09-2.3,7.92-2.3.4,0,.8.02,1.2.05,3.98.32,7.6,2.16,10.19,5.2s3.85,6.9,3.53,10.88Z"/><path class="cls-2" d="m302.76,116.21c-1.66,0-3.01-1.35-3.01-3.01s1.35-3.02,3.01-3.02,3.02,1.35,3.02,3.02-1.35,3.01-3.02,3.01Zm0-4.53c-.83,0-1.51.68-1.51,1.52s.68,1.51,1.51,1.51,1.52-.68,1.52-1.51-.68-1.52-1.52-1.52Z"/><path class="cls-2" d="m302.76,127.14c-1.65,0-6.58-11.34-6.58-14.12,0-3.63,2.95-6.58,6.58-6.58s6.58,2.95,6.58,6.58c0,2.58-4.74,14.12-6.58,14.12Zm0-19.2c-2.8,0-5.08,2.28-5.08,5.08,0,2.64,3.74,10.3,5.09,12.29,1.34-1.96,5.07-9.57,5.07-12.29s-2.28-5.08-5.08-5.08Z"/><path d="m362.23,105.74c-2.87-3.36-6.87-5.4-11.27-5.75-3.63-.28-7.17.63-10.18,2.56-.86-.59-2.04-.57-2.88.14-3.68,3.14-5.92,7.53-6.3,12.35-.38,4.82,1.14,9.51,4.28,13.19,3.14,3.68,7.53,5.92,12.35,6.3.49.04.97.06,1.46.06,4.3,0,8.42-1.51,11.73-4.34.83-.71,1.04-1.87.6-2.82,2.38-2.67,3.84-6.02,4.13-9.66.35-4.4-1.04-8.67-3.9-12.03Zm2.33,11.91c-.26,3.25-1.55,6.25-3.66,8.66-.82-.39-1.83-.29-2.56.33-2.72,2.32-6.17,3.43-9.73,3.16-3.56-.28-6.79-1.93-9.11-4.65s-3.44-6.17-3.16-9.73c.28-3.56,1.93-6.8,4.65-9.11.74-.63.99-1.61.73-2.48,2.37-1.5,5.09-2.3,7.92-2.3.4,0,.8.02,1.2.05,3.98.32,7.6,2.16,10.19,5.2s3.85,6.9,3.53,10.88Z"/><path d="m354.03,124.49h-.01c-.71,0-1.55-.25-2.59-.72-1.69-.77-3.17-1.86-4.39-2.82-1.46-1.15-2.75-2.54-3.83-4.13-.72-1.07-1.18-2.09-1.4-3.13-.41-1.94.11-3.66,1.54-5.13.64-.65,1.69-.72,2.4-.16.98.77,1.87,1.67,2.66,2.67.55.7.51,1.62-.09,2.3-.2.23-.42.43-.64.64l-.2.2c.39.7.86,1.46,1.51,2.09.62.61,1.45,1.35,2.44,1.89.14-.15.29-.3.43-.45.29-.3.65-.63,1.18-.78.73-.21,1.22.03,1.49.27.52.45,1.04.91,1.55,1.38.28.27.55.55.81.84l.31.32c.42.44.58,1.03.44,1.67-.14.65-.36,1.2-.69,1.68-.64.94-1.56,1.37-2.91,1.37Zm-9.4-14.98c-.08,0-.16.03-.22.09-1.08,1.1-1.45,2.34-1.15,3.77.18.85.57,1.7,1.18,2.61.99,1.46,2.17,2.74,3.51,3.79,1.16.91,2.54,1.93,4.09,2.64,1.03.47,1.65.58,1.98.58,1.04,0,1.41-.34,1.67-.72.22-.32.37-.69.46-1.14.04-.21-.02-.28-.06-.32l-.32-.33c-.25-.26-.49-.53-.75-.77-.48-.46-.98-.89-1.48-1.32,0,0-.04,0-.11.03-.16.05-.32.18-.53.39-.22.23-.44.45-.66.68-.33.35-.77.43-1.2.21-1.31-.64-2.36-1.58-3.13-2.32-.83-.81-1.4-1.75-1.85-2.57-.36-.67-.31-1.03.23-1.57l.32-.31c.19-.18.38-.37.56-.56.11-.12.12-.25.02-.37-.71-.91-1.52-1.72-2.4-2.42-.05-.04-.11-.06-.17-.06Z"/></g></svg>