<svg id="Layer_1" data-name="Layer 1" xmlns="http://www.w3.org/2000/svg" width="0.59in" height="0.58in" viewBox="0 0 42.34 41.5"><path d="M31.77,28c1.88,0,2,1.41,2,2.8,0,.87-.19,2.36-.19,3.06,0,.26,0,.43.19.43.38,0,3.18-3.89,4.38-5.14a2.32,2.32,0,0,1,1.77-.91c1.13,0,1.9.54,1.9,1.74A3.32,3.32,0,0,1,41.05,32c-1.67,2-4.29,3.54-4.26,3.89a16.6,16.6,0,0,0,4.61,3.88,2.25,2.25,0,0,1,1.32,2.05,1.91,1.91,0,0,1-2.1,1.86c-1.36,0-2.52-1.15-3.32-2-2.14-2.12-3.36-4.1-3.74-4.1-.1,0-.14.07-.14.23a34.34,34.34,0,0,1,.23,3.51c0,1.6-.37,2.45-2.09,2.45-1.46,0-1.89-1-1.89-2.38,0-2,.24-3.13.24-5.51,0-2.14-.24-3.46-.24-4.9C29.67,29.3,30,28,31.77,28Z" transform="translate(-14.83 -15.25)"/><path d="M36.24,22a10.08,10.08,0,0,1,2.85.42,11.55,11.55,0,0,1,2.57,1.09,19.17,19.17,0,0,1,4.18,3.29c.15.14.31.32.46.48s.3.35.45.52a12.45,12.45,0,0,1,.81,1.1,14,14,0,0,1,1.3,2.41A14.72,14.72,0,0,1,49,41.93a13.46,13.46,0,0,1-3,4.59,9.9,9.9,0,0,1-2.27,1.75,11.76,11.76,0,0,1-2.6,1.09,15.73,15.73,0,0,1-2.67.52l-.66.06-.66,0-.65,0h-.66a15.11,15.11,0,0,1-2.75-.24A12.69,12.69,0,0,1,30.41,49,11.84,11.84,0,0,1,28,47.49c-.18-.15-.37-.29-.54-.45l-.26-.23-.26-.24-.25-.24-.22-.23L26,45.63a22.81,22.81,0,0,1-1.7-2,13.88,13.88,0,0,1-1.41-2.4A10,10,0,0,1,22,38.43a5.66,5.66,0,0,1-.08-.72c0-.13,0-.25,0-.37v-.72l0-.34L22,36l0-.33c.11-.88.26-1.75.44-2.62a15.89,15.89,0,0,1,.75-2.56A13.94,13.94,0,0,1,24.46,28c.13-.2.27-.39.4-.58s.28-.37.43-.56.31-.35.47-.53l.5-.5a13.9,13.9,0,0,1,2.21-1.64A17.67,17.67,0,0,1,30.91,23a16.88,16.88,0,0,1,2.61-.74A15.3,15.3,0,0,1,36.24,22Zm0,3.26a12,12,0,0,0-2.15.18,12.86,12.86,0,0,0-2.12.52A11.42,11.42,0,0,0,28.2,28l-.38.34c-.12.13-.24.24-.35.37s-.23.26-.33.4l-.31.42a10.49,10.49,0,0,0-1,1.91,13.74,13.74,0,0,0-.62,2.13,10.36,10.36,0,0,0-.2,2.22v.28c0,.1,0,.19,0,.28v.28s0,.09,0,.13v.12c0,.17,0,.33.07.49s.06.33.1.48a4.27,4.27,0,0,0,.13.48,4.34,4.34,0,0,0,.16.47,4.47,4.47,0,0,0,.19.46l.1.23.12.22a11.94,11.94,0,0,0,1.17,1.76,20.76,20.76,0,0,0,1.49,1.67l.4.42.21.2.19.18a1.62,1.62,0,0,0,.19.18l.2.17c.13.12.26.22.4.33a10.3,10.3,0,0,0,1.71,1.09,9.6,9.6,0,0,0,1.93.68,11.07,11.07,0,0,0,2.11.28h1.13l.57,0,.55,0a12.26,12.26,0,0,0,2.14-.35,7.78,7.78,0,0,0,3.56-1.92,10.46,10.46,0,0,0,2.4-3.51,11.2,11.2,0,0,0,.84-4.23,10,10,0,0,0-.88-4.21,10.39,10.39,0,0,0-1.08-1.85c-.21-.29-.44-.57-.68-.84s-.24-.27-.37-.4-.25-.25-.4-.38a16.15,16.15,0,0,0-3.57-2.64,10.87,10.87,0,0,0-1.94-.77A7.94,7.94,0,0,0,36.24,25.24Z" transform="translate(-14.83 -15.25)"/><path d="M35.47,20.55c-1,0-1.48-.82-1.64-1.7-.22-1.25-.46-3.52,1.38-3.6a1.58,1.58,0,0,1,1.33.64c.41.55.26,1.16.31,1.8s.34,1.26.07,1.89a1.58,1.58,0,0,1-1.38,1Z" transform="translate(-14.83 -15.25)"/><path d="M53.44,37.81a1.57,1.57,0,0,1-1.57-1.5c-.08-1.7,2.06-1.88,3.3-1.86a3,3,0,0,1,.95.13,1.56,1.56,0,0,1-.2,3,8.6,8.6,0,0,1-1.24,0c-.41,0-.77.17-1.17.19Zm1.08-.2Zm-1.1-3Z" transform="translate(-14.83 -15.25)"/><path d="M18.37,38.41a4.49,4.49,0,0,1-.51,0c-1.18,0-3,.05-3-1.54a1.57,1.57,0,0,1,1.5-1.64c.31,0,.48,0,.63,0h.46a4,4,0,0,1,.75,0,1.8,1.8,0,0,0,.33,0,1.58,1.58,0,0,1,1.64,1.5C20.19,37.89,19.3,38.29,18.37,38.41Z" transform="translate(-14.83 -15.25)"/><path d="M36.22,56.75a1.57,1.57,0,0,1-1.5-1.12,5.56,5.56,0,0,1-.08-.81c0-.75-.39-1.62-.12-2.34a1.58,1.58,0,0,1,1.4-1c1.3-.05,1.72,1.26,1.84,2.33s.13,2.9-1.47,3Z" transform="translate(-14.83 -15.25)"/><path d="M47.21,25.19a1.57,1.57,0,0,1-1.09-2.7l.42-.4.36-.35a6.87,6.87,0,0,1,.59-.49,1.84,1.84,0,0,0,.25-.21,1.57,1.57,0,0,1,2.18,2.26,3.89,3.89,0,0,1-.58.49l-.25.21-.41.39-.37.35A1.57,1.57,0,0,1,47.21,25.19Z" transform="translate(-14.83 -15.25)"/><path d="M22.6,26.24a3.22,3.22,0,0,1-1.74-.74c-.92-.71-2.15-1.93-1.2-3.12a1.59,1.59,0,0,1,1.53-.56c.65.13.92.63,1.39,1s1.08.5,1.4,1.09a1.58,1.58,0,0,1-.15,1.74A1.44,1.44,0,0,1,22.6,26.24Zm.08-3.3Z" transform="translate(-14.83 -15.25)"/><path d="M51.18,50.57c-1.77,0-4.11-2.38-2.94-3.84a1.6,1.6,0,0,1,1.59-.55c.63.15.93.7,1.42,1,.23.17.5.27.74.43A1.62,1.62,0,0,1,52.41,50,1.5,1.5,0,0,1,51.18,50.57Zm.09-3.29Z" transform="translate(-14.83 -15.25)"/><path d="M22.28,51.09a1.43,1.43,0,0,1-1.13-.47c-1-1-.13-2.06.73-2.81s2-2,3.16-.8c.8.83.37,1.83-.32,2.54A4.5,4.5,0,0,1,22.28,51.09Zm1.13-.47Z" transform="translate(-14.83 -15.25)"/></svg>