<svg xmlns="http://www.w3.org/2000/svg" width="133.22" height="37.31" viewBox="0 0 133.22 37.31"><g id="Layer_2" data-name="Layer 2"><g id="Layer_1-2" data-name="Layer 1"><path d="M7.06,15.14H.46L5.63.23H15l5.17,14.91H13.62l-.86-2.52H7.92Zm2.06-6h2.44L10.34,5.4Z"/><path d="M43.56,15.25h-5l-3.2-4.69v4.58H28.77V.23h4.72l3.47,5v-5h6.6Z"/><path d="M52.4,3.38V15.14h-6V3.38a6.28,6.28,0,0,0,3.1.67A5.81,5.81,0,0,0,52.4,3.38Zm-1.74,0a1.65,1.65,0,0,1-1.21-.51,1.65,1.65,0,0,1-.51-1.21A1.61,1.61,0,0,1,49.45.5,1.68,1.68,0,0,1,50.66,0a1.64,1.64,0,0,1,1.2.5,1.64,1.64,0,0,1,.5,1.2,1.68,1.68,0,0,1-.5,1.21A1.61,1.61,0,0,1,50.66,3.42Z"/><path d="M67.88,3.4v9.22A5.7,5.7,0,0,1,66.34,17a6.91,6.91,0,0,1-4.76,1.4,13.1,13.1,0,0,1-7-1.7V11.4a6.74,6.74,0,0,0,4.8,2.1c1.63,0,2.44-.5,2.44-1.51a1.71,1.71,0,0,0,0-.31,4.57,4.57,0,0,1-2.48.63,4.9,4.9,0,0,1-3.48-1.21,4.21,4.21,0,0,1-1.29-3.24,4.53,4.53,0,0,1,.55-2.3,3.76,3.76,0,0,1,1.29-1.4,5,5,0,0,1,1.64-.6,19.25,19.25,0,0,1,3-.16Zm-6,3.3H61.7c-1.35,0-2,.49-2,1.47a1.31,1.31,0,0,0,.36,1,1.33,1.33,0,0,0,1,.35,1.25,1.25,0,0,0,.83-.25Z"/><path d="M76.21.23V4.91a4.52,4.52,0,0,1,3.57-1.63,4.25,4.25,0,0,1,3.16,1.17A4.45,4.45,0,0,1,84.1,7.71v7.43H78.39V8.34c0-1-.38-1.48-1.14-1.48a1.6,1.6,0,0,0-1,.45v7.83h-6V.23Z"/><path d="M96,3.38v3.3H93.43V9.2c0,.85.38,1.28,1.14,1.28A1.74,1.74,0,0,0,96,9.64V14.3a6.19,6.19,0,0,1-3.46.93,5.41,5.41,0,0,1-3.67-1.29,4.52,4.52,0,0,1-1.49-3.58V6.68H84.93L93.43,0V3.38Z"/><path d="M104.93,8.21V4.68a11.93,11.93,0,0,1,5.8-1.4,6.63,6.63,0,0,1,4.55,1.32,5.14,5.14,0,0,1,1.47,4v6.51h-6v-.88a4.87,4.87,0,0,1-2.94,1,3.07,3.07,0,0,1-2.24-.87,2.94,2.94,0,0,1-.9-2.2,3.11,3.11,0,0,1,1.11-2.47,4.34,4.34,0,0,1,2.91-.95,7.92,7.92,0,0,1,2.06.27,1.51,1.51,0,0,0-.63-1.28,3,3,0,0,0-1.75-.45A7.18,7.18,0,0,0,104.93,8.21Zm5.78,4.33V10.9a2.91,2.91,0,0,0-1-.19,1.3,1.3,0,0,0-.88.29.89.89,0,0,0-.34.74,1,1,0,0,0,.36.8,1.32,1.32,0,0,0,.9.32A1.41,1.41,0,0,0,110.71,12.54Z"/><path d="M128.43,3.38v3.3h-2.52V9.2c0,.85.38,1.28,1.14,1.28a1.76,1.76,0,0,0,1.45-.84V14.3a6.22,6.22,0,0,1-3.47.93,5.38,5.38,0,0,1-3.66-1.29,4.49,4.49,0,0,1-1.49-3.58V6.68h-2.46L125.91,0V3.38Z"/><path d="M11,25.38v3.3H8.5V31.2c0,.85.38,1.28,1.14,1.28a1.74,1.74,0,0,0,1.44-.84V36.3a6.19,6.19,0,0,1-3.46.93A5.41,5.41,0,0,1,4,35.94a4.52,4.52,0,0,1-1.49-3.58V28.68H0L8.5,22v3.36Z"/><path d="M19,22.23v4.68a4.5,4.5,0,0,1,3.56-1.63,4.23,4.23,0,0,1,3.16,1.17,4.45,4.45,0,0,1,1.16,3.26v7.43h-5.7v-6.8c0-1-.38-1.48-1.15-1.48a1.57,1.57,0,0,0-1,.45v7.83H12.93V22.23Z"/><path d="M41.36,32.65v2.06a6.73,6.73,0,0,1-5.71,2.6,7.07,7.07,0,0,1-4.93-1.7,5.8,5.8,0,0,1-1.86-4.49,5.79,5.79,0,0,1,1.71-4.32A6.12,6.12,0,0,1,35,25.13a7.1,7.1,0,0,1,2.59.47A5.93,5.93,0,0,1,39.67,27,5.78,5.78,0,0,1,41,29.09,9.24,9.24,0,0,1,41.36,32H35.19a2.85,2.85,0,0,0,1.12,1.41,3.26,3.26,0,0,0,1.79.5A4.29,4.29,0,0,0,41.36,32.65ZM34.83,30h2.85a2.35,2.35,0,0,0-.44-1.37,1.27,1.27,0,0,0-2,0A2.08,2.08,0,0,0,34.83,30Z"/><path d="M50.58,37.14V22.23H57l2.7,3.11,2.7-3.11h6.4V37.14h-6.6V29.68l-2.5,2.88-2.5-2.88v7.46Z"/><path d="M77.57,37.31A6.5,6.5,0,0,1,73,35.63a5.72,5.72,0,0,1-1.81-4.39,5.82,5.82,0,0,1,1.78-4.41,7.2,7.2,0,0,1,9.29,0A5.82,5.82,0,0,1,84,31.24a5.74,5.74,0,0,1-1.79,4.38A6.51,6.51,0,0,1,77.57,37.31Zm0-7.54a1.27,1.27,0,0,0-.95.38,1.46,1.46,0,0,0,0,1.94,1.3,1.3,0,0,0,.95.37,1.34,1.34,0,0,0,1-.37,1.3,1.3,0,0,0,.37-1,1.33,1.33,0,0,0-.37-1A1.34,1.34,0,0,0,77.57,29.77Z"/><path d="M83.84,25.38h6l1.31,3,1.28-3h6L93.4,37.14H88.93Z"/><path d="M105.85,25.38V37.14h-6V25.38a6.21,6.21,0,0,0,3.09.67A5.81,5.81,0,0,0,105.85,25.38Zm-1.74,0a1.72,1.72,0,0,1-1.71-1.72,1.64,1.64,0,0,1,.5-1.2,1.71,1.71,0,0,1,2.42,0,1.63,1.63,0,0,1,.49,1.2,1.67,1.67,0,0,1-.49,1.21A1.65,1.65,0,0,1,104.11,25.42Z"/><path d="M120.42,32.65v2.06a6.72,6.72,0,0,1-5.7,2.6,7.08,7.08,0,0,1-4.94-1.7,5.8,5.8,0,0,1-1.86-4.49,5.79,5.79,0,0,1,1.71-4.32,6.12,6.12,0,0,1,4.45-1.67,7.1,7.1,0,0,1,2.59.47A5.93,5.93,0,0,1,118.73,27,5.78,5.78,0,0,1,120,29.09a9.24,9.24,0,0,1,.41,2.93h-6.16a2.78,2.78,0,0,0,1.11,1.41,3.28,3.28,0,0,0,1.79.5A4.29,4.29,0,0,0,120.42,32.65ZM113.9,30h2.84a2.28,2.28,0,0,0-.44-1.37,1.25,1.25,0,0,0-1-.5,1.22,1.22,0,0,0-1,.48A2,2,0,0,0,113.9,30Z"/><path d="M121.48,36l1.35-3.3a4.51,4.51,0,0,0,1.5,1.32,3.69,3.69,0,0,0,1.73.47,1.42,1.42,0,0,0,.84-.23.74.74,0,0,0,.32-.61A.86.86,0,0,0,127,33a3.85,3.85,0,0,0-1.42-.6,9.34,9.34,0,0,1-1.9-.73,3.27,3.27,0,0,1-1.24-1.16,3.19,3.19,0,0,1,1-4.41,7.74,7.74,0,0,1,4.23-1,12.43,12.43,0,0,1,5.24,1l-1.44,3a4.24,4.24,0,0,0-2.76-1.28,1.19,1.19,0,0,0-.71.19.6.6,0,0,0-.27.5.84.84,0,0,0,.28.63,4.06,4.06,0,0,0,1.48.56,10.78,10.78,0,0,1,2,.7,3,3,0,0,1,1.27,1.17,3.54,3.54,0,0,1-1,4.65,6.41,6.41,0,0,1-3.81,1.05A17.31,17.31,0,0,1,121.48,36Z"/></g></g></svg>